<svg xmlns="http://www.w3.org/2000/svg" xmlns:xlink="http://www.w3.org/1999/xlink" xmlns:lucid="lucid" width="1521" height="1881"><g transform="translate(360.5 -439.5)" lucid:page-tab-id="0_0"><path d="M940 1900h200v400H940zM60 1900h680v400H60zM-340 1060h600v800h-600zM300 460h200v600H300z" stroke="#000" stroke-opacity="0" fill="#dfe3e8"/><path d="M320 686a6 6 0 0 1 6-6h148a6 6 0 0 1 6 6v148a6 6 0 0 1-6 6H326a6 6 0 0 1-6-6z" stroke="#ffec7e" stroke-width="5" fill="#2a2a2a"/><use xlink:href="#a" transform="matrix(1,0,0,1,325,685) translate(15.648871527777793 66.06553819444443)"/><use xlink:href="#b" transform="matrix(1,0,0,1,325,685) translate(58.33550347222223 108.4331597222222)"/><path d="M320 886a6 6 0 0 1 6-6h148a6 6 0 0 1 6 6v148a6 6 0 0 1-6 6H326a6 6 0 0 1-6-6z" stroke="#fff" fill="#fff"/><use xlink:href="#c" transform="matrix(1,0,0,1,325,885) translate(12.101779513888907 66.06553819444443)"/><use xlink:href="#d" transform="matrix(1,0,0,1,325,885) translate(4.460720486111114 108.4331597222222)"/><path d="M359.52 843v20.12" stroke="#3a414a" fill="none"/><path d="M360 843h-.95v-.5h.95z" stroke="#3a414a" stroke-width=".05" fill="#3a414a"/><path d="M359.52 877.88l-4.63-14.26h9.26z" stroke="#3a414a" fill="#3a414a"/><path d="M440.95 879v-1.68m0-3.35v-3.35m0-3.35v-3.36m0-3.34v-1.68" stroke="#3a414a" fill="none"/><path d="M441.43 879.5h-.95v-.5h.95z" stroke="#3a414a" stroke-width=".05" fill="#3a414a"/><path d="M440.95 844.12l4.64 14.26h-9.28z" stroke="#3a414a" fill="#3a414a"/><path d="M320 486a6 6 0 0 1 6-6h148a6 6 0 0 1 6 6v148a6 6 0 0 1-6 6H326a6 6 0 0 1-6-6z" stroke="#fff" fill="#cfe4ff"/><use xlink:href="#e" transform="matrix(1,0,0,1,325,485) translate(33.589409722222236 84.81553819444443)"/><path d="M360.24 641v20.12" stroke="#3a414a" fill="none"/><path d="M360.72 641h-.95v-.5h.95z" stroke="#3a414a" stroke-width=".05" fill="#3a414a"/><path d="M360.24 675.88l-4.63-14.26h9.28z" stroke="#3a414a" fill="#3a414a"/><path d="M439.66 656.88v1.68m0 3.35v3.37m0 3.35v3.35m0 3.35V677" stroke="#3a414a" fill="none"/><path d="M439.66 642.12l4.64 14.26h-9.27z" stroke="#3a414a" fill="#3a414a"/><path d="M440.14 677.5h-.95v-.5h.94z" stroke="#3a414a" stroke-width=".05" fill="#3a414a"/><path d="M-320 1486.5a6 6 0 0 1 6-6h148a6 6 0 0 1 6 6v148a6 6 0 0 1-6 6h-148a6 6 0 0 1-6-6z" stroke="#fff" fill="#2a2a2a"/><use xlink:href="#a" transform="matrix(1,0,0,1,-315,1485.499977136975) translate(15.648871527777793 66.06553819444443)"/><use xlink:href="#b" transform="matrix(1,0,0,1,-315,1485.499977136975) translate(58.33550347222223 108.4331597222222)"/><path d="M-320 1686a6 6 0 0 1 6-6h148a6 6 0 0 1 6 6v148a6 6 0 0 1-6 6h-148a6 6 0 0 1-6-6z" stroke="#fff" fill="#fff"/><use xlink:href="#c" transform="matrix(1,0,0,1,-315,1685) translate(12.101779513888907 66.06553819444443)"/><use xlink:href="#d" transform="matrix(1,0,0,1,-315,1685) translate(4.460720486111114 108.4331597222222)"/><path d="M-279.97 1641.5v21.62" stroke="#3a414a" fill="none"/><path d="M-279.5 1641.5h-.95v-.5h.95z" stroke="#3a414a" stroke-width=".05" fill="#3a414a"/><path d="M-279.97 1677.88l-4.64-14.26h9.26z" stroke="#3a414a" fill="#3a414a"/><path d="M-199.85 1679v-2.34m0-4.7v-4.68m0-4.7v-5.2" stroke="#3a414a" fill="none"/><path d="M-199.38 1679.5h-.95v-.5h.95z" stroke="#3a414a" stroke-width=".05" fill="#3a414a"/><path d="M-199.85 1642.62l4.63 14.27-9.27-.02z" stroke="#3a414a" fill="#3a414a"/><path d="M-120 1086a6 6 0 0 1 6-6H34a6 6 0 0 1 6 6v148a6 6 0 0 1-6 6h-148a6 6 0 0 1-6-6z" stroke="#64a9fe" stroke-width="5" fill="#2a2a2a"/><use xlink:href="#a" transform="matrix(1,0,0,1,-115,1085) translate(15.648871527777793 66.06553819444443)"/><use xlink:href="#b" transform="matrix(1,0,0,1,-115,1085) translate(58.33550347222223 108.4331597222222)"/><path d="M-120 1286.25a6 6 0 0 1 6-6H34a6 6 0 0 1 6 6v148a6 6 0 0 1-6 6h-148a6 6 0 0 1-6-6z" stroke="#fff" fill="#fff"/><use xlink:href="#c" transform="matrix(1,0,0,1,-115,1285.2499885684874) translate(12.101779513888907 66.06553819444443)"/><use xlink:href="#d" transform="matrix(1,0,0,1,-115,1285.2499885684874) translate(4.460720486111114 108.4331597222222)"/><path d="M-78.44 1243v20.36" stroke="#3a414a" fill="none"/><path d="M-77.96 1243h-.95v-.5h.94z" stroke="#3a414a" stroke-width=".05" fill="#3a414a"/><path d="M-78.44 1278.13l-4.63-14.27h9.27z" stroke="#3a414a" fill="#3a414a"/><path d="M-.28 1279.25v-2.27m0-4.53v-4.53m0-4.53v-4.51" stroke="#3a414a" fill="none"/><path d="M.2 1279.75h-.95v-.5H.2z" stroke="#3a414a" stroke-width=".05" fill="#3a414a"/><path d="M-.28 1244.12l4.64 14.27-9.27-.02z" stroke="#3a414a" fill="#3a414a"/><path d="M80 1486.5a6 6 0 0 1 6-6h148a6 6 0 0 1 6 6v148a6 6 0 0 1-6 6H86a6 6 0 0 1-6-6z" stroke="#fff" fill="#2a2a2a"/><use xlink:href="#a" transform="matrix(1,0,0,1,85,1485.499977136975) translate(15.648871527777793 66.06553819444443)"/><use xlink:href="#b" transform="matrix(1,0,0,1,85,1485.499977136975) translate(58.33550347222223 108.4331597222222)"/><path d="M80 1686a6 6 0 0 1 6-6h148a6 6 0 0 1 6 6v148a6 6 0 0 1-6 6H86a6 6 0 0 1-6-6z" stroke="#fff" fill="#fff"/><use xlink:href="#c" transform="matrix(1,0,0,1,85,1685) translate(12.101779513888907 66.06553819444443)"/><use xlink:href="#d" transform="matrix(1,0,0,1,85,1685) translate(4.460720486111114 108.4331597222222)"/><path d="M201.3 1641.5v21.62" stroke="#3a414a" fill="none"/><path d="M201.77 1641.5h-.95v-.5h.95z" stroke="#3a414a" stroke-width=".05" fill="#3a414a"/><path d="M201.3 1677.88l-4.64-14.27 9.27.02z" stroke="#3a414a" fill="#3a414a"/><path d="M121.6 1679v-1.8m0-3.6v-3.6m0-3.6v-3.6m0-3.62v-1.8" stroke="#3a414a" fill="none"/><path d="M122.07 1679.5h-.95v-.5h.95z" stroke="#3a414a" stroke-width=".05" fill="#3a414a"/><path d="M121.6 1642.62l4.64 14.26h-9.28z" stroke="#3a414a" fill="#3a414a"/><path d="M-340 1900h200v400h-200z" stroke="#000" stroke-opacity="0" fill="#dfe3e8"/><path d="M80 1926a6 6 0 0 1 6-6h148a6 6 0 0 1 6 6v148a6 6 0 0 1-6 6H86a6 6 0 0 1-6-6z" stroke="#64a9fe" stroke-width="5" fill="#2a2a2a"/><use xlink:href="#a" transform="matrix(1,0,0,1,85,1925) translate(15.648871527777793 66.06553819444443)"/><use xlink:href="#b" transform="matrix(1,0,0,1,85,1925) translate(58.33550347222223 108.4331597222222)"/><path d="M80 2126a6 6 0 0 1 6-6h148a6 6 0 0 1 6 6v148a6 6 0 0 1-6 6H86a6 6 0 0 1-6-6z" stroke="#fff" fill="#fff"/><use xlink:href="#c" transform="matrix(1,0,0,1,85,2125) translate(12.101779513888907 66.06553819444443)"/><use xlink:href="#d" transform="matrix(1,0,0,1,85,2125) translate(4.460720486111114 108.4331597222222)"/><path d="M202.3 2083v20.1" stroke="#3a414a" fill="none"/><path d="M202.78 2083h-.95v-.5h.95z" stroke="#3a414a" stroke-width=".05" fill="#3a414a"/><path d="M202.3 2117.88l-4.63-14.27h9.27z" stroke="#3a414a" fill="#3a414a"/><path d="M121.55 2083v1.97m0 3.96v3.95m0 3.94v3.95m0 3.95v3.96m0 3.95v3.94m0 3.95v1.98-1.97m0-3.93v-3.94m0-3.94v-3.93m0-3.95v-1.96" stroke="#3a414a" fill="none"/><path d="M122.03 2083h-.95v-.5h.95z" stroke="#3a414a" stroke-width=".05" fill="#3a414a"/><path d="M121.55 2084.12l4.64 14.27h-9.28z" stroke="#3a414a" fill="#3a414a"/><path d="M-320 1926a6 6 0 0 1 6-6h148a6 6 0 0 1 6 6v148a6 6 0 0 1-6 6h-148a6 6 0 0 1-6-6z" stroke="#64a9fe" stroke-width="5" fill="#2a2a2a"/><use xlink:href="#a" transform="matrix(1,0,0,1,-315,1925) translate(15.648871527777793 66.06553819444443)"/><use xlink:href="#b" transform="matrix(1,0,0,1,-315,1925) translate(58.33550347222223 108.4331597222222)"/><path d="M-320 2126a6 6 0 0 1 6-6h148a6 6 0 0 1 6 6v148a6 6 0 0 1-6 6h-148a6 6 0 0 1-6-6z" stroke="#fff" fill="#fff"/><use xlink:href="#c" transform="matrix(1,0,0,1,-315,2125) translate(12.101779513888907 66.06553819444443)"/><use xlink:href="#d" transform="matrix(1,0,0,1,-315,2125) translate(4.460720486111114 108.4331597222222)"/><path d="M-281 2083v20.1" stroke="#3a414a" fill="none"/><path d="M-280.5 2083h-.96v-.5h.95z" stroke="#3a414a" stroke-width=".05" fill="#3a414a"/><path d="M-281 2117.88l-4.62-14.27h9.27z" stroke="#3a414a" fill="#3a414a"/><path d="M-199.83 2119v-2.25m0-4.5v-4.5m0-4.5v-4.35" stroke="#3a414a" fill="none"/><path d="M-199.36 2119.5h-.95v-.5h.94z" stroke="#3a414a" stroke-width=".05" fill="#3a414a"/><path d="M-199.83 2084.12l4.63 14.27h-9.27z" stroke="#3a414a" fill="#3a414a"/><path d="M540 1060h600v800H540z" stroke="#000" stroke-opacity="0" fill="#dfe3e8"/><path d="M560 1486.5a6 6 0 0 1 6-6h148a6 6 0 0 1 6 6v148a6 6 0 0 1-6 6H566a6 6 0 0 1-6-6z" stroke="#fff" fill="#2a2a2a"/><use xlink:href="#a" transform="matrix(1,0,0,1,565,1485.499977136975) translate(15.648871527777793 66.06553819444443)"/><use xlink:href="#b" transform="matrix(1,0,0,1,565,1485.499977136975) translate(58.33550347222223 108.4331597222222)"/><path d="M560 1686a6 6 0 0 1 6-6h148a6 6 0 0 1 6 6v148a6 6 0 0 1-6 6H566a6 6 0 0 1-6-6z" stroke="#fff" fill="#fff"/><use xlink:href="#c" transform="matrix(1,0,0,1,565,1685) translate(12.101779513888907 66.06553819444443)"/><use xlink:href="#d" transform="matrix(1,0,0,1,565,1685) translate(4.460720486111114 108.4331597222222)"/><path d="M598.47 1641.5v21.62" stroke="#3a414a" fill="none"/><path d="M598.94 1641.5H598v-.5h.94z" stroke="#3a414a" stroke-width=".05" fill="#3a414a"/><path d="M598.47 1677.88l-4.64-14.26h9.27z" stroke="#3a414a" fill="#3a414a"/><path d="M679.84 1679v-1.8m0-3.6v-3.6m0-3.6v-3.6m0-3.62v-1.8" stroke="#3a414a" fill="none"/><path d="M680.3 1679.5h-.94v-.5h.95z" stroke="#3a414a" stroke-width=".05" fill="#3a414a"/><path d="M679.84 1642.62l4.63 14.26h-9.27z" stroke="#3a414a" fill="#3a414a"/><path d="M760 1086a6 6 0 0 1 6-6h148a6 6 0 0 1 6 6v148a6 6 0 0 1-6 6H766a6 6 0 0 1-6-6z" stroke="#64a9fe" stroke-width="5" fill="#2a2a2a"/><use xlink:href="#a" transform="matrix(1,0,0,1,765,1085) translate(15.648871527777793 66.06553819444443)"/><use xlink:href="#b" transform="matrix(1,0,0,1,765,1085) translate(58.33550347222223 108.4331597222222)"/><path d="M760 1286.25a6 6 0 0 1 6-6h148a6 6 0 0 1 6 6v148a6 6 0 0 1-6 6H766a6 6 0 0 1-6-6z" stroke="#fff" fill="#fff"/><use xlink:href="#c" transform="matrix(1,0,0,1,765,1285.2499885684874) translate(12.101779513888907 66.06553819444443)"/><use xlink:href="#d" transform="matrix(1,0,0,1,765,1285.2499885684874) translate(4.460720486111114 108.4331597222222)"/><path d="M881.28 1243v20.37" stroke="#3a414a" fill="none"/><path d="M881.76 1243h-.95v-.5h.96z" stroke="#3a414a" stroke-width=".05" fill="#3a414a"/><path d="M881.28 1278.13l-4.63-14.26h9.27z" stroke="#3a414a" fill="#3a414a"/><path d="M800.3 1279.25v-1.7m0-3.4v-3.4m0-3.38v-3.4m0-3.4v-1.7" stroke="#3a414a" fill="none"/><path d="M800.77 1279.75h-.95v-.5h.95z" stroke="#3a414a" stroke-width=".05" fill="#3a414a"/><path d="M800.3 1244.12l4.63 14.26h-9.27z" stroke="#3a414a" fill="#3a414a"/><path d="M960 1486.5a6 6 0 0 1 6-6h148a6 6 0 0 1 6 6v148a6 6 0 0 1-6 6H966a6 6 0 0 1-6-6z" stroke="#fff" fill="#2a2a2a"/><use xlink:href="#a" transform="matrix(1,0,0,1,965,1485.499977136975) translate(15.648871527777793 66.06553819444443)"/><use xlink:href="#b" transform="matrix(1,0,0,1,965,1485.499977136975) translate(58.33550347222223 108.4331597222222)"/><path d="M960 1686a6 6 0 0 1 6-6h148a6 6 0 0 1 6 6v148a6 6 0 0 1-6 6H966a6 6 0 0 1-6-6z" stroke="#fff" fill="#fff"/><use xlink:href="#c" transform="matrix(1,0,0,1,965,1685) translate(12.101779513888907 66.06553819444443)"/><use xlink:href="#d" transform="matrix(1,0,0,1,965,1685) translate(4.460720486111114 108.4331597222222)"/><path d="M1081 1641.5v21.62" stroke="#3a414a" fill="none"/><path d="M1081.47 1641.5h-.94v-.5h.94z" stroke="#3a414a" stroke-width=".05" fill="#3a414a"/><path d="M1081 1677.88l-4.63-14.26h9.27z" stroke="#3a414a" fill="#3a414a"/><path d="M1000.5 1679v-1.8m0-3.6v-3.6m0-3.6v-3.6m0-3.62v-1.8" stroke="#3a414a" fill="none"/><path d="M1000.98 1679.5h-.96v-.5h.96z" stroke="#3a414a" stroke-width=".05" fill="#3a414a"/><path d="M1000.5 1642.62l4.63 14.26h-9.26z" stroke="#3a414a" fill="#3a414a"/><path d="M960 1926a6 6 0 0 1 6-6h148a6 6 0 0 1 6 6v148a6 6 0 0 1-6 6H966a6 6 0 0 1-6-6z" stroke="#64a9fe" stroke-width="5" fill="#2a2a2a"/><use xlink:href="#a" transform="matrix(1,0,0,1,965,1925) translate(15.648871527777793 66.06553819444443)"/><use xlink:href="#b" transform="matrix(1,0,0,1,965,1925) translate(58.33550347222223 108.4331597222222)"/><path d="M960 2126a6 6 0 0 1 6-6h148a6 6 0 0 1 6 6v148a6 6 0 0 1-6 6H966a6 6 0 0 1-6-6z" stroke="#fff" fill="#fff"/><use xlink:href="#c" transform="matrix(1,0,0,1,965,2125) translate(12.101779513888907 66.06553819444443)"/><use xlink:href="#d" transform="matrix(1,0,0,1,965,2125) translate(4.460720486111114 108.4331597222222)"/><path d="M1080.4 2083v20.12" stroke="#3a414a" fill="none"/><path d="M1080.87 2083h-.95v-.5h.95z" stroke="#3a414a" stroke-width=".05" fill="#3a414a"/><path d="M1080.4 2117.88l-4.64-14.26h9.28z" stroke="#3a414a" fill="#3a414a"/><path d="M1001.06 2119v-2.25m0-4.5v-4.5m0-4.5v-4.35" stroke="#3a414a" fill="none"/><path d="M1001.53 2119.5h-.95v-.5h.95z" stroke="#3a414a" stroke-width=".05" fill="#3a414a"/><path d="M1001.06 2084.12l4.63 14.27h-9.28z" stroke="#3a414a" fill="#3a414a"/><path d="M560 1926a6 6 0 0 1 6-6h148a6 6 0 0 1 6 6v148a6 6 0 0 1-6 6H566a6 6 0 0 1-6-6z" stroke="#64a9fe" stroke-width="5" fill="#2a2a2a"/><use xlink:href="#a" transform="matrix(1,0,0,1,565,1925) translate(15.648871527777793 66.06553819444443)"/><use xlink:href="#b" transform="matrix(1,0,0,1,565,1925) translate(58.33550347222223 108.4331597222222)"/><path d="M560 2126a6 6 0 0 1 6-6h148a6 6 0 0 1 6 6v148a6 6 0 0 1-6 6H566a6 6 0 0 1-6-6z" stroke="#fff" fill="#fff"/><use xlink:href="#c" transform="matrix(1,0,0,1,565,2125) translate(12.101779513888907 66.06553819444443)"/><use xlink:href="#d" transform="matrix(1,0,0,1,565,2125) translate(4.460720486111114 108.4331597222222)"/><path d="M600.44 2083v20.12" stroke="#3a414a" fill="none"/><path d="M600.92 2083h-.95v-.5h.95z" stroke="#3a414a" stroke-width=".05" fill="#3a414a"/><path d="M600.44 2117.88l-4.63-14.26h9.28z" stroke="#3a414a" fill="#3a414a"/><path d="M680.52 2119v-1.68m0-3.35v-3.35m0-3.35v-3.36m0-3.34v-1.68" stroke="#3a414a" fill="none"/><path d="M681 2119.5h-.96v-.5h.95z" stroke="#3a414a" stroke-width=".05" fill="#3a414a"/><path d="M680.52 2084.12l4.63 14.26h-9.27z" stroke="#3a414a" fill="#3a414a"/><path d="M-200.05 1479.5v-2.08m0-4.17v-4.16m0-4.18v-4.16m0-4.17v-4.18m0-4.16v-4.17m0-4.17v-4.17m0-4.16v-4.17m0-4.17v-4.16m0-4.17v-4.16m0-4.17v-2.08l.07-.94.22-.9.18-.45m3.24-3.24l.44-.2.9-.2.95-.08h2.04m4.07 0h4.1m4.07 0h4.08m4.1 0h4.07m4.07 0h4.1m4.07 0h4.08m4.1 0h4.07m4.07 0h2.05" stroke="#3a414a" fill="none"/><path d="M-199.57 1480h-.96v-.5h.96z" stroke="#3a414a" stroke-width=".05" fill="#3a414a"/><path d="M-122.12 1398.52l-14.26 4.63v-9.27z" stroke="#3a414a" fill="#3a414a"/><path d="M-281.13 1463.62v-138.25a6 6 0 0 1 6-6H-121" stroke="#3a414a" fill="none"/><path d="M-281.13 1478.38l-4.63-14.26h9.27z" stroke="#3a414a" fill="#3a414a"/><path d="M-120.5 1319.85h-.5v-.95h.5z" stroke="#3a414a" stroke-width=".05" fill="#3a414a"/><path d="M1080.25 1841v60.12" stroke="#3a414a" fill="none"/><path d="M1080.72 1841h-.95v-.5h.95z" stroke="#3a414a" stroke-width=".05" fill="#3a414a"/><path d="M1080.25 1915.88l-4.64-14.26h9.28z" stroke="#3a414a" fill="#3a414a"/><path d="M999.95 1917v-1.88m0-3.76v-3.75m0-3.75v-3.76m0-3.76v-3.76m0-3.76v-3.76m0-3.75v-3.75m0-3.76v-3.77m0-3.75v-3.76m0-3.76v-1.88" stroke="#3a414a" fill="none"/><path d="M1000.42 1917.5h-.95v-.5h.95z" stroke="#3a414a" stroke-width=".05" fill="#3a414a"/><path d="M999.95 1842.12l4.63 14.26h-9.27z" stroke="#3a414a" fill="#3a414a"/><path d="M600.5 1841v60.12" stroke="#3a414a" fill="none"/><path d="M600.98 1841h-.95v-.5h.95z" stroke="#3a414a" stroke-width=".05" fill="#3a414a"/><path d="M600.5 1915.88l-4.63-14.26h9.27z" stroke="#3a414a" fill="#3a414a"/><path d="M681.87 1917v-1.88m0-3.76v-3.75m0-3.75v-3.76m0-3.76v-3.76m0-3.76v-3.76m0-3.75v-3.75m0-3.76v-3.77m0-3.75v-3.76m0-3.76v-1.88" stroke="#3a414a" fill="none"/><path d="M682.35 1917.5h-.95v-.5h.95z" stroke="#3a414a" stroke-width=".05" fill="#3a414a"/><path d="M681.87 1842.12l4.64 14.26h-9.26z" stroke="#3a414a" fill="#3a414a"/><path d="M679.4 1479.5v-2.04m0-4.1v-4.08m0-4.1v-4.08m0-4.1v-4.08m0-4.1v-4.07m0-4.1v-4.08m0-4.1v-4.08m0-4.1v-4.1m0-4.07v-4.1m0-4.08v-2.05l.08-.93.22-.92.18-.43m3.24-3.24l.43-.18.92-.22.93-.08h2.07m4.12 0h4.1m4.13 0h4.13m4.12 0h4.12m4.12 0h4.12m4.13 0h4.12m4.1 0h4.13m4.13 0h2.06" stroke="#3a414a" fill="none"/><path d="M679.88 1480h-.95v-.5h.95z" stroke="#3a414a" stroke-width=".05" fill="#3a414a"/><path d="M757.88 1399.9l-14.26 4.64v-9.27z" stroke="#3a414a" fill="#3a414a"/><path d="M759 1318.94H606.28a6 6 0 0 0-6 6v138.68" stroke="#3a414a" fill="none"/><path d="M759.5 1319.42h-.5v-.95h.5z" stroke="#3a414a" stroke-width=".05" fill="#3a414a"/><path d="M600.28 1478.38l-4.64-14.26h9.27z" stroke="#3a414a" fill="#3a414a"/><path d="M921 1320.05h151.86a6 6 0 0 1 6 6v137.57" stroke="#3a414a" fill="none"/><path d="M921 1320.53h-.5v-.95h.5z" stroke="#3a414a" stroke-width=".05" fill="#3a414a"/><path d="M1078.86 1478.38l-4.63-14.26h9.27z" stroke="#3a414a" fill="#3a414a"/><path d="M1002.13 1479.5v-2.1m0-4.16v-4.17m0-4.18v-4.18m0-4.17v-4.18m0-4.17v-4.18m0-4.17v-4.17m0-4.18v-4.17m0-4.17v-4.18m0-4.17v-4.17m0-4.17v-2.1l-.08-.92-.22-.92-.18-.43m-3.24-3.25l-.42-.18-.9-.22-.95-.08H994m-4.22 0h-4.23m-4.23 0h-4.24m-4.23 0h-4.23m-4.23 0h-4.24m-4.23 0h-4.24m-4.24 0h-4.23m-4.23 0h-2.12" stroke="#3a414a" fill="none"/><path d="M1002.6 1480h-.95v-.5h.95z" stroke="#3a414a" stroke-width=".05" fill="#3a414a"/><path d="M922.12 1398.37l14.26-4.63v9.27z" stroke="#3a414a" fill="#3a414a"/><path d="M880 726a6 6 0 0 1 6-6h228a6 6 0 0 1 6 6v68a6 6 0 0 1-6 6H886a6 6 0 0 1-6-6z" stroke="#000" stroke-opacity="0" fill="#fff" fill-opacity="0"/><use xlink:href="#f" transform="matrix(1,0,0,1,885,725) translate(37.9410807291667 48.75325520833332)"/><path d="M-340 726a6 6 0 0 1 6-6H74a6 6 0 0 1 6 6v68a6 6 0 0 1-6 6h-408a6 6 0 0 1-6-6z" stroke="#000" stroke-opacity="0" fill="#fff" fill-opacity="0"/><use xlink:href="#g" transform="matrix(1,0,0,1,-335,725) translate(22.228190104166742 48.94075520833332)"/><use xlink:href="#h" transform="matrix(1,0,0,1,-335,725) translate(87.31608072916671 48.94075520833332)"/><use xlink:href="#i" transform="matrix(1,0,0,1,-335,725) translate(186.59993489583334 48.94075520833332)"/><use xlink:href="#j" transform="matrix(1,0,0,1,-335,725) translate(260.2327473958333 48.94075520833332)"/><path d="M280 1106a6 6 0 0 1 6-6h228a6 6 0 0 1 6 6v108a6 6 0 0 1-6 6H286a6 6 0 0 1-6-6z" stroke="#000" stroke-opacity="0" fill="#fff" fill-opacity="0"/><use xlink:href="#k" transform="matrix(1,0,0,1,285,1105) translate(18.42610677083337 45.94075520833332)"/><use xlink:href="#l" transform="matrix(1,0,0,1,285,1105) translate(146.59993489583331 45.94075520833332)"/><use xlink:href="#j" transform="matrix(1,0,0,1,285,1105) translate(51.23046875000003 91.33463541666663)"/><path d="M41 1319.2h154.3a6 6 0 0 1 6 6v138.42" stroke="#3a414a" fill="none"/><path d="M41 1319.68h-.5v-.95h.5z" stroke="#3a414a" stroke-width=".05" fill="#3a414a"/><path d="M201.3 1478.38l-4.64-14.26h9.27z" stroke="#3a414a" fill="#3a414a"/><path d="M160 1479.5v-2.07m0-4.13v-4.13m0-4.13v-4.13m0-4.13v-4.13m0-4.13v-4.12m0-4.13v-4.13m0-4.14v-4.13m0-4.13v-4.13m0-4.14v-4.13m0-4.14v-2.07l-.07-.94-.22-.93-.17-.43m-3.24-3.24l-.45-.18-.9-.22-.95-.07h-2.02m-4.05 0h-4.05m-4.04 0h-4.05m-4.06 0h-4.04m-4.05 0h-4.05m-4.04 0h-4.05m-4.03 0h-4.05m-4.05 0h-4.04m-4.05 0h-4.05m-4.04 0h-4.06m-4.05 0h-4.05m-4.05 0h-4.05m-4.04 0H56.9" stroke="#3a414a" fill="none"/><path d="M160.47 1480h-.94v-.5h.94z" stroke="#3a414a" stroke-width=".05" fill="#3a414a"/><path d="M42.12 1399.13l14.26-4.64v9.26z" stroke="#3a414a" fill="#3a414a"/><path d="M121.34 1917v-1.9m0-3.8v-3.8m0-3.8v-3.8m0-3.8v-3.8m0-3.8v-3.8m0-3.8v-3.74m0-3.7v-3.67m0-3.7v-3.7m0-3.67v-1.85" stroke="#3a414a" fill="none"/><path d="M121.8 1917.5h-.94v-.5h.95z" stroke="#3a414a" stroke-width=".05" fill="#3a414a"/><path d="M121.34 1842.12l4.63 14.27-9.27-.02z" stroke="#3a414a" fill="#3a414a"/><path d="M199.4 1841V1901.12" stroke="#3a414a" fill="none"/><path d="M199.87 1841h-.95v-.5h.95z" stroke="#3a414a" stroke-width=".05" fill="#3a414a"/><path d="M199.4 1915.88l-4.64-14.27 9.27.02z" stroke="#3a414a" fill="#3a414a"/><path d="M-279.9 1841V1901.12" stroke="#3a414a" fill="none"/><path d="M-279.42 1841h-.95v-.5h.95z" stroke="#3a414a" stroke-width=".05" fill="#3a414a"/><path d="M-279.9 1915.88l-4.63-14.27 9.27.02z" stroke="#3a414a" fill="#3a414a"/><path d="M-199.13 1917v-1.88m0-3.76v-3.75m0-3.75v-3.76m0-3.76v-3.76m0-3.76v-3.76m0-3.75v-3.75m0-3.76v-3.77m0-3.75v-3.76m0-3.76v-1.88" stroke="#3a414a" fill="none"/><path d="M-198.66 1917.5h-.95v-.5h.94z" stroke="#3a414a" stroke-width=".05" fill="#3a414a"/><path d="M-199.13 1842.12l4.63 14.26h-9.27z" stroke="#3a414a" fill="#3a414a"/><path d="M1.34 1077v-2m0-4v-4m0-4.02v-4m0-4v-4.02m0-4v-4m0-4v-4.02m0-4v-4m0-4v-4.02m0-4v-4m0-4v-2.02l.07-.93.23-.92.18-.43m3.25-3.24l.44-.18.9-.22.94-.08h2m4 0h4m4 0h4m3.98 0h4m4 0h4m4 0h4m3.98 0h4m4 0h4m4 0h4m4 0h3.98m4 0h4m4 0h4m4 0h4m3.98 0h4m4 0h4m4 0h4m4 0h3.98m4 0h4m4 0h4m4 0h3.98m4 0h4m4 0h4m4 0h4m3.98 0h4m4 0h4m4 0h4m3.98 0h4m4 0h4m4 0h4m4 0h3.98m4 0h4m4 0h4m4 0h3.98m4 0h4m4 0h4m4 0h4m3.98 0h4m4 0h2" stroke="#3a414a" fill="none"/><path d="M1.8 1077.5H.88v-.5h.95z" stroke="#3a414a" stroke-width=".05" fill="#3a414a"/><path d="M317.88 998.9l-14.26 4.64v-9.27z" stroke="#3a414a" fill="#3a414a"/><path d="M319 918.33H-74.5a6 6 0 0 0-6 6v136.8" stroke="#3a414a" fill="none"/><path d="M319.5 918.8h-.5v-.94h.5z" stroke="#3a414a" stroke-width=".05" fill="#3a414a"/><path d="M-80.5 1075.88l-4.65-14.26h9.27z" stroke="#3a414a" fill="#3a414a"/><path d="M481 918.33h391.68a6 6 0 0 1 6 6v136.8" stroke="#3a414a" fill="none"/><path d="M481 918.8h-.5v-.94h.5z" stroke="#3a414a" stroke-width=".05" fill="#3a414a"/><path d="M878.68 1075.88l-4.63-14.26h9.27z" stroke="#3a414a" fill="#3a414a"/><path d="M840 1077v-2m0-4v-4m0-4.02v-4m0-4v-4.02m0-4v-4m0-4v-4.02m0-4v-4m0-4v-4.02m0-4v-4m0-4v-2.02l-.07-.93-.22-.92-.17-.43m-3.24-3.24l-.45-.18-.9-.22-.95-.08h-2m-4.02 0h-4m-4.03 0h-4m-4.02 0h-4.02m-4 0h-4m-4.03 0h-4m-4.02 0h-4.02m-4 0h-4.02m-4 0h-4.02m-4 0h-4.03m-4 0h-4.02m-4.02 0h-4m-4 0h-4.03m-4 0h-4.02m-4 0h-4.03m-4 0h-4.02m-4.02 0h-4m-4.03 0h-4m-4.02 0h-4m-4.03 0h-4m-4.02 0h-4.02m-4 0h-4.03m-4 0h-4.02m-4 0h-4.02m-4 0h-4.02m-4.02 0h-4m-4.02 0h-4.02m-4 0h-4.02m-4.02 0h-4m-4.02 0h-4.02m-4 0h-4.02m-4.02 0h-4m-4.02 0h-4.02m-4 0h-4.02m-4.02 0h-4m-4.02 0h-4.02m-4 0h-4.02m-4.02 0h-4m-4.02 0h-4.02m-4 0h-4.02m-4.02 0h-4m-4.02 0h-4.02m-4 0h-2.02" stroke="#3a414a" fill="none"/><path d="M840.48 1077.5h-.96v-.5h.96z" stroke="#3a414a" stroke-width=".05" fill="#3a414a"/><path d="M482.12 998.9l14.26-4.63v9.27z" stroke="#3a414a" fill="#3a414a"/><path d="M80.5 760H317" stroke="#3a414a" fill="none"/><path d="M80.5 760.48H80v-.96h.5zM317.5 760.48h-.5v-.96h.5z" stroke="#3a414a" stroke-width=".05" fill="#3a414a"/><path d="M1000 800.5v259" stroke="#3a414a" fill="none"/><path d="M1000.48 800.5h-.96v-.5h.96zM1000.48 1060h-.96v-.5h.96z" stroke="#3a414a" stroke-width=".05" fill="#3a414a"/><path d="M879.5 760h-379" stroke="#3a414a" fill="none"/><path d="M880 760.48h-.5v-.96h.5zM500.5 760.48h-.5v-.96h.5z" stroke="#3a414a" stroke-width=".05" fill="#3a414a"/><path d="M520.5 1160H757" stroke="#3a414a" fill="none"/><path d="M520.5 1160.47h-.5v-.94h.5zM757.5 1160.47h-.5v-.94h.5z" stroke="#3a414a" stroke-width=".05" fill="#3a414a"/><path d="M279.5 1160H43" stroke="#3a414a" fill="none"/><path d="M280 1160.47h-.5v-.94h.5zM43 1160.47h-.5v-.94h.5z" stroke="#3a414a" stroke-width=".05" fill="#3a414a"/><defs><path fill="#fff" d="M1128-1036c0 321-241 464-585 461H371V0H201v-1462h379c365 0 548 142 548 426zm-176 8c0-218-150-286-391-287H371v594h153c270-3 428-62 428-307" id="m"/><path fill="#fff" d="M340-893c80-153 237-262 467-211l-23 154c-45-10-85-15-120-15-184-3-322 182-322 377V0H176v-1096h137l19 203h8" id="n"/><path fill="#fff" d="M621-1116c316 0 501 239 501 567 0 339-180 575-508 569S119-212 115-549c-4-339 178-567 506-567zm-5 141c-239 0-329 168-329 426 0 255 93 430 331 430s332-174 332-430-95-426-334-426" id="o"/><path fill="#fff" d="M1368-1116c259 2 372 131 371 401V0h-166v-713c0-168-66-262-230-262-221 0-303 131-303 363V0H874v-713c-1-169-66-262-231-262-235 0-301 142-301 400V0H176v-1096h135l27 150h8c56-99 174-170 324-170 171 0 283 62 336 186h8c60-108 189-187 354-186" id="p"/><path fill="#fff" d="M342 0H176v-1096h166V0zm-82-1282c-61 0-98-43-98-111 0-69 36-110 98-110 59 0 98 43 98 110s-39 111-98 111" id="q"/><path fill="#fff" d="M502-977c-130 0-238 32-238 139 0 75 39 101 95 134 33 19 97 46 192 81 130 48 217 95 263 143s69 108 69 181C883-73 695 20 449 20 304 20 190-3 109-49v-154c91 47 216 86 344 86 149 0 270-36 270-168 0-43-21-76-55-109-56-55-367-158-434-208-74-55-128-109-128-225 0-327 490-342 754-217l-59 135c-110-45-210-68-299-68" id="r"/><path fill="#fff" d="M995-51C878-2 799 19 639 20c-329 2-524-221-524-559 0-326 172-577 481-577 278 0 451 210 446 493v105H287c4 242 121 392 358 393 118 0 235-25 350-74v148zM864-653c2-195-85-324-270-324-190 0-288 139-303 324h573" id="s"/><g id="a"><use transform="matrix(0.015190972222222219,0,0,0.015190972222222219,0,0)" xlink:href="#m"/><use transform="matrix(0.015190972222222219,0,0,0.015190972222222219,18.730468749999996,0)" xlink:href="#n"/><use transform="matrix(0.015190972222222219,0,0,0.015190972222222219,30.80729166666666,0)" xlink:href="#o"/><use transform="matrix(0.015190972222222219,0,0,0.015190972222222219,49.59852430555554,0)" xlink:href="#p"/><use transform="matrix(0.015190972222222219,0,0,0.015190972222222219,78.53732638888887,0)" xlink:href="#q"/><use transform="matrix(0.015190972222222219,0,0,0.015190972222222219,86.40624999999999,0)" xlink:href="#r"/><use transform="matrix(0.015190972222222219,0,0,0.015190972222222219,101.24782986111109,0)" xlink:href="#s"/></g><path fill="#fff" d="M184 0v-1462h310V0H184" id="t"/><path fill="#fff" d="M643-1462c464-5 754 260 754 717 0 491-297 749-799 745H184v-1462h459zm432 725c0-314-139-471-416-471H494v952h133c299 0 448-160 448-481" id="u"/><g id="b"><use transform="matrix(0.015190972222222219,0,0,0.015190972222222219,0,0)" xlink:href="#t"/><use transform="matrix(0.015190972222222219,0,0,0.015190972222222219,10.299479166666664,0)" xlink:href="#u"/></g><path fill="#3a414a" d="M371 0H201v-1462h815v151H371v535h606v151H371V0" id="v"/><path fill="#3a414a" d="M563 20c-271 0-399-123-399-399v-717h168v711c1 177 76 266 252 266 250 0 331-135 331-401v-576h166V0H944l-24-147h-9C848-44 724 20 563 20" id="w"/><path fill="#3a414a" d="M694-1116c270 0 399 125 398 401V0H926v-709c-1-177-76-266-252-266-250 0-332 133-332 400V0H176v-1096h135l27 150h8c62-101 190-170 348-170" id="x"/><path fill="#3a414a" d="M287-543c-1 247 91 418 323 418 91 0 185-20 281-59v147C818 1 725 20 614 20c-329 0-499-221-499-561 0-349 172-575 510-575 96 0 221 26 282 57l-51 141c-61-25-157-50-235-51-223 0-334 142-334 426" id="y"/><path fill="#3a414a" d="M354-322c-2 123 60 204 176 205 51 1 114-10 150-20v127C647 7 557 20 506 20 294 20 188-92 188-315v-652H31v-80l157-69 70-234h96v254h318v129H354v645" id="z"/><path fill="#3a414a" d="M342 0H176v-1096h166V0zm-82-1282c-61 0-98-43-98-111 0-69 36-110 98-110 59 0 98 43 98 110s-39 111-98 111" id="A"/><path fill="#3a414a" d="M621-1116c316 0 501 239 501 567 0 339-180 575-508 569S119-212 115-549c-4-339 178-567 506-567zm-5 141c-239 0-329 168-329 426 0 255 93 430 331 430s332-174 332-430-95-426-334-426" id="B"/><g id="c"><use transform="matrix(0.015190972222222219,0,0,0.015190972222222219,0,0)" xlink:href="#v"/><use transform="matrix(0.015190972222222219,0,0,0.015190972222222219,16.056857638888886,0)" xlink:href="#w"/><use transform="matrix(0.015190972222222219,0,0,0.015190972222222219,35.151909722222214,0)" xlink:href="#x"/><use transform="matrix(0.015190972222222219,0,0,0.015190972222222219,54.24696180555554,0)" xlink:href="#y"/><use transform="matrix(0.015190972222222219,0,0,0.015190972222222219,69.0581597222222,0)" xlink:href="#z"/><use transform="matrix(0.015190972222222219,0,0,0.015190972222222219,80.04123263888886,0)" xlink:href="#A"/><use transform="matrix(0.015190972222222219,0,0,0.015190972222222219,87.91015624999997,0)" xlink:href="#B"/><use transform="matrix(0.015190972222222219,0,0,0.015190972222222219,106.70138888888886,0)" xlink:href="#x"/></g><path fill="#3a414a" d="M1016 0H201v-1462h815v151H371v471h606v150H371v538h645V0" id="C"/><path fill="#3a414a" d="M440-561L59-1096h189l289 420 288-420h187L631-561 1032 0H844L537-444 227 0H39" id="D"/><path fill="#3a414a" d="M995-51C878-2 799 19 639 20c-329 2-524-221-524-559 0-326 172-577 481-577 278 0 451 210 446 493v105H287c4 242 121 392 358 393 118 0 235-25 350-74v148zM864-653c2-195-85-324-270-324-190 0-288 139-303 324h573" id="E"/><g id="d"><use transform="matrix(0.015190972222222219,0,0,0.015190972222222219,0,0)" xlink:href="#C"/><use transform="matrix(0.015190972222222219,0,0,0.015190972222222219,17.302517361111107,0)" xlink:href="#D"/><use transform="matrix(0.015190972222222219,0,0,0.015190972222222219,32.979600694444436,0)" xlink:href="#E"/><use transform="matrix(0.015190972222222219,0,0,0.015190972222222219,50.434027777777764,0)" xlink:href="#y"/><use transform="matrix(0.015190972222222219,0,0,0.015190972222222219,65.24522569444443,0)" xlink:href="#w"/><use transform="matrix(0.015190972222222219,0,0,0.015190972222222219,84.34027777777776,0)" xlink:href="#z"/><use transform="matrix(0.015190972222222219,0,0,0.015190972222222219,95.32335069444443,0)" xlink:href="#A"/><use transform="matrix(0.015190972222222219,0,0,0.015190972222222219,103.19227430555554,0)" xlink:href="#B"/><use transform="matrix(0.015190972222222219,0,0,0.015190972222222219,121.98350694444443,0)" xlink:href="#x"/></g><path fill="#3a414a" d="M125-733c6-459 248-750 704-750 153 0 287 28 402 84l-72 146c-111-52-221-78-332-78-334-1-520 251-520 600 0 361 171 600 518 600 102 0 218-18 349-55v149C1073 1 948 20 799 20c-445 1-680-294-674-753" id="F"/><path fill="#3a414a" d="M588-1114c260 0 384 106 385 366V0H850l-33-156h-8C708-34 639 17 442 20 231 23 94-94 94-303c0-221 177-337 531-348l186-6c11-203-40-320-233-320-91 0-195 28-310 84l-51-127c97-53 229-94 371-94zM268-301c-1 123 81 184 207 184 203 0 334-120 332-323v-99c-257 14-539-7-539 238" id="G"/><path fill="#3a414a" d="M342 0H176v-1556h166V0" id="H"/><path fill="#3a414a" d="M340-893c80-153 237-262 467-211l-23 154c-45-10-85-15-120-15-184-3-322 182-322 377V0H176v-1096h137l19 203h8" id="I"/><g id="e"><use transform="matrix(0.015190972222222219,0,0,0.015190972222222219,0,0)" xlink:href="#F"/><use transform="matrix(0.015190972222222219,0,0,0.015190972222222219,19.626736111111107,0)" xlink:href="#G"/><use transform="matrix(0.015190972222222219,0,0,0.015190972222222219,36.929253472222214,0)" xlink:href="#H"/><use transform="matrix(0.015190972222222219,0,0,0.015190972222222219,44.79817708333332,0)" xlink:href="#H"/><use transform="matrix(0.015190972222222219,0,0,0.015190972222222219,52.66710069444443,0)" xlink:href="#E"/><use transform="matrix(0.015190972222222219,0,0,0.015190972222222219,70.12152777777776,0)" xlink:href="#I"/></g><path fill="#3a414a" d="M1128-1036c0 321-241 464-585 461H371V0H201v-1462h379c365 0 548 142 548 426zm-176 8c0-218-150-286-391-287H371v594h153c270-3 428-62 428-307" id="J"/><path fill="#3a414a" d="M502-977c-130 0-238 32-238 139 0 75 39 101 95 134 33 19 97 46 192 81 130 48 217 95 263 143s69 108 69 181C883-73 695 20 449 20 304 20 190-3 109-49v-154c91 47 216 86 344 86 149 0 270-36 270-168 0-43-21-76-55-109-56-55-367-158-434-208-74-55-128-109-128-225 0-327 490-342 754-217l-59 135c-110-45-210-68-299-68" id="K"/><g id="f"><use transform="matrix(0.01627604166666666,0,0,0.01627604166666666,0,0)" xlink:href="#J"/><use transform="matrix(0.01627604166666666,0,0,0.01627604166666666,20.068359374999993,0)" xlink:href="#I"/><use transform="matrix(0.01627604166666666,0,0,0.01627604166666666,33.007812499999986,0)" xlink:href="#B"/><use transform="matrix(0.01627604166666666,0,0,0.01627604166666666,53.14127604166664,0)" xlink:href="#y"/><use transform="matrix(0.01627604166666666,0,0,0.01627604166666666,69.01041666666664,0)" xlink:href="#E"/><use transform="matrix(0.01627604166666666,0,0,0.01627604166666666,87.71158854166663,0)" xlink:href="#K"/><use transform="matrix(0.01627604166666666,0,0,0.01627604166666666,103.61328124999996,0)" xlink:href="#K"/><use transform="matrix(0.01627604166666666,0,0,0.01627604166666666,119.51497395833329,0)" xlink:href="#E"/><use transform="matrix(0.01627604166666666,0,0,0.01627604166666666,138.2161458333333,0)" xlink:href="#K"/></g><g id="g"><use transform="matrix(0.01627604166666666,0,0,0.01627604166666666,0,0)" xlink:href="#F"/><use transform="matrix(0.01627604166666666,0,0,0.01627604166666666,21.028645833333325,0)" xlink:href="#G"/><use transform="matrix(0.01627604166666666,0,0,0.01627604166666666,39.56705729166665,0)" xlink:href="#H"/><use transform="matrix(0.01627604166666666,0,0,0.01627604166666666,47.99804687499998,0)" xlink:href="#H"/></g><path fill="#3a414a" d="M125-741c0-247 161-377 414-375 57 0 109 7 155 20h379v105l-203 24c37 48 72 129 72 219 0 255-227 390-504 345-71 37-106 84-106 141 0 78 66 88 164 88h194c219-1 369 87 369 293 0 121-49 213-146 277s-239 96-426 96c-250 0-448-83-448-306C39 36 147-58 283-86c-52-23-102-79-99-152 4-104 57-143 133-192-107-42-192-164-192-311zM438-25c-143-1-242 70-239 209s131 181 290 181c139 0 242-21 309-63s101-98 101-169c0-147-88-158-262-158H438zm94-970c-158 0-243 88-243 250 0 153 93 233 246 233 162 0 243-79 243-236 0-165-82-247-246-247" id="L"/><path fill="#3a414a" d="M1141-549c0 329-147 569-455 569-159 0-273-61-344-161h-12c23 199 7 418 12 633H176v-1588h135l23 150h8c77-108 175-170 344-170 311 0 455 237 455 567zm-172-2c0-242-88-424-307-424-256 0-323 154-320 426 3 280 68 430 324 430 213 0 303-196 303-432" id="M"/><path fill="#3a414a" d="M690-1114c271 2 402 123 402 399V0H926v-709c-1-177-76-266-252-266-251 0-332 135-332 402V0H176v-1556h166c-4 200 8 426-8 612h10c61-100 187-171 346-170" id="N"/><g id="h"><use transform="matrix(0.01627604166666666,0,0,0.01627604166666666,0,0)" xlink:href="#L"/><use transform="matrix(0.01627604166666666,0,0,0.01627604166666666,18.261718749999993,0)" xlink:href="#I"/><use transform="matrix(0.01627604166666666,0,0,0.01627604166666666,31.20117187499999,0)" xlink:href="#G"/><use transform="matrix(0.01627604166666666,0,0,0.01627604166666666,49.739583333333314,0)" xlink:href="#M"/><use transform="matrix(0.01627604166666666,0,0,0.01627604166666666,70.16601562499997,0)" xlink:href="#N"/></g><g id="i"><use transform="matrix(0.01627604166666666,0,0,0.01627604166666666,0,0)" xlink:href="#I"/><use transform="matrix(0.01627604166666666,0,0,0.01627604166666666,12.939453124999995,0)" xlink:href="#B"/><use transform="matrix(0.01627604166666666,0,0,0.01627604166666666,33.07291666666666,0)" xlink:href="#B"/><use transform="matrix(0.01627604166666666,0,0,0.01627604166666666,53.206380208333314,0)" xlink:href="#z"/></g><path fill="#3a414a" d="M1368-1116c259 2 372 131 371 401V0h-166v-713c0-168-66-262-230-262-221 0-303 131-303 363V0H874v-713c-1-169-66-262-231-262-235 0-301 142-301 400V0H176v-1096h135l27 150h8c56-99 174-170 324-170 171 0 283 62 336 186h8c60-108 189-187 354-186" id="O"/><g id="j"><use transform="matrix(0.01627604166666666,0,0,0.01627604166666666,0,0)" xlink:href="#M"/><use transform="matrix(0.01627604166666666,0,0,0.01627604166666666,20.42643229166666,0)" xlink:href="#I"/><use transform="matrix(0.01627604166666666,0,0,0.01627604166666666,33.36588541666666,0)" xlink:href="#B"/><use transform="matrix(0.01627604166666666,0,0,0.01627604166666666,53.499348958333314,0)" xlink:href="#O"/><use transform="matrix(0.01627604166666666,0,0,0.01627604166666666,84.5052083333333,0)" xlink:href="#A"/><use transform="matrix(0.01627604166666666,0,0,0.01627604166666666,92.93619791666663,0)" xlink:href="#K"/><use transform="matrix(0.01627604166666666,0,0,0.01627604166666666,108.83789062499996,0)" xlink:href="#E"/></g><g id="k"><use transform="matrix(0.01627604166666666,0,0,0.01627604166666666,0,0)" xlink:href="#J"/><use transform="matrix(0.01627604166666666,0,0,0.01627604166666666,20.068359374999993,0)" xlink:href="#I"/><use transform="matrix(0.01627604166666666,0,0,0.01627604166666666,33.007812499999986,0)" xlink:href="#B"/><use transform="matrix(0.01627604166666666,0,0,0.01627604166666666,53.14127604166664,0)" xlink:href="#y"/><use transform="matrix(0.01627604166666666,0,0,0.01627604166666666,69.01041666666664,0)" xlink:href="#E"/><use transform="matrix(0.01627604166666666,0,0,0.01627604166666666,87.71158854166663,0)" xlink:href="#K"/><use transform="matrix(0.01627604166666666,0,0,0.01627604166666666,103.61328124999996,0)" xlink:href="#K"/></g><g id="l"><use transform="matrix(0.01627604166666666,0,0,0.01627604166666666,0,0)" xlink:href="#I"/><use transform="matrix(0.01627604166666666,0,0,0.01627604166666666,12.939453124999995,0)" xlink:href="#B"/><use transform="matrix(0.01627604166666666,0,0,0.01627604166666666,33.07291666666666,0)" xlink:href="#B"/><use transform="matrix(0.01627604166666666,0,0,0.01627604166666666,53.206380208333314,0)" xlink:href="#z"/></g></defs></g></svg>