<svg xmlns="http://www.w3.org/2000/svg" xmlns:xlink="http://www.w3.org/1999/xlink" xmlns:lucid="lucid" width="2221" height="1301"><g transform="translate(-359.5 140.5)" lucid:page-tab-id="0_0"><path d="M0-500h3000v2000H0z" fill="#fff"/><path d="M2120 940h440v200h-440zM2120 340h440v480h-440zM1100 20h920v520h-920zM380 460h680v200H380z" stroke="#000" stroke-opacity="0" fill="#dfe3e8"/><path d="M640 486a6 6 0 0 1 6-6h148a6 6 0 0 1 6 6v148a6 6 0 0 1-6 6H646a6 6 0 0 1-6-6z" stroke="#ffe342" stroke-width="5" fill="#3a414a"/><use xlink:href="#a" transform="matrix(1,0,0,1,645,485) translate(15.648871527777793 66.06553819444443)"/><use xlink:href="#b" transform="matrix(1,0,0,1,645,485) translate(58.33550347222223 108.4331597222222)"/><path d="M880 486a6 6 0 0 1 6-6h148a6 6 0 0 1 6 6v148a6 6 0 0 1-6 6H886a6 6 0 0 1-6-6z" stroke="#3a414a" fill="#fff"/><use xlink:href="#c" transform="matrix(1,0,0,1,885,485) translate(12.101779513888907 66.06553819444443)"/><use xlink:href="#d" transform="matrix(1,0,0,1,885,485) translate(4.460720486111114 108.4331597222222)"/><path d="M803 520.03h60.12" stroke="#3a414a" fill="none"/><path d="M803 520.5h-.5v-.94h.5z" stroke="#3a414a" stroke-width=".05" fill="#3a414a"/><path d="M877.88 520.03l-14.26 4.64v-9.27z" stroke="#3a414a" fill="#3a414a"/><path d="M879 600.22h-1.88m-3.76 0h-3.75m-3.75 0h-3.76m-3.76 0h-3.76m-3.76 0h-3.76m-3.75 0h-3.75m-3.76 0h-3.77m-3.75 0h-3.76m-3.76 0h-1.88" stroke="#3a414a" fill="none"/><path d="M879.5 600.7h-.5v-.96h.5z" stroke="#3a414a" stroke-width=".05" fill="#3a414a"/><path d="M804.12 600.22l14.26-4.64v9.27z" stroke="#3a414a" fill="#3a414a"/><path d="M400 486a6 6 0 0 1 6-6h148a6 6 0 0 1 6 6v148a6 6 0 0 1-6 6H406a6 6 0 0 1-6-6z" stroke="#fff" fill="#cfe4ff"/><use xlink:href="#e" transform="matrix(1,0,0,1,405,485) translate(33.589409722222236 84.81553819444443)"/><path d="M561 520.24h60.12" stroke="#3a414a" fill="none"/><path d="M561 520.72h-.5v-.95h.5z" stroke="#3a414a" stroke-width=".05" fill="#3a414a"/><path d="M635.88 520.24l-14.26 4.64v-9.27z" stroke="#3a414a" fill="#3a414a"/><path d="M576.88 600.7h1.88m3.76 0h3.76m3.75 0h3.76m3.75 0h3.76m3.76 0h3.76m3.76 0h3.75m3.76 0h3.75m3.76 0h3.76m3.76 0H637" stroke="#3a414a" fill="none"/><path d="M562.12 600.7l14.26-4.64v9.27z" stroke="#3a414a" fill="#3a414a"/><path d="M637.5 601.17h-.5v-.95h.5z" stroke="#3a414a" stroke-width=".05" fill="#3a414a"/><path d="M1600 366a6 6 0 0 1 6-6h148a6 6 0 0 1 6 6v148a6 6 0 0 1-6 6h-148a6 6 0 0 1-6-6z" stroke="#3a414a" fill="#3a414a"/><use xlink:href="#a" transform="matrix(1,0,0,1,1605,365) translate(15.648871527777793 66.06553819444443)"/><use xlink:href="#b" transform="matrix(1,0,0,1,1605,365) translate(58.33550347222223 108.4331597222222)"/><path d="M1840 366a6 6 0 0 1 6-6h148a6 6 0 0 1 6 6v148a6 6 0 0 1-6 6h-148a6 6 0 0 1-6-6z" stroke="#3a414a" fill="#fff"/><use xlink:href="#c" transform="matrix(1,0,0,1,1845,365) translate(12.101779513888907 66.06553819444443)"/><use xlink:href="#d" transform="matrix(1,0,0,1,1845,365) translate(4.460720486111114 108.4331597222222)"/><path d="M1761 401H1823.12" stroke="#3a414a" fill="none"/><path d="M1761 401.48h-.5v-.96h.5z" stroke="#3a414a" stroke-width=".05" fill="#3a414a"/><path d="M1837.88 401l-14.27 4.63.02-9.26z" stroke="#3a414a" fill="#3a414a"/><path d="M1839 479.24h-1.95m-3.9 0h-3.9m-3.9 0h-3.9m-3.9 0h-3.9m-3.9 0h-3.9m-3.9 0h-3.88m-3.85 0h-3.85m-3.85 0h-3.86m-3.85 0h-1.9" stroke="#3a414a" fill="none"/><path d="M1839.5 479.72h-.5v-.95h.5z" stroke="#3a414a" stroke-width=".05" fill="#3a414a"/><path d="M1762.12 479.24l14.27-4.63-.02 9.28z" stroke="#3a414a" fill="#3a414a"/><path d="M1120 206a6 6 0 0 1 6-6h148a6 6 0 0 1 6 6v148a6 6 0 0 1-6 6h-148a6 6 0 0 1-6-6z" stroke="#1071e5" stroke-width="5" fill="#3a414a"/><use xlink:href="#a" transform="matrix(1,0,0,1,1125,205) translate(15.648871527777793 66.06553819444443)"/><use xlink:href="#b" transform="matrix(1,0,0,1,1125,205) translate(58.33550347222223 108.4331597222222)"/><path d="M1360 206a6 6 0 0 1 6-6h148a6 6 0 0 1 6 6v148a6 6 0 0 1-6 6h-148a6 6 0 0 1-6-6z" stroke="#3a414a" fill="#fff"/><use xlink:href="#c" transform="matrix(1,0,0,1,1365,205) translate(12.101779513888907 66.06553819444443)"/><use xlink:href="#d" transform="matrix(1,0,0,1,1365,205) translate(4.460720486111114 108.4331597222222)"/><path d="M1283 240.03H1343.12" stroke="#3a414a" fill="none"/><path d="M1283 240.5h-.5v-.94h.5z" stroke="#3a414a" stroke-width=".05" fill="#3a414a"/><path d="M1357.88 240.03l-14.27 4.64.02-9.27z" stroke="#3a414a" fill="#3a414a"/><path d="M1359 320.22h-1.88m-3.76 0h-3.75m-3.75 0h-3.76m-3.76 0h-3.76m-3.76 0h-3.76m-3.75 0h-3.75m-3.76 0h-3.77m-3.75 0h-3.76m-3.76 0h-1.88" stroke="#3a414a" fill="none"/><path d="M1359.5 320.7h-.5v-.96h.5z" stroke="#3a414a" stroke-width=".05" fill="#3a414a"/><path d="M1284.12 320.22l14.26-4.64v9.27zM1600 46a6 6 0 0 1 6-6h148a6 6 0 0 1 6 6v148a6 6 0 0 1-6 6h-148a6 6 0 0 1-6-6z" stroke="#3a414a" fill="#3a414a"/><use xlink:href="#a" transform="matrix(1,0,0,1,1605,45) translate(15.648871527777793 66.06553819444443)"/><use xlink:href="#b" transform="matrix(1,0,0,1,1605,45) translate(58.33550347222223 108.4331597222222)"/><path d="M1840 46a6 6 0 0 1 6-6h148a6 6 0 0 1 6 6v148a6 6 0 0 1-6 6h-148a6 6 0 0 1-6-6z" stroke="#3a414a" fill="#fff"/><use xlink:href="#c" transform="matrix(1,0,0,1,1845,45) translate(12.101779513888907 66.06553819444443)"/><use xlink:href="#d" transform="matrix(1,0,0,1,1845,45) translate(4.460720486111114 108.4331597222222)"/><path d="M1761 81H1823.12" stroke="#3a414a" fill="none"/><path d="M1761 81.47h-.5v-.94h.5z" stroke="#3a414a" stroke-width=".05" fill="#3a414a"/><path d="M1837.88 81l-14.27 4.64.02-9.28z" stroke="#3a414a" fill="#3a414a"/><path d="M1839 159.24h-1.95m-3.9 0h-3.9m-3.9 0h-3.9m-3.9 0h-3.9m-3.9 0h-3.9m-3.9 0h-3.88m-3.85 0h-3.85m-3.85 0h-3.86m-3.85 0h-1.9" stroke="#3a414a" fill="none"/><path d="M1839.5 159.72h-.5v-.95h.5z" stroke="#3a414a" stroke-width=".05" fill="#3a414a"/><path d="M1762.12 159.24l14.27-4.63-.02 9.28z" stroke="#3a414a" fill="#3a414a"/><path d="M2120 20h440v200h-440z" stroke="#000" stroke-opacity="0" fill="#dfe3e8"/><path d="M2140 46a6 6 0 0 1 6-6h148a6 6 0 0 1 6 6v148a6 6 0 0 1-6 6h-148a6 6 0 0 1-6-6z" stroke="#1071e5" stroke-width="5" fill="#3a414a"/><use xlink:href="#a" transform="matrix(1,0,0,1,2145,45) translate(15.648871527777793 66.06553819444443)"/><use xlink:href="#b" transform="matrix(1,0,0,1,2145,45) translate(58.33550347222223 108.4331597222222)"/><path d="M2380 46a6 6 0 0 1 6-6h148a6 6 0 0 1 6 6v148a6 6 0 0 1-6 6h-148a6 6 0 0 1-6-6z" stroke="#3a414a" fill="#fff"/><use xlink:href="#c" transform="matrix(1,0,0,1,2385,45) translate(12.101779513888907 66.06553819444443)"/><use xlink:href="#d" transform="matrix(1,0,0,1,2385,45) translate(4.460720486111114 108.4331597222222)"/><path d="M2303 80.03h60.1" stroke="#3a414a" fill="none"/><path d="M2303 80.5h-.5v-.94h.5z" stroke="#3a414a" stroke-width=".05" fill="#3a414a"/><path d="M2377.88 80.03l-14.27 4.64V75.4z" stroke="#3a414a" fill="#3a414a"/><path d="M2379 160.22h-1.88m-3.76 0h-3.75m-3.75 0h-3.76m-3.76 0h-3.76m-3.76 0h-3.76m-3.75 0h-3.75m-3.76 0h-3.77m-3.75 0h-3.76m-3.76 0h-1.88" stroke="#3a414a" fill="none"/><path d="M2379.5 160.7h-.5v-.96h.5z" stroke="#3a414a" stroke-width=".05" fill="#3a414a"/><path d="M2304.12 160.22l14.26-4.64v9.27z" stroke="#3a414a" fill="#3a414a"/><path d="M2140 366a6 6 0 0 1 6-6h148a6 6 0 0 1 6 6v148a6 6 0 0 1-6 6h-148a6 6 0 0 1-6-6z" stroke="#1071e5" stroke-width="5" fill="#3a414a"/><use xlink:href="#a" transform="matrix(1,0,0,1,2145,365) translate(15.648871527777793 66.06553819444443)"/><use xlink:href="#b" transform="matrix(1,0,0,1,2145,365) translate(58.33550347222223 108.4331597222222)"/><path d="M2380 366a6 6 0 0 1 6-6h148a6 6 0 0 1 6 6v148a6 6 0 0 1-6 6h-148a6 6 0 0 1-6-6z" stroke="#3a414a" fill="#fff"/><use xlink:href="#c" transform="matrix(1,0,0,1,2385,365) translate(12.101779513888907 66.06553819444443)"/><use xlink:href="#d" transform="matrix(1,0,0,1,2385,365) translate(4.460720486111114 108.4331597222222)"/><path d="M2303 400.03h60.1" stroke="#3a414a" fill="none"/><path d="M2303 400.5h-.5v-.94h.5z" stroke="#3a414a" stroke-width=".05" fill="#3a414a"/><path d="M2377.88 400.03l-14.27 4.64v-9.27z" stroke="#3a414a" fill="#3a414a"/><path d="M2379 480.22h-1.88m-3.76 0h-3.75m-3.75 0h-3.76m-3.76 0h-3.76m-3.76 0h-3.76m-3.75 0h-3.75m-3.76 0h-3.77m-3.75 0h-3.76m-3.76 0h-1.88" stroke="#3a414a" fill="none"/><path d="M2379.5 480.7h-.5v-.96h.5z" stroke="#3a414a" stroke-width=".05" fill="#3a414a"/><path d="M2304.12 480.22l14.26-4.64v9.27z" stroke="#3a414a" fill="#3a414a"/><path d="M1100 620h920v520h-920z" stroke="#000" stroke-opacity="0" fill="#dfe3e8"/><path d="M1600 966a6 6 0 0 1 6-6h148a6 6 0 0 1 6 6v148a6 6 0 0 1-6 6h-148a6 6 0 0 1-6-6z" stroke="#3a414a" fill="#3a414a"/><use xlink:href="#a" transform="matrix(1,0,0,1,1605.0000000000002,965) translate(15.648871527777793 66.06553819444443)"/><use xlink:href="#b" transform="matrix(1,0,0,1,1605.0000000000002,965) translate(58.33550347222223 108.4331597222222)"/><path d="M1840 966a6 6 0 0 1 6-6h148a6 6 0 0 1 6 6v148a6 6 0 0 1-6 6h-148a6 6 0 0 1-6-6z" stroke="#3a414a" fill="#fff"/><use xlink:href="#c" transform="matrix(1,0,0,1,1845.0000000000005,965) translate(12.101779513888907 66.06553819444443)"/><use xlink:href="#d" transform="matrix(1,0,0,1,1845.0000000000005,965) translate(4.460720486111114 108.4331597222222)"/><path d="M1761 1001H1823.12" stroke="#3a414a" fill="none"/><path d="M1761 1001.48h-.5v-.96h.5z" stroke="#3a414a" stroke-width=".05" fill="#3a414a"/><path d="M1837.88 1001l-14.27 4.63.02-9.26z" stroke="#3a414a" fill="#3a414a"/><path d="M1839 1079.24h-1.94m-3.88 0h-3.9m-3.87 0h-3.87m-3.88 0h-3.88m-3.9 0H1806m-3.88 0h-3.88m-3.9 0h-3.87m-3.88 0h-3.9m-3.88 0h-1.94" stroke="#3a414a" fill="none"/><path d="M1839.5 1079.72h-.5v-.95h.5z" stroke="#3a414a" stroke-width=".05" fill="#3a414a"/><path d="M1762.12 1079.24l14.26-4.63v9.28z" stroke="#3a414a" fill="#3a414a"/><path d="M1120 806a6 6 0 0 1 6-6h148a6 6 0 0 1 6 6v148a6 6 0 0 1-6 6h-148a6 6 0 0 1-6-6z" stroke="#1071e5" stroke-width="5" fill="#3a414a"/><use xlink:href="#a" transform="matrix(1,0,0,1,1125.0000000000002,805) translate(15.648871527777793 66.06553819444443)"/><use xlink:href="#b" transform="matrix(1,0,0,1,1125.0000000000002,805) translate(58.33550347222223 108.4331597222222)"/><path d="M1360 806a6 6 0 0 1 6-6h148a6 6 0 0 1 6 6v148a6 6 0 0 1-6 6h-148a6 6 0 0 1-6-6z" stroke="#3a414a" fill="#fff"/><use xlink:href="#c" transform="matrix(1,0,0,1,1365.0000000000002,805) translate(12.101779513888907 66.06553819444443)"/><use xlink:href="#d" transform="matrix(1,0,0,1,1365.0000000000002,805) translate(4.460720486111114 108.4331597222222)"/><path d="M1283 840.03h37.52a.48.48 0 0 1 .48.5.48.48 0 0 0 .48.47h21.64" stroke="#3a414a" fill="none"/><path d="M1283 840.5h-.5v-.94h.5z" stroke="#3a414a" stroke-width=".05" fill="#3a414a"/><path d="M1357.88 841l-14.26 4.63v-9.26z" stroke="#3a414a" fill="#3a414a"/><path d="M1359 919.24h-1.88m-3.75 0h-3.75m-3.75 0h-3.75m-3.75 0h-3.75m-3.75 0h-3.76m-3.74 0H1321.4l-.06.03-.07.02-.07.04-.06.04-.05.06-.05.07-.03.08v.07l-.02.08v.08l-.02.08-.03.07-.04.07-.04.05-.06.05-.07.04-.07.03h-.07l-.1.02h-1.8m-3.6 0h-3.6m-3.6 0h-3.6m-3.6 0h-1.82" stroke="#3a414a" fill="none"/><path d="M1359.5 919.72h-.5v-.95h.5z" stroke="#3a414a" stroke-width=".05" fill="#3a414a"/><path d="M1284.12 920.22l14.26-4.64v9.27zM1600 646a6 6 0 0 1 6-6h148a6 6 0 0 1 6 6v148a6 6 0 0 1-6 6h-148a6 6 0 0 1-6-6z" stroke="#3a414a" fill="#3a414a"/><use xlink:href="#a" transform="matrix(1,0,0,1,1605.0000000000002,645) translate(15.648871527777793 66.06553819444443)"/><use xlink:href="#b" transform="matrix(1,0,0,1,1605.0000000000002,645) translate(58.33550347222223 108.4331597222222)"/><path d="M1840 646a6 6 0 0 1 6-6h148a6 6 0 0 1 6 6v148a6 6 0 0 1-6 6h-148a6 6 0 0 1-6-6z" stroke="#3a414a" fill="#fff"/><use xlink:href="#c" transform="matrix(1,0,0,1,1845.0000000000005,645) translate(12.101779513888907 66.06553819444443)"/><use xlink:href="#d" transform="matrix(1,0,0,1,1845.0000000000005,645) translate(4.460720486111114 108.4331597222222)"/><path d="M1761 681H1823.12" stroke="#3a414a" fill="none"/><path d="M1761 681.48h-.5v-.96h.5z" stroke="#3a414a" stroke-width=".05" fill="#3a414a"/><path d="M1837.88 681l-14.27 4.63.02-9.26z" stroke="#3a414a" fill="#3a414a"/><path d="M1839 759.24h-1.94m-3.88 0h-3.9m-3.87 0h-3.87m-3.88 0h-3.88m-3.9 0H1806m-3.88 0h-3.88m-3.9 0h-3.87m-3.88 0h-3.9m-3.88 0h-1.94" stroke="#3a414a" fill="none"/><path d="M1839.5 759.72h-.5v-.95h.5z" stroke="#3a414a" stroke-width=".05" fill="#3a414a"/><path d="M1762.12 759.24l14.26-4.63v9.28z" stroke="#3a414a" fill="#3a414a"/><path d="M2140 646a6 6 0 0 1 6-6h148a6 6 0 0 1 6 6v148a6 6 0 0 1-6 6h-148a6 6 0 0 1-6-6z" stroke="#1071e5" stroke-width="5" fill="#3a414a"/><use xlink:href="#a" transform="matrix(1,0,0,1,2145,645) translate(15.648871527777793 66.06553819444443)"/><use xlink:href="#b" transform="matrix(1,0,0,1,2145,645) translate(58.33550347222223 108.4331597222222)"/><path d="M2380 646a6 6 0 0 1 6-6h148a6 6 0 0 1 6 6v148a6 6 0 0 1-6 6h-148a6 6 0 0 1-6-6z" stroke="#3a414a" fill="#fff"/><use xlink:href="#c" transform="matrix(1,0,0,1,2385,645) translate(12.101779513888907 66.06553819444443)"/><use xlink:href="#d" transform="matrix(1,0,0,1,2385,645) translate(4.460720486111114 108.4331597222222)"/><path d="M2303 680.03h60.12" stroke="#3a414a" fill="none"/><path d="M2303 680.5h-.5v-.94h.5z" stroke="#3a414a" stroke-width=".05" fill="#3a414a"/><path d="M2377.88 680.03l-14.26 4.64v-9.27z" stroke="#3a414a" fill="#3a414a"/><path d="M2379 760.22h-1.88m-3.76 0h-3.75m-3.75 0h-3.76m-3.76 0h-3.76m-3.76 0h-3.76m-3.75 0h-3.75m-3.76 0h-3.77m-3.75 0h-3.76m-3.76 0h-1.88" stroke="#3a414a" fill="none"/><path d="M2379.5 760.7h-.5v-.96h.5z" stroke="#3a414a" stroke-width=".05" fill="#3a414a"/><path d="M2304.12 760.22l14.26-4.64v9.27z" stroke="#3a414a" fill="#3a414a"/><path d="M2140 966a6 6 0 0 1 6-6h148a6 6 0 0 1 6 6v148a6 6 0 0 1-6 6h-148a6 6 0 0 1-6-6z" stroke="#1071e5" stroke-width="5" fill="#3a414a"/><use xlink:href="#a" transform="matrix(1,0,0,1,2145,965) translate(15.648871527777793 66.06553819444443)"/><use xlink:href="#b" transform="matrix(1,0,0,1,2145,965) translate(58.33550347222223 108.4331597222222)"/><path d="M2380 966a6 6 0 0 1 6-6h148a6 6 0 0 1 6 6v148a6 6 0 0 1-6 6h-148a6 6 0 0 1-6-6z" stroke="#3a414a" fill="#fff"/><use xlink:href="#c" transform="matrix(1,0,0,1,2385,965) translate(12.101779513888907 66.06553819444443)"/><use xlink:href="#d" transform="matrix(1,0,0,1,2385,965) translate(4.460720486111114 108.4331597222222)"/><path d="M2303 1001h60.12" stroke="#3a414a" fill="none"/><path d="M2303 1001.48h-.5v-.96h.5z" stroke="#3a414a" stroke-width=".05" fill="#3a414a"/><path d="M2377.88 1001l-14.26 4.63v-9.26z" stroke="#3a414a" fill="#3a414a"/><path d="M2379 1079.24h-1.88m-3.76 0h-3.75m-3.75 0h-3.76m-3.76 0h-3.76m-3.76 0h-3.76m-3.75 0h-3.75m-3.76 0h-3.77m-3.75 0h-3.76m-3.76 0h-1.88" stroke="#3a414a" fill="none"/><path d="M2379.5 1079.72h-.5v-.95h.5z" stroke="#3a414a" stroke-width=".05" fill="#3a414a"/><path d="M2304.12 1079.24l14.26-4.63v9.28z" stroke="#3a414a" fill="#3a414a"/><path d="M1117 921.7h-2m-3.97 0h-4m-3.97 0h-4m-3.97 0h-4m-3.98 0h-3.98m-4 0h-3.97m-3.98 0h-4m-3.98 0h-3.98m-4 0h-3.97m-3.98 0h-4m-3.98 0h-3.98m-4 0h-3.97m-4 0h-3.97m-3.98 0h-4m-3.97 0h-3.98m-4 0h-3.97m-4 0h-3.97m-3.98 0h-4m-3.97 0h-3.98m-4 0h-3.97m-4 0h-3.97m-3.98 0h-4m-3.97 0h-3.97m-4 0h-3.97m-3.98 0h-2l-.93-.07-.92-.22-.43-.16m-3.24-3.24l-.18-.44-.22-.9-.08-.95v-2m0-4.06v-4.04m0-4.05v-4.04m0-4.03v-4.05m0-4.04v-4.05m0-4.04v-4.05m0-4.05v-4.04m0-4.05v-4.03m0-4.05V849m0-4.04v-4.05m0-4.05v-4.05m0-4.04v-4.04m0-4.05v-4.04m0-4.05v-4.04m0-4.04v-4.05m0-4.04v-4.04m0-4.04v-4.05m0-4.04v-4.04m0-4.06v-4.04m0-4.05V760m0-4.03v-4.05m0-4.04v-4.05m0-4.04v-4.05m0-4.05v-4.04m0-4.05v-4.03m0-4.05v-4.04m0-4.04v-4.05m0-4.05v-4.05m0-4.04v-4.04m0-4.05v-4.04m0-4.05v-4.04m0-4.05v-4.05m0-4.04v-2.02" stroke="#3a414a" fill="none"/><path d="M1117.5 922.18h-.5v-.95h.5z" stroke="#3a414a" stroke-width=".05" fill="#3a414a"/><path d="M919.78 642.12l4.64 14.26h-9.27z" stroke="#3a414a" fill="#3a414a"/><path d="M1000.16 641v193.27a6 6 0 0 0 6 6h94.96" stroke="#3a414a" fill="none"/><path d="M1000.64 641h-.95v-.5h.94z" stroke="#3a414a" stroke-width=".05" fill="#3a414a"/><path d="M1115.88 840.27l-14.26 4.63v-9.27z" stroke="#3a414a" fill="#3a414a"/><path d="M1000.16 463.12v-2m0-4v-4m0-4.02v-4m0-4v-4m0-4v-4m0-4.02v-4m0-4v-4m0-4v-4.02m0-4v-4m0-4v-4m0-4v-4.02m0-4v-4m0-4v-4m0-4.02v-4m0-4v-4m0-4v-4m0-4.02v-4m0-4v-2l.08-.94.22-.92.18-.44m3.23-3.23l.44-.18.92-.23.94-.08h1.98m3.96 0h3.96m3.96 0h3.96m3.95 0h3.96m3.95 0h3.96m3.97 0h3.96m3.95 0h3.96m3.96 0h3.96m3.96 0h3.96m3.96 0h3.95m3.95 0h3.96m3.97 0h3.96m3.96 0h3.94m3.96 0h3.96m3.96 0h1.98" stroke="#3a414a" fill="none"/><path d="M1000.16 477.88l-4.63-14.26h9.27z" stroke="#3a414a" fill="#3a414a"/><path d="M1117.5 321.47h-.5v-.95h.5z" stroke="#3a414a" stroke-width=".05" fill="#3a414a"/><path d="M1101.12 238.3H925.78a6 6 0 0 0-6 6V479" stroke="#3a414a" fill="none"/><path d="M1115.88 238.3l-14.26 4.63v-9.27z" stroke="#3a414a" fill="#3a414a"/><path d="M920.26 479.5h-.95v-.5h.96z" stroke="#3a414a" stroke-width=".05" fill="#3a414a"/><path d="M1402.87 199V90.38a6 6 0 0 1 6-6h174.25" stroke="#3a414a" fill="none"/><path d="M1403.35 199.5h-.95v-.5h.95z" stroke="#3a414a" stroke-width=".05" fill="#3a414a"/><path d="M1597.88 84.38l-14.26 4.64v-9.27z" stroke="#3a414a" fill="#3a414a"/><path d="M1599 155.88h-1.97m-3.95 0h-3.94m-3.94 0h-3.95m-3.94 0h-3.94m-3.94 0h-3.94m-3.95 0h-3.94m-3.95 0h-3.95m-3.94 0h-3.95m-3.93 0h-3.94m-3.95 0h-3.94m-3.95 0h-3.95m-3.95 0h-3.94m-3.94 0h-3.95m-3.94 0h-3.94m-3.96 0h-1.97l-.94.07-.9.22-.45.18m-3.24 3.24l-.18.42-.22.92-.07.94v1.77m0 3.53v3.54m0 3.55v3.54m0 3.55v1.77" stroke="#3a414a" fill="none"/><path d="M1599.5 156.35h-.5v-.95h.5z" stroke="#3a414a" stroke-width=".05" fill="#3a414a"/><path d="M1482.57 197.88l-4.64-14.26h9.27z" stroke="#3a414a" fill="#3a414a"/><path d="M1599 481.7h-2m-4.02 0h-4m-4 0h-4.02m-4 0h-4.02m-4 0h-4.02m-4 0h-4.02m-4 0h-4.02m-4 0h-4.02m-4 0h-4.02m-4 0h-4.02m-4 0h-4.02m-4 0h-4.02m-4 0h-4.02m-4 0h-4.02m-4 0h-4.02m-4 0h-4.02m-4 0h-4.02m-4 0h-4.02m-4 0h-4.02m-4 0h-4.02m-4 0h-4.02m-4 0h-4.02m-4 0h-4.02m-4 0h-4m-4.02 0h-2l-.95-.08-.92-.23-.44-.2M1401 478l-.18-.44-.22-.9-.07-.95v-2.07m0-4.12v-4.1m0-4.12v-4.12m0-4.1v-4.13m0-4.12v-4.1m0-4.12v-4.12m0-4.1v-4.13m0-4.12V416m0-4.12v-4.12m0-4.12v-4.1m0-4.13v-4.1m0-4.12v-4.12m0-4.12v-2.06" stroke="#3a414a" fill="none"/><path d="M1599.5 482.16h-.5v-.95h.5z" stroke="#3a414a" stroke-width=".05" fill="#3a414a"/><path d="M1400.53 362.12l4.63 14.26h-9.27z" stroke="#3a414a" fill="#3a414a"/><path d="M1583.12 407.85h-100.4a6 6 0 0 1-6-6V361" stroke="#3a414a" fill="none"/><path d="M1597.88 407.85l-14.26 4.64v-9.28z" stroke="#3a414a" fill="#3a414a"/><path d="M1477.18 361h-.95v-.5h.95z" stroke="#3a414a" stroke-width=".05" fill="#3a414a"/><path d="M2001 398.48h120.1" stroke="#3a414a" fill="none"/><path d="M2001 398.95h-.5V398h.5z" stroke="#3a414a" stroke-width=".05" fill="#3a414a"/><path d="M2135.88 398.48l-14.27 4.63v-9.26z" stroke="#3a414a" fill="#3a414a"/><path d="M2137 480.52h-2m-4 0h-4m-4 0h-4.02m-4 0h-4m-4 0h-4m-4.02 0h-4m-4 0h-4m-4 0h-4.02m-4 0h-4m-4 0h-4m-4 0h-4.02m-4 0h-4m-4 0h-4.02m-4 0h-4m-4 0h-4m-4 0h-2.02" stroke="#3a414a" fill="none"/><path d="M2137.5 481h-.5v-.96h.5z" stroke="#3a414a" stroke-width=".05" fill="#3a414a"/><path d="M2002.12 480.52l14.26-4.64v9.27z" stroke="#3a414a" fill="#3a414a"/><path d="M2001 78.52h120.1" stroke="#3a414a" fill="none"/><path d="M2001 79h-.5v-.95h.5z" stroke="#3a414a" stroke-width=".05" fill="#3a414a"/><path d="M2135.88 78.52l-14.27 4.64V73.9z" stroke="#3a414a" fill="#3a414a"/><path d="M2137 160.56h-1.9m-3.77 0h-3.77m-3.78 0H2120m-3.78 0h-3.77m-3.78 0h-3.78m-3.8 0h-3.77m-3.77 0h-3.78m-3.78 0h-3.78m-3.78 0h-3.77m-3.78 0h-3.76m-3.72 0h-3.73m-3.73 0h-3.72m-3.72 0h-3.73m-3.72 0h-3.72m-3.72 0h-3.73m-3.7 0h-3.73m-3.72 0h-1.87" stroke="#3a414a" fill="none"/><path d="M2137.5 161.04h-.5v-.95h.5z" stroke="#3a414a" stroke-width=".05" fill="#3a414a"/><path d="M2002.12 160.56l14.27-4.63-.02 9.27z" stroke="#3a414a" fill="#3a414a"/><path d="M2001 678.58h120.12" stroke="#3a414a" fill="none"/><path d="M2001 679.06h-.5v-.95h.5z" stroke="#3a414a" stroke-width=".05" fill="#3a414a"/><path d="M2135.88 678.58l-14.26 4.64v-9.27z" stroke="#3a414a" fill="#3a414a"/><path d="M2137 759.23h-2.1m-4.23 0h-4.22m-4.22 0H2118m-4.2 0h-4.23m-4.22 0h-4.22m-4.22 0h-4.2m-4.23 0h-4.22m-4.22 0h-4.22m-4.2 0h-2.2l-.07-.02-.07-.02-.06-.04-.06-.05-.05-.07-.05-.06-.03-.07v-.07l-.02-.08v-.07l-.02-.07-.03-.06-.04-.06-.04-.06-.06-.05-.06-.04-.07-.03h-.07l-.07-.02h-2.16m-4.3 0h-4.3m-4.3 0h-4.3m-4.3 0h-4.32m-4.3 0h-4.3m-4.3 0h-4.3m-4.3 0h-2.17" stroke="#3a414a" fill="none"/><path d="M2137.5 759.7h-.5v-.95h.5z" stroke="#3a414a" stroke-width=".05" fill="#3a414a"/><path d="M2002.12 758.28l14.26-4.64v9.27z" stroke="#3a414a" fill="#3a414a"/><path d="M2001 998.54h120.1" stroke="#3a414a" fill="none"/><path d="M2001 999h-.5v-.94h.5z" stroke="#3a414a" stroke-width=".05" fill="#3a414a"/><path d="M2135.88 998.54l-14.27 4.63v-9.27z" stroke="#3a414a" fill="#3a414a"/><path d="M2137 1079.4h-2m-4 0h-4m-4 0h-4.02m-4 0h-4m-4 0h-4m-4.02 0h-4m-4 0h-4m-4 0h-4.02m-4 0h-4m-4 0h-4m-4 0h-4.02m-4 0h-4m-4 0h-4.02m-4 0h-4m-4 0h-4m-4 0h-2.02" stroke="#3a414a" fill="none"/><path d="M2137.5 1079.88h-.5v-.95h.5z" stroke="#3a414a" stroke-width=".05" fill="#3a414a"/><path d="M2002.12 1079.4l14.26-4.63v9.27z" stroke="#3a414a" fill="#3a414a"/><path d="M1599 1079.4h-2m-3.98 0h-3.98m-4 0h-3.97m-4 0h-3.97m-4 0h-3.98m-3.98 0h-4m-3.97 0h-4m-3.97 0h-4m-3.97 0h-4m-3.97 0h-4m-3.97 0h-4m-3.98 0h-4m-3.98 0h-3.98m-4 0h-3.97m-4 0h-3.98m-4 0h-3.97m-4 0h-3.98m-3.98 0h-4m-3.98 0h-4m-3.97 0h-4m-3.97 0h-4m-3.97 0h-3.98m-3.98 0h-4m-3.97 0h-4m-3.98 0h-2l-.94-.07-.9-.22-.45-.17m-3.22-3.24l-.18-.44-.22-.92-.08-.94v-2m0-4.03v-4.02m0-4.02v-4.02m0-4v-4.04m0-4.02v-4.02m0-4.02v-4.02m0-4.03v-4.02m0-4.02v-4m0-4.03v-4.02m0-4.02V999m0-4.02v-4.02m0-4.02v-4.02m0-4.02v-2.02" stroke="#3a414a" fill="none"/><path d="M1599.5 1079.88h-.5v-.95h.5z" stroke="#3a414a" stroke-width=".05" fill="#3a414a"/><path d="M1401.7 962.12l4.64 14.26h-9.27z" stroke="#3a414a" fill="#3a414a"/><path d="M1477.88 961v36.23a6 6 0 0 0 6 6h99.24" stroke="#3a414a" fill="none"/><path d="M1478.36 961h-.95v-.5h.96z" stroke="#3a414a" stroke-width=".05" fill="#3a414a"/><path d="M1597.88 1003.23l-14.26 4.63v-9.27z" stroke="#3a414a" fill="#3a414a"/><path d="M1404.05 799V688.1a6 6 0 0 1 6-6h173.07" stroke="#3a414a" fill="none"/><path d="M1404.52 799.5h-.95v-.5h.95z" stroke="#3a414a" stroke-width=".05" fill="#3a414a"/><path d="M1597.88 682.1l-14.26 4.63v-9.27z" stroke="#3a414a" fill="#3a414a"/><path d="M1599 753.6h-1.94m-3.87 0h-3.9m-3.87 0h-3.87m-3.88 0h-3.88m-3.87 0h-3.88m-3.88 0h-3.87m-3.88 0h-3.87m-3.88 0h-3.88m-3.88 0h-3.88m-3.88 0h-3.87m-3.9 0h-3.87m-3.87 0h-3.88m-3.87 0h-3.87m-3.88 0h-3.87m-3.88 0h-3.88m-3.87 0h-1.94l-.93.06-.9.22-.45.2m-3.24 3.22l-.18.44-.22.9-.07.95v1.95m0 3.92v3.92m0 3.9v3.94m0 3.92v1.96" stroke="#3a414a" fill="none"/><path d="M1599.5 754.07h-.5v-.95h.5z" stroke="#3a414a" stroke-width=".05" fill="#3a414a"/><path d="M1476.7 797.88l-4.63-14.26h9.28z" stroke="#3a414a" fill="#3a414a"/><path d="M1920-114a6 6 0 0 1 6-6h228a6 6 0 0 1 6 6v68a6 6 0 0 1-6 6h-228a6 6 0 0 1-6-6z" stroke="#000" stroke-opacity="0" fill="#fff" fill-opacity="0"/><g><use xlink:href="#f" transform="matrix(1,0,0,1,1925,-115) translate(37.9410807291667 48.75325520833332)"/></g><path d="M2160.5-80H2334a6 6 0 0 1 6 6v93.5" stroke="#3a414a" fill="none"/><path d="M2160.5-79.53h-.5v-.94h.5zM2340.47 20h-.94v-.5h.94z" stroke="#3a414a" stroke-width=".05" fill="#3a414a"/><path d="M1919.5-80h-234.73a6 6 0 0 0-6 6v93.5" stroke="#3a414a" fill="none"/><path d="M1920-79.53h-.5v-.94h.5zM1679.24 20h-.95v-.5h.94z" stroke="#3a414a" stroke-width=".05" fill="#3a414a"/><path d="M510 95.6a6 6 0 0 1 6-6h408a6 6 0 0 1 6 6V194a6 6 0 0 1-6 6H516a6 6 0 0 1-6-6z" stroke="#000" stroke-opacity="0" fill="#fff" fill-opacity="0"/><g><use xlink:href="#g" transform="matrix(1,0,0,1,515,94.60611979166669) translate(22.228190104166742 64.03450520833331)"/><use xlink:href="#h" transform="matrix(1,0,0,1,515,94.60611979166669) translate(87.31608072916671 64.03450520833331)"/><use xlink:href="#i" transform="matrix(1,0,0,1,515,94.60611979166669) translate(186.59993489583334 64.03450520833331)"/><use xlink:href="#j" transform="matrix(1,0,0,1,515,94.60611979166669) translate(260.2327473958333 64.03450520833331)"/></g><path d="M720 200.5V477" stroke="#3a414a" fill="none"/><path d="M720.48 200.5h-.96v-.5h.96zM720.48 477.5h-.96v-.5h.96z" stroke="#3a414a" stroke-width=".05" fill="#3a414a"/><path d="M1000-114a6 6 0 0 1 6-6h388a6 6 0 0 1 6 6v68a6 6 0 0 1-6 6h-388a6 6 0 0 1-6-6z" stroke="#000" stroke-opacity="0" fill="#fff" fill-opacity="0"/><g><use xlink:href="#k" transform="matrix(1,0,0,1,1005,-115) translate(30.327148437500057 48.75325520833332)"/><use xlink:href="#i" transform="matrix(1,0,0,1,1005,-115) translate(158.5009765625 48.75325520833332)"/><use xlink:href="#j" transform="matrix(1,0,0,1,1005,-115) translate(232.13378906249997 48.75325520833332)"/></g><path d="M1200-39.5V197" stroke="#3a414a" fill="none"/><path d="M1200.47-39.5h-.94v-.5h.94zM1200.47 197.5h-.94v-.5h.94z" stroke="#3a414a" stroke-width=".05" fill="#3a414a"/><defs><path fill="#fff" d="M1128-1036c0 321-241 464-585 461H371V0H201v-1462h379c365 0 548 142 548 426zm-176 8c0-218-150-286-391-287H371v594h153c270-3 428-62 428-307" id="l"/><path fill="#fff" d="M340-893c80-153 237-262 467-211l-23 154c-45-10-85-15-120-15-184-3-322 182-322 377V0H176v-1096h137l19 203h8" id="m"/><path fill="#fff" d="M621-1116c316 0 501 239 501 567 0 339-180 575-508 569S119-212 115-549c-4-339 178-567 506-567zm-5 141c-239 0-329 168-329 426 0 255 93 430 331 430s332-174 332-430-95-426-334-426" id="n"/><path fill="#fff" d="M1368-1116c259 2 372 131 371 401V0h-166v-713c0-168-66-262-230-262-221 0-303 131-303 363V0H874v-713c-1-169-66-262-231-262-235 0-301 142-301 400V0H176v-1096h135l27 150h8c56-99 174-170 324-170 171 0 283 62 336 186h8c60-108 189-187 354-186" id="o"/><path fill="#fff" d="M342 0H176v-1096h166V0zm-82-1282c-61 0-98-43-98-111 0-69 36-110 98-110 59 0 98 43 98 110s-39 111-98 111" id="p"/><path fill="#fff" d="M502-977c-130 0-238 32-238 139 0 75 39 101 95 134 33 19 97 46 192 81 130 48 217 95 263 143s69 108 69 181C883-73 695 20 449 20 304 20 190-3 109-49v-154c91 47 216 86 344 86 149 0 270-36 270-168 0-43-21-76-55-109-56-55-367-158-434-208-74-55-128-109-128-225 0-327 490-342 754-217l-59 135c-110-45-210-68-299-68" id="q"/><path fill="#fff" d="M995-51C878-2 799 19 639 20c-329 2-524-221-524-559 0-326 172-577 481-577 278 0 451 210 446 493v105H287c4 242 121 392 358 393 118 0 235-25 350-74v148zM864-653c2-195-85-324-270-324-190 0-288 139-303 324h573" id="r"/><g id="a"><use transform="matrix(0.015190972222222219,0,0,0.015190972222222219,0,0)" xlink:href="#l"/><use transform="matrix(0.015190972222222219,0,0,0.015190972222222219,18.730468749999996,0)" xlink:href="#m"/><use transform="matrix(0.015190972222222219,0,0,0.015190972222222219,30.80729166666666,0)" xlink:href="#n"/><use transform="matrix(0.015190972222222219,0,0,0.015190972222222219,49.59852430555554,0)" xlink:href="#o"/><use transform="matrix(0.015190972222222219,0,0,0.015190972222222219,78.53732638888887,0)" xlink:href="#p"/><use transform="matrix(0.015190972222222219,0,0,0.015190972222222219,86.40624999999999,0)" xlink:href="#q"/><use transform="matrix(0.015190972222222219,0,0,0.015190972222222219,101.24782986111109,0)" xlink:href="#r"/></g><path fill="#fff" d="M184 0v-1462h310V0H184" id="s"/><path fill="#fff" d="M643-1462c464-5 754 260 754 717 0 491-297 749-799 745H184v-1462h459zm432 725c0-314-139-471-416-471H494v952h133c299 0 448-160 448-481" id="t"/><g id="b"><use transform="matrix(0.015190972222222219,0,0,0.015190972222222219,0,0)" xlink:href="#s"/><use transform="matrix(0.015190972222222219,0,0,0.015190972222222219,10.299479166666664,0)" xlink:href="#t"/></g><path fill="#3a414a" d="M371 0H201v-1462h815v151H371v535h606v151H371V0" id="u"/><path fill="#3a414a" d="M563 20c-271 0-399-123-399-399v-717h168v711c1 177 76 266 252 266 250 0 331-135 331-401v-576h166V0H944l-24-147h-9C848-44 724 20 563 20" id="v"/><path fill="#3a414a" d="M694-1116c270 0 399 125 398 401V0H926v-709c-1-177-76-266-252-266-250 0-332 133-332 400V0H176v-1096h135l27 150h8c62-101 190-170 348-170" id="w"/><path fill="#3a414a" d="M287-543c-1 247 91 418 323 418 91 0 185-20 281-59v147C818 1 725 20 614 20c-329 0-499-221-499-561 0-349 172-575 510-575 96 0 221 26 282 57l-51 141c-61-25-157-50-235-51-223 0-334 142-334 426" id="x"/><path fill="#3a414a" d="M354-322c-2 123 60 204 176 205 51 1 114-10 150-20v127C647 7 557 20 506 20 294 20 188-92 188-315v-652H31v-80l157-69 70-234h96v254h318v129H354v645" id="y"/><path fill="#3a414a" d="M342 0H176v-1096h166V0zm-82-1282c-61 0-98-43-98-111 0-69 36-110 98-110 59 0 98 43 98 110s-39 111-98 111" id="z"/><path fill="#3a414a" d="M621-1116c316 0 501 239 501 567 0 339-180 575-508 569S119-212 115-549c-4-339 178-567 506-567zm-5 141c-239 0-329 168-329 426 0 255 93 430 331 430s332-174 332-430-95-426-334-426" id="A"/><g id="c"><use transform="matrix(0.015190972222222219,0,0,0.015190972222222219,0,0)" xlink:href="#u"/><use transform="matrix(0.015190972222222219,0,0,0.015190972222222219,16.056857638888886,0)" xlink:href="#v"/><use transform="matrix(0.015190972222222219,0,0,0.015190972222222219,35.151909722222214,0)" xlink:href="#w"/><use transform="matrix(0.015190972222222219,0,0,0.015190972222222219,54.24696180555554,0)" xlink:href="#x"/><use transform="matrix(0.015190972222222219,0,0,0.015190972222222219,69.0581597222222,0)" xlink:href="#y"/><use transform="matrix(0.015190972222222219,0,0,0.015190972222222219,80.04123263888886,0)" xlink:href="#z"/><use transform="matrix(0.015190972222222219,0,0,0.015190972222222219,87.91015624999997,0)" xlink:href="#A"/><use transform="matrix(0.015190972222222219,0,0,0.015190972222222219,106.70138888888886,0)" xlink:href="#w"/></g><path fill="#3a414a" d="M1016 0H201v-1462h815v151H371v471h606v150H371v538h645V0" id="B"/><path fill="#3a414a" d="M440-561L59-1096h189l289 420 288-420h187L631-561 1032 0H844L537-444 227 0H39" id="C"/><path fill="#3a414a" d="M995-51C878-2 799 19 639 20c-329 2-524-221-524-559 0-326 172-577 481-577 278 0 451 210 446 493v105H287c4 242 121 392 358 393 118 0 235-25 350-74v148zM864-653c2-195-85-324-270-324-190 0-288 139-303 324h573" id="D"/><g id="d"><use transform="matrix(0.015190972222222219,0,0,0.015190972222222219,0,0)" xlink:href="#B"/><use transform="matrix(0.015190972222222219,0,0,0.015190972222222219,17.302517361111107,0)" xlink:href="#C"/><use transform="matrix(0.015190972222222219,0,0,0.015190972222222219,32.979600694444436,0)" xlink:href="#D"/><use transform="matrix(0.015190972222222219,0,0,0.015190972222222219,50.434027777777764,0)" xlink:href="#x"/><use transform="matrix(0.015190972222222219,0,0,0.015190972222222219,65.24522569444443,0)" xlink:href="#v"/><use transform="matrix(0.015190972222222219,0,0,0.015190972222222219,84.34027777777776,0)" xlink:href="#y"/><use transform="matrix(0.015190972222222219,0,0,0.015190972222222219,95.32335069444443,0)" xlink:href="#z"/><use transform="matrix(0.015190972222222219,0,0,0.015190972222222219,103.19227430555554,0)" xlink:href="#A"/><use transform="matrix(0.015190972222222219,0,0,0.015190972222222219,121.98350694444443,0)" xlink:href="#w"/></g><path fill="#3a414a" d="M125-733c6-459 248-750 704-750 153 0 287 28 402 84l-72 146c-111-52-221-78-332-78-334-1-520 251-520 600 0 361 171 600 518 600 102 0 218-18 349-55v149C1073 1 948 20 799 20c-445 1-680-294-674-753" id="E"/><path fill="#3a414a" d="M588-1114c260 0 384 106 385 366V0H850l-33-156h-8C708-34 639 17 442 20 231 23 94-94 94-303c0-221 177-337 531-348l186-6c11-203-40-320-233-320-91 0-195 28-310 84l-51-127c97-53 229-94 371-94zM268-301c-1 123 81 184 207 184 203 0 334-120 332-323v-99c-257 14-539-7-539 238" id="F"/><path fill="#3a414a" d="M342 0H176v-1556h166V0" id="G"/><path fill="#3a414a" d="M340-893c80-153 237-262 467-211l-23 154c-45-10-85-15-120-15-184-3-322 182-322 377V0H176v-1096h137l19 203h8" id="H"/><g id="e"><use transform="matrix(0.015190972222222219,0,0,0.015190972222222219,0,0)" xlink:href="#E"/><use transform="matrix(0.015190972222222219,0,0,0.015190972222222219,19.626736111111107,0)" xlink:href="#F"/><use transform="matrix(0.015190972222222219,0,0,0.015190972222222219,36.929253472222214,0)" xlink:href="#G"/><use transform="matrix(0.015190972222222219,0,0,0.015190972222222219,44.79817708333332,0)" xlink:href="#G"/><use transform="matrix(0.015190972222222219,0,0,0.015190972222222219,52.66710069444443,0)" xlink:href="#D"/><use transform="matrix(0.015190972222222219,0,0,0.015190972222222219,70.12152777777776,0)" xlink:href="#H"/></g><path fill="#3a414a" d="M1128-1036c0 321-241 464-585 461H371V0H201v-1462h379c365 0 548 142 548 426zm-176 8c0-218-150-286-391-287H371v594h153c270-3 428-62 428-307" id="I"/><path fill="#3a414a" d="M502-977c-130 0-238 32-238 139 0 75 39 101 95 134 33 19 97 46 192 81 130 48 217 95 263 143s69 108 69 181C883-73 695 20 449 20 304 20 190-3 109-49v-154c91 47 216 86 344 86 149 0 270-36 270-168 0-43-21-76-55-109-56-55-367-158-434-208-74-55-128-109-128-225 0-327 490-342 754-217l-59 135c-110-45-210-68-299-68" id="J"/><g id="f"><use transform="matrix(0.01627604166666666,0,0,0.01627604166666666,0,0)" xlink:href="#I"/><use transform="matrix(0.01627604166666666,0,0,0.01627604166666666,20.068359374999993,0)" xlink:href="#H"/><use transform="matrix(0.01627604166666666,0,0,0.01627604166666666,33.007812499999986,0)" xlink:href="#A"/><use transform="matrix(0.01627604166666666,0,0,0.01627604166666666,53.14127604166664,0)" xlink:href="#x"/><use transform="matrix(0.01627604166666666,0,0,0.01627604166666666,69.01041666666664,0)" xlink:href="#D"/><use transform="matrix(0.01627604166666666,0,0,0.01627604166666666,87.71158854166663,0)" xlink:href="#J"/><use transform="matrix(0.01627604166666666,0,0,0.01627604166666666,103.61328124999996,0)" xlink:href="#J"/><use transform="matrix(0.01627604166666666,0,0,0.01627604166666666,119.51497395833329,0)" xlink:href="#D"/><use transform="matrix(0.01627604166666666,0,0,0.01627604166666666,138.2161458333333,0)" xlink:href="#J"/></g><g id="g"><use transform="matrix(0.01627604166666666,0,0,0.01627604166666666,0,0)" xlink:href="#E"/><use transform="matrix(0.01627604166666666,0,0,0.01627604166666666,21.028645833333325,0)" xlink:href="#F"/><use transform="matrix(0.01627604166666666,0,0,0.01627604166666666,39.56705729166665,0)" xlink:href="#G"/><use transform="matrix(0.01627604166666666,0,0,0.01627604166666666,47.99804687499998,0)" xlink:href="#G"/></g><path fill="#3a414a" d="M125-741c0-247 161-377 414-375 57 0 109 7 155 20h379v105l-203 24c37 48 72 129 72 219 0 255-227 390-504 345-71 37-106 84-106 141 0 78 66 88 164 88h194c219-1 369 87 369 293 0 121-49 213-146 277s-239 96-426 96c-250 0-448-83-448-306C39 36 147-58 283-86c-52-23-102-79-99-152 4-104 57-143 133-192-107-42-192-164-192-311zM438-25c-143-1-242 70-239 209s131 181 290 181c139 0 242-21 309-63s101-98 101-169c0-147-88-158-262-158H438zm94-970c-158 0-243 88-243 250 0 153 93 233 246 233 162 0 243-79 243-236 0-165-82-247-246-247" id="K"/><path fill="#3a414a" d="M1141-549c0 329-147 569-455 569-159 0-273-61-344-161h-12c23 199 7 418 12 633H176v-1588h135l23 150h8c77-108 175-170 344-170 311 0 455 237 455 567zm-172-2c0-242-88-424-307-424-256 0-323 154-320 426 3 280 68 430 324 430 213 0 303-196 303-432" id="L"/><path fill="#3a414a" d="M690-1114c271 2 402 123 402 399V0H926v-709c-1-177-76-266-252-266-251 0-332 135-332 402V0H176v-1556h166c-4 200 8 426-8 612h10c61-100 187-171 346-170" id="M"/><g id="h"><use transform="matrix(0.01627604166666666,0,0,0.01627604166666666,0,0)" xlink:href="#K"/><use transform="matrix(0.01627604166666666,0,0,0.01627604166666666,18.261718749999993,0)" xlink:href="#H"/><use transform="matrix(0.01627604166666666,0,0,0.01627604166666666,31.20117187499999,0)" xlink:href="#F"/><use transform="matrix(0.01627604166666666,0,0,0.01627604166666666,49.739583333333314,0)" xlink:href="#L"/><use transform="matrix(0.01627604166666666,0,0,0.01627604166666666,70.16601562499997,0)" xlink:href="#M"/></g><g id="i"><use transform="matrix(0.01627604166666666,0,0,0.01627604166666666,0,0)" xlink:href="#H"/><use transform="matrix(0.01627604166666666,0,0,0.01627604166666666,12.939453124999995,0)" xlink:href="#A"/><use transform="matrix(0.01627604166666666,0,0,0.01627604166666666,33.07291666666666,0)" xlink:href="#A"/><use transform="matrix(0.01627604166666666,0,0,0.01627604166666666,53.206380208333314,0)" xlink:href="#y"/></g><path fill="#3a414a" d="M1368-1116c259 2 372 131 371 401V0h-166v-713c0-168-66-262-230-262-221 0-303 131-303 363V0H874v-713c-1-169-66-262-231-262-235 0-301 142-301 400V0H176v-1096h135l27 150h8c56-99 174-170 324-170 171 0 283 62 336 186h8c60-108 189-187 354-186" id="N"/><g id="j"><use transform="matrix(0.01627604166666666,0,0,0.01627604166666666,0,0)" xlink:href="#L"/><use transform="matrix(0.01627604166666666,0,0,0.01627604166666666,20.42643229166666,0)" xlink:href="#H"/><use transform="matrix(0.01627604166666666,0,0,0.01627604166666666,33.36588541666666,0)" xlink:href="#A"/><use transform="matrix(0.01627604166666666,0,0,0.01627604166666666,53.499348958333314,0)" xlink:href="#N"/><use transform="matrix(0.01627604166666666,0,0,0.01627604166666666,84.5052083333333,0)" xlink:href="#z"/><use transform="matrix(0.01627604166666666,0,0,0.01627604166666666,92.93619791666663,0)" xlink:href="#J"/><use transform="matrix(0.01627604166666666,0,0,0.01627604166666666,108.83789062499996,0)" xlink:href="#D"/></g><g id="k"><use transform="matrix(0.01627604166666666,0,0,0.01627604166666666,0,0)" xlink:href="#I"/><use transform="matrix(0.01627604166666666,0,0,0.01627604166666666,20.068359374999993,0)" xlink:href="#H"/><use transform="matrix(0.01627604166666666,0,0,0.01627604166666666,33.007812499999986,0)" xlink:href="#A"/><use transform="matrix(0.01627604166666666,0,0,0.01627604166666666,53.14127604166664,0)" xlink:href="#x"/><use transform="matrix(0.01627604166666666,0,0,0.01627604166666666,69.01041666666664,0)" xlink:href="#D"/><use transform="matrix(0.01627604166666666,0,0,0.01627604166666666,87.71158854166663,0)" xlink:href="#J"/><use transform="matrix(0.01627604166666666,0,0,0.01627604166666666,103.61328124999996,0)" xlink:href="#J"/></g></defs></g></svg>