<svg id="svg20288" height="512" viewBox="0 0 16.933333 16.933334" width="512" fill="#374151" xmlns="http://www.w3.org/2000/svg" xmlns:svg="http://www.w3.org/2000/svg"><g id="layer1" transform="translate(0 -280.067)"><path id="path13983" d="m8.4820292 280.56055c-3.9425621 0-7.1442667 3.20222-7.1442667 7.14478 0 2.00134.8313471 3.84642 2.2029663 5.16041.2539783.24981.6261846-.13601.3674194-.38085-1.2701708-1.21681-2.0412191-2.92484-2.0412191-4.77956 0-3.65658 2.9585208-6.6151 6.6151001-6.6151 3.6565758 0 6.6156168 2.95852 6.6156168 6.6151 0 1.84727-.764651 3.54769-2.025716 4.76354-.258765.24484.113441.63066.367419.38085 1.361779-1.31294 2.187464-3.15109 2.187464-5.14439 0-3.94256-3.202225-7.14478-7.1447838-7.14478zm0 1.56269c-3.1008646 0-5.6208457 2.5205-5.6208457 5.62137 0 .67466.1210593 1.32636.3436485 1.93321.1068983.35972.6464366.16246.4960938-.18138-.2015781-.54957-.3105756-1.14002-.3105756-1.75183 0-2.81489 2.2767967-5.0922 5.091679-5.0922 2.8148758 0 5.0916788 2.27732 5.0916788 5.0922 0 .61054-.109276 1.19909-.310058 1.74769-.136936.33821.381662.52992.497644.18397.221711-.60579.342098-1.25838.342098-1.93166 0-3.10087-2.520503-5.62137-5.6213628-5.62137zm.0005292 3.72846h-2.3197551c-.038797.17051-.061495.34693-.061495.52916h2.3812501c.3537143-.00053.3537143.53028 0 .52969h-2.3812501v.52917h2.3812501c.3606948-.008.3606948.53717 0 .52916h-2.3812501v.52917h2.3812501c.3531216 0 .3531216.52968 0 .52968h-2.3812501v1.05834h4.7614667v-3.70521c0-1.31463-1.0660976-2.38073-2.3807334-2.38073-.9346853 0-1.7415169.54044-2.1311362 1.32447l2.1461225-.00053c.379186.007.348914.55973-.01447.52761zm-2.9104167 4.49791v-1.32188c.00177-.14937-.1203934-.2706-.2697509-.26768-.1453119.003-.2611322.12235-.2594158.26768v1.32188c.0000005 1.6276 1.1288289 2.98648 2.6463501 3.3445v1.15394h-2.3828002c-.435161 0-.7932333.35962-.7932333.79478v.52917c.0005821.14531.1182359.26297.2635499.26355h7.4083335c.14612.00053.265033-.11743.265617-.26355v-.52917c0-.45547-.379056-.79478-.792717-.79478h-2.3828001v-1.15445c1.5171991-.35825 2.6463381-1.71661 2.6463381-3.34399v-1.32188c-.0077-.34503-.521509-.34503-.529167 0v1.32188c0 1.44056-1.026931 2.62586-2.4094137 2.86624-.1758596.0306-.3380095.0462-.5010031.0462-.1630032 0-.3251052-.016-.4994526-.0462-1.3821863-.23968-2.4104468-1.42476-2.4104474-2.86624zm.5451739.26562c.1322597 1.18983 1.1399679 2.1177 2.3647136 2.1177s2.2324508-.92787 2.3647138-2.1177z" font-variant-ligatures="normal" font-variant-position="normal" font-variant-caps="normal" font-variant-numeric="normal" font-variant-alternates="normal" font-feature-settings="normal" text-indent="0" text-align="start" text-decoration-line="none" text-decoration-style="solid" text-decoration-color="rgb(0,0,0)" text-transform="none" text-orientation="mixed" white-space="normal" shape-padding="0" isolation="auto" mix-blend-mode="normal" solid-color="rgb(0,0,0)" solid-opacity="1" vector-effect="none"/></g></svg>