<svg id="Capa_1" enable-background="new 0 0 512 512" height="512" viewBox="0 0 512 512" width="512" fill="#374151" stroke="#374151" xmlns="http://www.w3.org/2000/svg"><g><path d="m105.883 512 13.394-28.727c10.302-1.022 19.821-6.876 24.399-16.697l91.697-197.661c-20.442-4.092-38.73-14.143-53.031-28.251l-93.041 200.54c-4.649 9.957-2.932 20.867 2.816 29.321l-13.422 28.79z"/><path d="m256 241c41.353 0 75-33.647 75-75s-33.647-75-75-75-75 33.647-75 75 33.647 75 75 75zm-15-90h30v30h-30z"/><path d="m422.699 441.219-93.051-200.547c-14.302 14.105-32.589 24.152-53.027 28.242l91.703 197.661c4.585 9.84 14.097 15.676 24.397 16.694l13.396 28.731 27.188-12.686-13.416-28.777c5.778-8.51 7.413-19.474 2.81-29.318z"/><path d="m301 71.532v-26.532c0-24.814-20.186-45-45-45s-45 20.186-45 45v26.532c13.693-6.555 28.835-10.532 45-10.532s31.307 3.977 45 10.532z"/><path d="m38.632 471.409 14.736-26.133c-14.004-7.895-23.368-16.596-23.368-23.276 0-8.818 16.031-23.095 51.799-35.684l17-36.462c-46.614 12.076-98.799 34.005-98.799 72.146 0 12.876 7.533 31.89 38.632 49.409z"/><path d="m413.224 349.908 17.016 36.493c35.72 12.616 51.76 26.891 51.76 35.599 0 6.68-8.364 15.381-22.368 23.276l14.736 26.133c31.099-17.519 37.632-36.533 37.632-49.409 0-38.225-52.786-60.132-98.776-72.092z"/><path d="m239.235 332.619-14.2 30.454c20.64-.844 41.31-.811 61.935.035l-14.244-30.549c-11.216-.24-22.27-.178-33.491.06z"/></g></svg>