<svg xmlns="http://www.w3.org/2000/svg" xmlns:lucid="lucid" width="1002" height="1082" fill="#374151" stroke="#374151"><g lucid:page-tab-id="0_0" stroke="#000"><path d="M521 21c0 11.05-8.95 20-20 20s-20-8.95-20-20 8.95-20 20-20 20 8.95 20 20zM521 141c0 11.05-8.95 20-20 20s-20-8.95-20-20 8.95-20 20-20 20 8.95 20 20zM201 141c0 11.05-8.95 20-20 20s-20-8.95-20-20 8.95-20 20-20 20 8.95 20 20zM841 141c0 11.05-8.95 20-20 20s-20-8.95-20-20 8.95-20 20-20 20 8.95 20 20zM41 381c0 11.05-8.95 20-20 20s-20-8.95-20-20 8.95-20 20-20 20 8.95 20 20zM361 381c0 11.05-8.95 20-20 20s-20-8.95-20-20 8.95-20 20-20 20 8.95 20 20zM681 381c0 11.05-8.95 20-20 20s-20-8.95-20-20 8.95-20 20-20 20 8.95 20 20zM1001 381c0 11.05-8.95 20-20 20s-20-8.95-20-20 8.95-20 20-20 20 8.95 20 20zM41 701c0 11.05-8.95 20-20 20s-20-8.95-20-20 8.95-20 20-20 20 8.95 20 20zM361 701c0 11.05-8.95 20-20 20s-20-8.95-20-20 8.95-20 20-20 20 8.95 20 20zM681 701c0 11.05-8.95 20-20 20s-20-8.95-20-20 8.95-20 20-20 20 8.95 20 20zM1001 701c0 11.05-8.95 20-20 20s-20-8.95-20-20 8.95-20 20-20 20 8.95 20 20zM521 941c0 11.05-8.95 20-20 20s-20-8.95-20-20 8.95-20 20-20 20 8.95 20 20zM201 941c0 11.05-8.95 20-20 20s-20-8.95-20-20 8.95-20 20-20 20 8.95 20 20zM841 941c0 11.05-8.95 20-20 20s-20-8.95-20-20 8.95-20 20-20 20 8.95 20 20zM521 1061c0 11.05-8.95 20-20 20s-20-8.95-20-20 8.95-20 20-20 20 8.95 20 20z" stroke-opacity="0" stroke-width="2"/><path d="M165.56 927.7L32.4 718" fill="none"/><path d="M166.13 927.7l-.6.83-.38-.6.8-.5zM32.8 717.74l-.8.5-.25-.38.04-.02.7-.58z" stroke-width=".05"/><path d="M196.8 953.84l288.14 101.8" fill="none"/><path d="M196.97 953.4l-.32.9-.6-.22.56-.8z" stroke-width=".05"/><path d="M484.93 1055.62l.48.17M520.75 1056l280.8-108.5" fill="none"/><path d="M520.93 1056.44l-.56.22-.18-.95.4-.14zM802.02 947.3l.2.44-.5.2-.35-.9.55-.2z" stroke-width=".05"/><path d="M833.66 925.05l133.36-209.1" fill="none"/><path d="M834.07 925.3l-.3.45-.77-.56.27-.42zM967.37 715.64l.3.2-.25.4-.8-.52.35-.56z" stroke-width=".05"/><path d="M981 680.5v-279" fill="none"/><path d="M981.47 681.06L981 681l-.47.02v-.53h.94zM981 401l.47-.02v.53h-.94v-.56z" stroke-width=".05"/><path d="M967.08 366.13L831.7 158.43" fill="none"/><path d="M967.72 366.24l-.74.6-.3-.46.8-.52zM832.1 158.2l-.8.5-.3-.48.8-.38.05-.05z" stroke-width=".05"/><path d="M520.06 28.15l281.88 105.7" fill="none"/><path d="M520.24 27.7l-.34.9-.5-.2.36-.87zM802.6 133.6l-.36.87-.48-.18.34-.9z" stroke-width=".05"/><path d="M481.88 28.17L200.12 133.83" fill="none"/><path d="M482.55 28.43l-.52.2-.33-.9.44-.16zM200.3 134.27l-.44.16-.4-.86.5-.2z" stroke-width=".05"/><path d="M168.72 157.23L32.5 364.2" fill="none"/><path d="M169.38 157.1l-.27.4-.78-.52.3-.45zM32.9 364.46l-.3.45-.76-.55.27-.4z" stroke-width=".05"/><path d="M21 401.5v279" fill="none"/><path d="M21 401l.48-.02v.53h-.96v-.56zM21.48 681.06L21 681l-.48.02v-.53h.96z" stroke-width=".05"/><path d="M201.5 141h279" fill="none"/><path d="M201.5 141.48h-.56l.06-.48-.02-.48h.53zM481 141l.02.48h-.53v-.96h.56z" stroke-width=".05"/><path d="M521.5 141h279" fill="none"/><path d="M521.5 141.48h-.56l.06-.48-.02-.48h.53zM801 141l.02.48h-.53v-.96h.56z" stroke-width=".05"/><path d="M201.5 941h279" fill="none"/><path d="M201.5 941.47h-.56l.06-.47-.02-.47h.53zM481 941l.02.47h-.53v-.94h.56z" stroke-width=".05"/><path d="M521.5 941h279" fill="none"/><path d="M521.5 941.47h-.56l.06-.47-.02-.47h.53zM801 941l.02.47h-.53v-.94h.56z" stroke-width=".05"/><path d="M181 161.5v759" fill="none"/><path d="M181 161l.48-.02v.53h-.96v-.56zM181.48 921.06L181 921l-.48.02v-.53h.96z" stroke-width=".05"/><path d="M821 161.5v759" fill="none"/><path d="M821 161l.47-.02v.53h-.94v-.56zM821.47 921.06L821 921l-.47.02v-.53h.94z" stroke-width=".05"/><path d="M193.44 924.9L327.1 716.05" fill="none"/><path d="M193.85 925.13l-.3.46-.77-.57.27-.4zM327.37 715.64l.4.27-.28.43-.8-.52.35-.55z" stroke-width=".05"/><path d="M353.68 716.9l137.67 216.9" fill="none"/><path d="M354.1 716.67l-.82.5-.24-.37.74-.62z" stroke-width=".05"/><path d="M491.34 933.8l.27.42M516.57 927.95L647.15 716.1" fill="none"/><path d="M516.98 928.18l-.35.58-.64-.77.17-.3zM647.37 715.64l.43.3-.25.4-.8-.5.33-.55z" stroke-width=".05"/><path d="M673.58 717l133.58 209.06" fill="none"/><path d="M674 716.75l-.8.5-.25-.37.73-.62zM807.8 926.17l-.74.62-.3-.5.8-.5z" stroke-width=".05"/><path d="M349.67 719.4l143.13 326.05" fill="none"/><path d="M350.1 719.23l-.86.38-.2-.44.85-.4z" stroke-width=".05"/><path d="M492.8 1045.44l.2.47M651.23 719.02l-141.08 327.14" fill="none"/><path d="M651.42 718.56l.45.18-.2.48-.88-.37.23-.57z" stroke-width=".05"/><path d="M510.16 1046.15l-.2.47M359.22 710.28l444.08 220.5" fill="none"/><path d="M359.44 709.86l-.43.85-.4-.2.34-.9zM804.03 930.6l-.57.8-.4-.2.44-.86z" stroke-width=".05"/><path d="M199.05 931.57L642.6 709.7" fill="none"/><path d="M199.27 932l-.47.22-.4-.85.45-.23zM643.25 709.9l-.45.22-.42-.85.46-.23z" stroke-width=".05"/><path d="M519.56 932.64L962.76 710" fill="none"/><path d="M519.8 933.06l-.48.24-.4-.86.44-.23zM963.4 710.2l-.45.23-.43-.85.47-.23z" stroke-width=".05"/><path d="M200.48 934.65l761.44-226.4" fill="none"/><path d="M200.63 935.1l-.53.16-.12-.57-.16-.35.54-.16zM962.6 708.55l-.55.17-.27-.9.4-.13z" stroke-width=".05"/><path d="M801.44 935.13L40.56 706.87" fill="none"/><path d="M802.1 934.83l-.35.9-.46-.15.27-.9zM40.7 706.42l-.27.9-.53-.15.35-.9z" stroke-width=".05"/><path d="M341 401.5v279" fill="none"/><path d="M341 401l.48-.02v.53h-.96v-.56zM341.48 681.06L341 681l-.48.02v-.53h.96z" stroke-width=".05"/><path d="M661 401.5v279" fill="none"/><path d="M661 401l.47-.02v.53h-.94v-.56zM661.47 681.06L661 681l-.47.02v-.53h.94z" stroke-width=".05"/><path d="M491.9 39.28l-142.63 323.1" fill="none"/><path d="M492.53 39l-.2.5-.88-.4.2-.45zM349.7 362.57l-.2.45-.87-.35.2-.5z" stroke-width=".05"/><path d="M509.27 39.6l143.46 322.8" fill="none"/><path d="M509.7 39.42l-.86.4-.2-.47.85-.4zM653.36 362.65l-.85.4-.2-.47.86-.4z" stroke-width=".05"/><path d="M489.04 157.46L354.9 365.94" fill="none"/><path d="M489.7 157.3l-.27.42-.8-.5.3-.46zM355.3 366.2l-.35.55-.32-.4-.4-.26.28-.43z" stroke-width=".05"/><path d="M512.35 158.02l136.4 206.7" fill="none"/><path d="M512.75 157.77l-.8.53-.26-.4.1-.06.64-.54zM649.4 364.84l-.74.6-.3-.46.78-.53z" stroke-width=".05"/><path d="M197.87 152.38l449.67 221.7" fill="none"/><path d="M198.1 151.96l-.43.85-.53-.25.56-.78z" stroke-width=".05"/><path d="M647.53 374.1l.46.2M359 371.5l444.64-219.64" fill="none"/><path d="M359.23 371.9l-.47.24-.4-.86.45-.22zM804.16 151.8l.2.23-.52.26-.42-.86.46-.23z" stroke-width=".05"/><path d="M355.67 395.25l293.3 296.14" fill="none"/><path d="M356 394.93l-.66.67-.4-.4.7-.57.03-.05z" stroke-width=".05"/><path d="M648.95 691.38l.36.36M646.65 395.55l-291.1 291.12" fill="none"/><path d="M647.3 395.57l-.32.33-.67-.67.4-.4zM355.88 687l-.4.4-.6-.74.33-.33z" stroke-width=".05"/><path d="M359.27 390.14l603.46 301.72" fill="none"/><path d="M359.5 389.72l-.43.85-.42-.2.35-.9zM963.35 691.64l-.35.9-.5-.26.43-.85z" stroke-width=".05"/><path d="M38.13 689.8l604.7-299.62" fill="none"/><path d="M38.35 690.2l-.4.22-.1-.2-.48-.58.56-.28zM643.5 390.4l-.47.2-.42-.84.48-.23z" stroke-width=".05"/><path d="M39.2 371.9l443.6-221.8" fill="none"/><path d="M39.43 372.32l-.47.23-.4-.86.44-.23zM483.45 150.3l-.45.23-.43-.85.47-.23z" stroke-width=".05"/><path d="M40.88 376.64L801.3 146.3" fill="none"/><path d="M41.03 377.1l-.54.16-.2-.94.45-.14zM801.88 146.6l-.45.14-.27-.9.53-.17z" stroke-width=".05"/><path d="M672.3 364.06l137.4-206.12" fill="none"/><path d="M672.7 364.3l-.3.45-.77-.55.27-.4zM810.37 157.8l-.27.4-.8-.5.3-.45z" stroke-width=".05"/><path d="M329.65 363.98l-137.3-205.96" fill="none"/><path d="M330.3 364.1l-.1.06-.64.54-.3-.47.78-.53zM192.75 157.77l-.8.53-.26-.4.1-.06.64-.54z" stroke-width=".05"/><path d="M519.55 149.42l442.7 223.67" fill="none"/><path d="M519.78 149l-.43.85-.42-.2.35-.9zM962.87 372.87l-.35.9-.5-.26.43-.84z" stroke-width=".05"/><path d="M961.44 375.13L199.7 149.05" fill="none"/><path d="M962.1 374.83l-.36.9-.45-.14.26-.93zM199.85 148.6l-.27.9-.53-.15.34-.9z" stroke-width=".05"/><path d="M501 41.5v79" fill="none"/><path d="M501 41l.48-.02v.53h-.96v-.56zM501.48 121.06L501 121l-.48.02v-.53h.96z" stroke-width=".05"/><path d="M501 161.5v759" fill="none"/><path d="M501 161l.48-.02v.53h-.96v-.56zM501.48 921.06L501 921l-.48.02v-.53h.96z" stroke-width=".05"/><path d="M501 961.5v79" fill="none"/><path d="M501 961l.48-.02v.53h-.96v-.56zM501.48 1041.06l-.48-.06-.48.02v-.53h.96z" stroke-width=".05"/><path d="M642.08 693.52L37.45 392.96" fill="none"/><path d="M642.7 693.3l-.35.88-.5-.24.43-.85zM37.67 392.54l-.42.85-.53-.27.57-.78z" stroke-width=".05"/><path d="M32.15 398.2l294.4 288.36" fill="none"/><path d="M32.5 397.86l-.68.68-.5-.48.47-.22.36-.3zM327.28 686.6l-.73.62-.34-.33.68-.7z" stroke-width=".05"/><path d="M961.67 694.56L40.33 387.44" fill="none"/><path d="M962.32 694.27l-.35.9-.46-.17.3-.9zM40.5 387l-.3.9-.52-.17.35-.9z" stroke-width=".05"/><path d="M674.68 685.8l291.18-291.2" fill="none"/><path d="M675.02 686.1l-.33.34-.07-.08-.7-.5.42-.42zM966.52 394.62l-.33.33-.7-.67.4-.4z" stroke-width=".05"/><path d="M359.8 693.15L962.5 389.5" fill="none"/><path d="M360.03 693.57l-.47.23-.4-.85.44-.23zM963.16 389.7l-.45.22-.42-.84.47-.24z" stroke-width=".05"/><path d="M326.3 395.14L35.2 686.26" fill="none"/><path d="M326.97 395.15l-.34.34-.67-.68.4-.4zM35.54 686.6l-.4.38-.5-.62-.14-.1.36-.35z" stroke-width=".05"/><path d="M40.55 695L961.45 387" fill="none"/><path d="M40.7 695.45l-.53.18-.18-.94.4-.15zM962 387.3l-.42.14-.3-.9.55-.2z" stroke-width=".05"/></g></svg>