<?xml version="1.0" encoding="iso-8859-1"?>
<!-- Generator: Adobe Illustrator 16.0.0, SVG Export Plug-In . SVG Version: 6.00 Build 0)  -->
<!DOCTYPE svg PUBLIC "-//W3C//DTD SVG 1.1//EN" "http://www.w3.org/Graphics/SVG/1.1/DTD/svg11.dtd">
<svg version="1.1" id="Capa_1" xmlns="http://www.w3.org/2000/svg" xmlns:xlink="http://www.w3.org/1999/xlink" x="0px" y="0px"
	 width="46px" height="46px" viewBox="0 0 46 46" style="enable-background:new 0 0 46 46;" xml:space="preserve" fill="#374151" stroke="#374151">
<g>
	<g>
		<path d="M46,10.494C46,8.841,44.659,7.5,43.006,7.5H2.994C1.341,7.5,0,8.841,0,10.494v6.012C0,18.159,1.341,19.5,2.994,19.5
			h40.012c1.653,0,2.994-1.341,2.994-2.994V10.494z"/>
		<path d="M46,29.494c0-1.653-1.341-2.994-2.994-2.994H2.994C1.341,26.5,0,27.841,0,29.494v6.012C0,37.159,1.341,38.5,2.994,38.5
			h40.012c1.653,0,2.994-1.341,2.994-2.994V29.494z"/>
	</g>
</g>
<g>
</g>
<g>
</g>
<g>
</g>
<g>
</g>
<g>
</g>
<g>
</g>
<g>
</g>
<g>
</g>
<g>
</g>
<g>
</g>
<g>
</g>
<g>
</g>
<g>
</g>
<g>
</g>
<g>
</g>
</svg>
