<svg xmlns="http://www.w3.org/2000/svg" width="73" height="34" fill="none" viewBox="0 0 73 34"><path fill="#212430" d="M24.3764 9.78749L31.4962 16.8592C31.5021 16.865 31.5115 16.865 31.5174 16.8592C31.5233 16.8534 31.5328 16.8534 31.5386 16.8592L36.5 21.7871L36.5212 21.8082L43.7828 29.0206C50.4665 35.6598 61.3031 35.6598 67.9869 29.0206C74.671 22.3818 74.671 11.6181 67.9869 4.97919C61.3031 -1.65973 50.4665 -1.65973 43.7828 4.97919L42.0551 6.69523C41.6614 7.08629 41.6614 7.72314 42.0551 8.11421L45.4769 11.5131C45.8669 11.9005 46.4964 11.9005 46.8863 11.5131L48.6236 9.78749C52.6337 5.80417 59.1357 5.80417 63.1461 9.78749C67.1565 13.771 67.1565 20.2289 63.1461 24.2124C59.1357 28.1958 52.6337 28.1958 48.6236 24.2124L41.5409 17.1776C41.5349 17.1717 41.5253 17.1717 41.5193 17.1776C41.5133 17.1835 41.5037 17.1835 41.4977 17.1776L29.2173 4.97919C22.5334 -1.65973 11.6967 -1.65973 5.0129 4.97919C-1.67097 11.6181 -1.67097 22.3818 5.0129 29.0206C11.6967 35.6598 22.5334 35.6598 29.2173 29.0206L30.9445 27.3049C31.3382 26.9138 31.3382 26.277 30.9445 25.8859L27.5228 22.4871C27.1328 22.0998 26.5033 22.0998 26.1133 22.4871L24.3764 24.2124C20.3661 28.1958 13.8641 28.1958 9.85376 24.2124C5.84346 20.2289 5.84346 13.771 9.85376 9.78749C13.8641 5.80417 20.3661 5.80417 24.3764 9.78749Z"/></svg>