<?xml version="1.0" encoding="iso-8859-1"?>
<!-- Generator: Adobe Illustrator 19.0.0, SVG Export Plug-In . SVG Version: 6.00 Build 0)  -->
<svg version="1.1" id="Layer_1" xmlns="http://www.w3.org/2000/svg" xmlns:xlink="http://www.w3.org/1999/xlink" x="0px" y="0px"
	 viewBox="0 0 512 512" style="enable-background:new 0 0 512 512;" xml:space="preserve" fill="#374151" stroke="#374151">
<g>
	<g>
		<path d="M508.65,115.988L363.186,261.451l141.875,141.979c4.295-7.385,6.939-15.85,6.939-24.992V133.563
			C512,127.357,510.722,121.476,508.65,115.988z"/>
	</g>
</g>
<g>
	<g>
		<path d="M461.913,83.476H50.087c-8.327,0-16.066,2.236-22.982,5.847L245.76,307.976c6.344,6.344,17.363,6.344,23.596,0
			l217.626-217.52C479.58,86.133,471.088,83.476,461.913,83.476z"/>
	</g>
</g>
<g>
	<g>
		<path d="M4.201,113.611C1.527,119.733,0,126.465,0,133.563v244.875c0,8.997,2.573,17.327,6.743,24.632l143.407-143.51
			L4.201,113.611z"/>
	</g>
</g>
<g>
	<g>
		<path d="M339.478,285.159l-46.414,46.525c-19.496,19.275-51.084,19.591-70.901,0l-48.306-48.417L32.006,425.017
			c5.625,2.192,11.69,3.507,18.081,3.507h411.826c6.235,0,12.146-1.284,17.657-3.376L339.478,285.159z"/>
	</g>
</g>
<g>
</g>
<g>
</g>
<g>
</g>
<g>
</g>
<g>
</g>
<g>
</g>
<g>
</g>
<g>
</g>
<g>
</g>
<g>
</g>
<g>
</g>
<g>
</g>
<g>
</g>
<g>
</g>
<g>
</g>
</svg>
