<svg xmlns="http://www.w3.org/2000/svg" xmlns:lucid="lucid" width="1042" height="1042"><g lucid:page-tab-id="0_0" fill="#374151" stroke="#374151"><path d="M1 1h1040v1040H1z" stroke-opacity="0" stroke-width="2" fill-opacity="0"/><path d="M541 41c0 11.05-8.95 20-20 20s-20-8.95-20-20 8.95-20 20-20 20 8.95 20 20zM541 361c0 11.05-8.95 20-20 20s-20-8.95-20-20 8.95-20 20-20 20 8.95 20 20zM541 681c0 11.05-8.95 20-20 20s-20-8.95-20-20 8.95-20 20-20 20 8.95 20 20zM541 1001c0 11.05-8.95 20-20 20s-20-8.95-20-20 8.95-20 20-20 20 8.95 20 20z" stroke-opacity="0" stroke-width="2"/><path d="M521 61.5v279" fill="none"/><path d="M521 61l.48-.02v.53h-.96v-.56zM521.48 341.06L521 341l-.48.02v-.53h.96z" stroke-width=".05"/><path d="M521 381.5v279" fill="none"/><path d="M521 381l.48-.02v.53h-.96v-.56zM521.48 661.06L521 661l-.48.02v-.53h.96z" stroke-width=".05"/><path d="M521 701.5v279" fill="none"/><path d="M521 701l.48-.02v.53h-.96v-.56zM521.48 981.06L521 981l-.48.02v-.53h.96z" stroke-width=".05"/></g></svg>