<?xml version="1.0" encoding="UTF-8"?>
<!-- Generator: Adobe Illustrator 26.0.1, SVG Export Plug-In . SVG Version: 6.00 Build 0)  -->
<svg xmlns="http://www.w3.org/2000/svg" xmlns:xlink="http://www.w3.org/1999/xlink" version="1.1" id="Capa_1" x="0px" y="0px" viewBox="0 0 512 512" style="enable-background:new 0 0 512 512;" xml:space="preserve" width="512" height="512" fill="#374151" stroke="#374151">
<g>
	<path d="M462,0H50C22.39,0,0,22.39,0,50v412c0,27.61,22.39,50,50,50h412c27.61,0,50-22.39,50-50V50C512,22.39,489.61,0,462,0z    M297,284.08h-64.22V467h-50.87V284.08H118V243h179V284.08z M462.88,434.57c-9.958,17.82-28.27,27.843-47.74,31.99   c-22.61,4.816-46.651,4.556-69.33,0.31c-11.11-2.08-20.73-5.21-28.87-9.38v-50.07c9.08,7.62,18.94,13.33,29.58,17.13   c10.64,3.81,21.39,5.71,32.241,5.71c9.602,0,20.289-1.184,28.559-6.49c5.673-3.621,9.469-9.333,9.47-16.188   c0.001-9.325-6.745-16.372-14.01-21.271c-10.64-7.175-22.874-11.833-34.66-16.74c-17.53-7.3-30.6-16.22-39.21-26.75   c-14.981-18.322-17.434-47.602-5.87-68.29c9.869-17.655,28.07-28.085,47.27-32.7c20.937-5.033,43.645-5.038,64.87-1.72   c9.02,1.41,17.34,3.57,24.96,6.49v46.78c-3.76-2.61-7.85-4.9-12.29-6.88c-8.755-3.904-18.204-6.544-27.7-7.83   c-9.499-1.27-19.489-1.491-28.871,0.71c-7.39,1.714-15.153,5.131-19.409,11.73c-1.77,2.77-2.66,5.87-2.66,9.31   c0,3.75,0.99,7.119,2.969,10.089c5.022,7.534,13.835,12.384,21.761,16.271c13.902,6.818,28.492,11.951,41.86,19.87   c12.964,7.652,24.492,18.33,30.13,32.54c2.71,6.83,4.07,14.78,4.07,23.85C470,415.56,467.63,426.07,462.88,434.57z"/>
</g>















</svg>
