<svg xmlns="http://www.w3.org/2000/svg" xmlns:lucid="lucid" width="2562" height="1362"><g transform="translate(201 121)" lucid:page-tab-id="0_0"><path d="M-200-114a6 6 0 0 1 6-6h2548a6 6 0 0 1 6 6v1348a6 6 0 0 1-6 6H-194a6 6 0 0 1-6-6z" stroke="#000" stroke-opacity="0" stroke-width="2" fill-opacity="0"/><path d="M440 465a25 25 0 0 1 25-25h510a25 25 0 0 1 25 25v190a25 25 0 0 1-25 25H465a25 25 0 0 1-25-25z" stroke="#000" stroke-opacity="0" fill="#f2f3f5" filter="url(#a)"/><path d="M480 505a25 25 0 0 1 25-25h110a25 25 0 0 1 25 25v110a25 25 0 0 1-25 25H505a25 25 0 0 1-25-25z" stroke="#000" stroke-opacity="0" fill="#fff" filter="url(#b)"/><path d="M800 505a25 25 0 0 1 25-25h110a25 25 0 0 1 25 25v110a25 25 0 0 1-25 25H825a25 25 0 0 1-25-25z" stroke="#000" stroke-opacity="0" fill="#374151" filter="url(#b)"/><path d="M640.5 518.92h79.37a.13.13 0 0 0 .13-.13.13.13 0 0 1 .13-.13h63.5" stroke="#3a414a" fill="none"/><path d="M640.5 519.4h-.5v-.95h.5z" stroke="#3a414a" stroke-width=".05" fill="#3a414a"/><path d="M798.38 518.67l-14.26 4.63v-9.27z" stroke="#3a414a" fill="#3a414a"/><path d="M799.5 599.75h-2m-3.96 0h-3.98m-3.97 0h-4m-3.97 0h-3.97m-3.98 0h-3.97m-3.97 0h-3.97m-3.98 0h-3.97m-3.97 0h-3.97m-3.98 0h-3.98m-3.97 0h-3.98m-3.97 0H718m-3.97 0h-3.98m-3.97 0h-3.98m-3.97 0h-3.98m-3.98 0h-3.97m-3.98 0h-3.97m-3.98 0h-3.97m-3.98 0h-3.97m-3.98 0h-2" stroke="#3a414a" fill="none"/><path d="M800 600.23h-.5v-.95h.5z" stroke="#3a414a" stroke-width=".05" fill="#3a414a"/><path d="M641.62 599.75l14.26-4.63v9.27z" stroke="#3a414a" fill="#3a414a"/><path d="M1160 465a25 25 0 0 1 25-25h510a25 25 0 0 1 25 25v190a25 25 0 0 1-25 25h-510a25 25 0 0 1-25-25z" stroke="#000" stroke-opacity="0" fill="#f2f3f5" filter="url(#a)"/><path d="M1200 505a25 25 0 0 1 25-25h110a25 25 0 0 1 25 25v110a25 25 0 0 1-25 25h-110a25 25 0 0 1-25-25z" stroke="#000" stroke-opacity="0" fill="#fff" filter="url(#b)"/><path d="M1520 505a25 25 0 0 1 25-25h110a25 25 0 0 1 25 25v110a25 25 0 0 1-25 25h-110a25 25 0 0 1-25-25z" stroke="#000" stroke-opacity="0" fill="#374151" filter="url(#b)"/><path d="M1360.5 518.92h143.12" stroke="#3a414a" fill="none"/><path d="M1360.5 519.4h-.5v-.95h.5z" stroke="#3a414a" stroke-width=".05" fill="#3a414a"/><path d="M1518.38 518.92l-14.26 4.64v-9.27z" stroke="#3a414a" fill="#3a414a"/><path d="M1519.5 599.75h-2m-3.96 0h-3.98m-3.97 0h-4m-3.96 0h-3.98m-3.98 0h-3.97m-3.97 0h-3.97m-3.98 0h-3.97m-3.97 0h-3.97m-3.98 0h-3.98m-3.97 0h-3.98m-3.97 0H1438m-3.97 0h-3.98m-3.97 0h-3.98m-3.97 0h-3.98m-3.98 0h-3.97m-3.98 0h-3.97m-3.98 0h-3.97m-3.98 0h-3.97m-3.98 0h-2" stroke="#3a414a" fill="none"/><path d="M1520 600.23h-.5v-.95h.5z" stroke="#3a414a" stroke-width=".05" fill="#3a414a"/><path d="M1361.62 599.75l14.26-4.63v9.27z" stroke="#3a414a" fill="#3a414a"/><path d="M960.5 517.6h223.12" stroke="#3a414a" fill="none"/><path d="M960.5 518.07h-.5v-.95h.5z" stroke="#3a414a" stroke-width=".05" fill="#3a414a"/><path d="M1198.38 517.6l-14.27 4.63.02-9.27z" stroke="#3a414a" fill="#3a414a"/><path d="M1199.5 601.08h-2m-3.98 0h-3.98m-3.98 0h-4m-3.97 0h-4m-3.98 0h-4m-3.97 0h-3.98m-4 0h-3.97m-4 0h-3.97m-4 0h-3.97m-3.98 0h-4m-3.97 0h-3.98m-3.98 0h-3.98m-4 0h-3.97m-4 0h-3.98m-4 0h-3.97m-3.98 0h-4m-3.97 0h-4m-3.97 0h-3.98m-4 0h-3.97m-4 0h-3.97m-3.98 0h-3.98m-4 0h-3.97m-3.98 0h-4m-3.98 0h-4m-3.97 0h-3.98m-4 0h-3.97m-4 0h-3.97m-4 0h-3.97m-3.98 0h-2" stroke="#3a414a" fill="none"/><path d="M1200 601.55h-.5v-.95h.5z" stroke="#3a414a" stroke-width=".05" fill="#3a414a"/><path d="M961.62 601.08l14.26-4.64v9.27z" stroke="#3a414a" fill="#3a414a"/><defs><filter id="a" filterUnits="objectBoundingBox" x="-.01" y="-.04" width="1.05" height="1.13"><feOffset result="offOut" in="SourceAlpha" dx="7.66" dy="6.43"/><feGaussianBlur result="blurOut" in="offOut" stdDeviation="7.5"/><feColorMatrix result="colorOut" in="blurOut" values="0 0 0 0 0 0 0 0 0 0 0 0 0 0 0 0 0 0 0.4980392156862745 0"/><feBlend in="SourceGraphic" in2="colorOut"/></filter><filter id="b" filterUnits="objectBoundingBox" x="-.05" y="-.05" width="1.19" height="1.19"><feOffset result="offOut" in="SourceAlpha" dx="7.66" dy="6.43"/><feGaussianBlur result="blurOut" in="offOut" stdDeviation="7.5"/><feColorMatrix result="colorOut" in="blurOut" values="0 0 0 0 0 0 0 0 0 0 0 0 0 0 0 0 0 0 0.4980392156862745 0"/><feBlend in="SourceGraphic" in2="colorOut"/></filter></defs></g></svg>