<svg xmlns="http://www.w3.org/2000/svg" xmlns:lucid="lucid" width="2562" height="1362"><g transform="translate(241 121)" lucid:page-tab-id="0_0"><path d="M-240-114a6 6 0 0 1 6-6h2548a6 6 0 0 1 6 6v1348a6 6 0 0 1-6 6H-234a6 6 0 0 1-6-6z" stroke="#000" stroke-opacity="0" stroke-width="2" fill-opacity="0"/><path d="M440 465a25 25 0 0 1 25-25h510a25 25 0 0 1 25 25v190a25 25 0 0 1-25 25H465a25 25 0 0 1-25-25z" stroke="#000" stroke-opacity="0" fill="#f2f3f5" filter="url(#a)"/><path d="M480 505a25 25 0 0 1 25-25h110a25 25 0 0 1 25 25v110a25 25 0 0 1-25 25H505a25 25 0 0 1-25-25z" stroke="#000" stroke-opacity="0" fill="#fff" filter="url(#b)"/><path d="M800 505a25 25 0 0 1 25-25h110a25 25 0 0 1 25 25v110a25 25 0 0 1-25 25H825a25 25 0 0 1-25-25z" stroke="#000" stroke-opacity="0" fill="#374151" filter="url(#c)"/><path d="M640.5 518.92h143.12" stroke="#3a414a" fill="none"/><path d="M640.5 519.4h-.5v-.95h.5z" stroke="#3a414a" stroke-width=".05" fill="#3a414a"/><path d="M798.38 518.92l-14.26 4.64v-9.27z" stroke="#3a414a" fill="#3a414a"/><path d="M799.5 599.75h-2m-3.96 0h-3.98m-3.97 0h-4m-3.97 0h-3.97m-3.98 0h-3.97m-3.97 0h-3.97m-3.98 0h-3.97m-3.97 0h-3.97m-3.98 0h-3.98m-3.97 0h-3.98m-3.97 0H718m-3.97 0h-3.98m-3.97 0h-3.98m-3.97 0h-3.98m-3.98 0h-3.97m-3.98 0h-3.97m-3.98 0h-3.97m-3.98 0h-3.97m-3.98 0h-2" stroke="#3a414a" fill="none"/><path d="M800 600.23h-.5v-.95h.5z" stroke="#3a414a" stroke-width=".05" fill="#3a414a"/><path d="M641.62 599.75l14.26-4.63v9.27z" stroke="#3a414a" fill="#3a414a"/><path d="M1080 265a25 25 0 0 1 25-25h510a25 25 0 0 1 25 25v190a25 25 0 0 1-25 25h-510a25 25 0 0 1-25-25z" stroke="#000" stroke-opacity="0" fill="#f2f3f5" filter="url(#d)"/><path d="M1120 305a25 25 0 0 1 25-25h110a25 25 0 0 1 25 25v110a25 25 0 0 1-25 25h-110a25 25 0 0 1-25-25z" stroke="#000" stroke-opacity="0" fill="#fff" filter="url(#b)"/><path d="M1440 305a25 25 0 0 1 25-25h110a25 25 0 0 1 25 25v110a25 25 0 0 1-25 25h-110a25 25 0 0 1-25-25z" stroke="#000" stroke-opacity="0" fill="#374151" filter="url(#b)"/><path d="M1280.5 318.92h143.12" stroke="#3a414a" fill="none"/><path d="M1280.5 319.4h-.5v-.95h.5z" stroke="#3a414a" stroke-width=".05" fill="#3a414a"/><path d="M1438.38 318.92l-14.27 4.64.02-9.27z" stroke="#3a414a" fill="#3a414a"/><path d="M1439.5 399.75h-2m-3.96 0h-3.98m-3.97 0h-4m-3.96 0h-3.98m-3.98 0h-3.97m-3.97 0h-3.97m-3.98 0h-3.97m-3.97 0h-3.97m-3.98 0h-3.98m-3.97 0h-3.98m-3.97 0H1358m-3.97 0h-3.98m-3.97 0h-3.98m-3.97 0h-3.98m-3.98 0h-3.97m-3.98 0h-3.97m-3.98 0h-3.97m-3.98 0h-3.97m-3.98 0h-2" stroke="#3a414a" fill="none"/><path d="M1440 400.23h-.5v-.95h.5z" stroke="#3a414a" stroke-width=".05" fill="#3a414a"/><path d="M1281.62 399.75l14.26-4.63v9.27z" stroke="#3a414a" fill="#3a414a"/><path d="M1080 665a25 25 0 0 1 25-25h510a25 25 0 0 1 25 25v190a25 25 0 0 1-25 25h-510a25 25 0 0 1-25-25z" stroke="#000" stroke-opacity="0" fill="#f2f3f5" filter="url(#a)"/><path d="M1120 705a25 25 0 0 1 25-25h110a25 25 0 0 1 25 25v110a25 25 0 0 1-25 25h-110a25 25 0 0 1-25-25z" stroke="#000" stroke-opacity="0" fill="#fff" filter="url(#b)"/><path d="M1440 705a25 25 0 0 1 25-25h110a25 25 0 0 1 25 25v110a25 25 0 0 1-25 25h-110a25 25 0 0 1-25-25z" stroke="#000" stroke-opacity="0" fill="#374151" filter="url(#b)"/><path d="M1280.5 718.92h143.12" stroke="#3a414a" fill="none"/><path d="M1280.5 719.4h-.5v-.95h.5z" stroke="#3a414a" stroke-width=".05" fill="#3a414a"/><path d="M1438.38 718.92l-14.26 4.64v-9.27z" stroke="#3a414a" fill="#3a414a"/><path d="M1439.5 799.75h-2m-3.96 0h-3.98m-3.97 0h-4m-3.96 0h-3.98m-3.98 0h-3.97m-3.97 0h-3.97m-3.98 0h-3.97m-3.97 0h-3.97m-3.98 0h-3.98m-3.97 0h-3.98m-3.97 0H1358m-3.97 0h-3.98m-3.97 0h-3.98m-3.97 0h-3.98m-3.98 0h-3.97m-3.98 0h-3.97m-3.98 0h-3.97m-3.98 0h-3.97m-3.98 0h-2" stroke="#3a414a" fill="none"/><path d="M1440 800.23h-.5v-.95h.5z" stroke="#3a414a" stroke-width=".05" fill="#3a414a"/><path d="M1281.62 799.75l14.26-4.63v9.27z" stroke="#3a414a" fill="#3a414a"/><path d="M1370 560c0 5.52-4.48 10-10 10s-10-4.48-10-10 4.48-10 10-10 10 4.48 10 10zM1370 510c0 5.52-4.48 10-10 10s-10-4.48-10-10 4.48-10 10-10 10 4.48 10 10zM1370 610c0 5.52-4.48 10-10 10s-10-4.48-10-10 4.48-10 10-10 10 4.48 10 10z" stroke="#000" stroke-opacity="0" stroke-width="2" fill="#3a414a"/><path d="M920.16 640.5v75a6 6 0 0 0 6 6h177.46" stroke="#3a414a" fill="none"/><path d="M920.63 640.5h-.95v-.5h.95z" stroke="#3a414a" stroke-width=".05" fill="#3a414a"/><path d="M1118.38 721.5l-14.26 4.64v-9.27z" stroke="#3a414a" fill="#3a414a"/><path d="M1119.5 800.88h-2m-4.02 0h-4m-4.03 0h-4m-4.02 0h-4m-4.03 0h-4m-4.02 0h-4m-4.03 0h-4m-4.02 0h-4m-4.03 0h-4m-4.02 0h-4.02m-4 0h-4.02m-4 0h-4.03m-4 0h-4m-4.03 0h-4m-4.02 0h-4m-4.03 0h-4m-4.02 0h-4m-4.03 0h-4m-4.02 0h-4.02m-4 0H965m-4 0h-4.02m-4 0h-4.02m-4 0h-4.03m-4 0h-4.02m-4 0h-4.02m-4 0h-4.02m-4.02 0h-4m-4.02 0h-4.02m-4 0h-4.02m-4 0h-4.03m-4 0h-4.02m-4 0h-4.03m-4 0h-4.02m-4.02 0h-4m-4.02 0h-2l-.95-.07-.92-.2-.44-.2m-3.23-3.23l-.17-.43-.22-.92-.07-.94v-2.03m0-4.08v-4.07m0-4.07v-4.08m0-4.07v-4.08m0-4.07v-4.07m0-4.08v-4.07m0-4.06v-4.08m0-4.07v-4.08m0-4.08v-4.07m0-4.07v-4.08m0-4.07v-4.07m0-4.08v-4.07m0-4.07v-4.08m0-4.07v-4.07m0-4.07v-4.07m0-4.08v-4.08m0-4.07v-4.08m0-4.08v-2.04" stroke="#3a414a" fill="none"/><path d="M1120 801.36h-.5v-.95h.5z" stroke="#3a414a" stroke-width=".05" fill="#3a414a"/><path d="M840.63 641.62l4.64 14.26H836z" stroke="#3a414a" fill="#3a414a"/><path d="M842.14 479.5V324.23a6 6 0 0 1 6-6h255.48" stroke="#3a414a" fill="none"/><path d="M842.6 480h-.94v-.5h.95z" stroke="#3a414a" stroke-width=".05" fill="#3a414a"/><path d="M1118.38 318.23l-14.26 4.63v-9.27z" stroke="#3a414a" fill="#3a414a"/><path d="M1119.5 399.52h-2m-4.02 0h-4.02m-4 0h-4.03m-4 0h-4.02m-4 0h-4.02m-4.02 0h-4m-4.03 0h-4m-4.03 0h-4m-4.02 0h-4.02m-4 0h-4.03m-4 0h-4.03m-4 0h-4.03m-4 0h-4.03m-4 0h-4.02m-4.02 0h-4m-4.03 0h-4m-4.03 0h-4m-4.03 0h-4m-4 0h-4.03m-4 0h-4.03m-4 0h-4.03m-4 0h-4.02m-4 0h-4.03m-4 0h-4.02m-4.02 0h-2l-.93.07-.92.2-.44.2m-3.22 3.23l-.18.44-.22.9-.08.95v2.08m0 4.14v4.15m0 4.14v4.15m0 4.14v4.15m0 4.14v4.15m0 4.14v4.15m0 4.14v4.15m0 4.14v2.08" stroke="#3a414a" fill="none"/><path d="M1120 400h-.5v-.95h.5z" stroke="#3a414a" stroke-width=".05" fill="#3a414a"/><path d="M920.8 478.38l-4.63-14.26h9.27z" stroke="#3a414a" fill="#3a414a"/><defs><filter id="a" filterUnits="objectBoundingBox" x="-.01" y="-.04" width="1.05" height="1.13"><feOffset result="offOut" in="SourceAlpha" dx="7.66" dy="6.43"/><feGaussianBlur result="blurOut" in="offOut" stdDeviation="7.5"/><feColorMatrix result="colorOut" in="blurOut" values="0 0 0 0 0 0 0 0 0 0 0 0 0 0 0 0 0 0 0.5019607843137255 0"/><feBlend in="SourceGraphic" in2="colorOut"/></filter><filter id="b" filterUnits="objectBoundingBox" x="-.05" y="-.05" width="1.19" height="1.19"><feOffset result="offOut" in="SourceAlpha" dx="7.66" dy="6.43"/><feGaussianBlur result="blurOut" in="offOut" stdDeviation="7.5"/><feColorMatrix result="colorOut" in="blurOut" values="0 0 0 0 0 0 0 0 0 0 0 0 0 0 0 0 0 0 0.5019607843137255 0"/><feBlend in="SourceGraphic" in2="colorOut"/></filter><filter id="c" filterUnits="objectBoundingBox" x="-.12" y="-.11" width="1.31" height="1.31"><feOffset result="offOut" in="SourceAlpha" dx="6.25" dy="7.81"/><feGaussianBlur result="blurOut" in="offOut" stdDeviation="12.5"/><feColorMatrix result="colorOut" in="blurOut" values="0 0 0 0 0 0 0 0 0 0 0 0 0 0 0 0 0 0 0.5019607843137255 0"/><feBlend in="SourceGraphic" in2="colorOut"/></filter><filter id="d" filterUnits="objectBoundingBox" x="-.03" y="-.07" width="1.09" height="1.21"><feOffset result="offOut" in="SourceAlpha" dx="6.25" dy="7.81"/><feGaussianBlur result="blurOut" in="offOut" stdDeviation="12.5"/><feColorMatrix result="colorOut" in="blurOut" values="0 0 0 0 0 0 0 0 0 0 0 0 0 0 0 0 0 0 0.5019607843137255 0"/><feBlend in="SourceGraphic" in2="colorOut"/></filter></defs></g></svg>