<svg xmlns="http://www.w3.org/2000/svg" xmlns:lucid="lucid" width="2562" height="1362"><g transform="translate(-399.00000000000045 121)" lucid:page-tab-id="0_0"><path d="M400-114a6 6 0 0 1 6-6h2548a6 6 0 0 1 6 6v1348a6 6 0 0 1-6 6H406a6 6 0 0 1-6-6z" stroke="#000" stroke-opacity="0" stroke-width="2" fill-opacity="0"/><path d="M2360-55a25 25 0 0 1 25-25h510a25 25 0 0 1 25 25v190a25 25 0 0 1-25 25h-510a25 25 0 0 1-25-25zM2360 984.78a25 25 0 0 1 25-25h510a25 25 0 0 1 25 25v190a25 25 0 0 1-25 25h-510a25 25 0 0 1-25-25z" stroke="#000" stroke-opacity="0" fill="#f2f3f5" filter="url(#a)"/><path d="M2360 265a25 25 0 0 1 25-25h490a25 25 0 0 1 25 25v190a25 25 0 0 1-25 25h-490a25 25 0 0 1-25-25z" stroke="#000" stroke-opacity="0" fill="#f2f3f5" filter="url(#b)"/><path d="M440 465a25 25 0 0 1 25-25h510a25 25 0 0 1 25 25v190a25 25 0 0 1-25 25H465a25 25 0 0 1-25-25z" stroke="#000" stroke-opacity="0" fill="#f2f3f5" filter="url(#c)"/><path d="M480 505a25 25 0 0 1 25-25h110a25 25 0 0 1 25 25v110a25 25 0 0 1-25 25H505a25 25 0 0 1-25-25z" stroke="#000" stroke-opacity="0" fill="#fff" filter="url(#d)"/><path d="M800 505a25 25 0 0 1 25-25h110a25 25 0 0 1 25 25v110a25 25 0 0 1-25 25H825a25 25 0 0 1-25-25z" stroke="#000" stroke-opacity="0" fill="#374151" filter="url(#d)"/><path d="M640.5 518.92h143.12" stroke="#3a414a" fill="none"/><path d="M640.5 519.4h-.5v-.95h.5z" stroke="#3a414a" stroke-width=".05" fill="#3a414a"/><path d="M798.38 518.92l-14.26 4.64v-9.27z" stroke="#3a414a" fill="#3a414a"/><path d="M799.5 599.75h-2m-3.96 0h-3.98m-3.97 0h-4m-3.97 0h-3.97m-3.98 0h-3.97m-3.97 0h-3.97m-3.98 0h-3.97m-3.97 0h-3.97m-3.98 0h-3.98m-3.97 0h-3.98m-3.97 0H718m-3.97 0h-3.98m-3.97 0h-3.98m-3.97 0h-3.98m-3.98 0h-3.97m-3.98 0h-3.97m-3.98 0h-3.97m-3.98 0h-3.97m-3.98 0h-2" stroke="#3a414a" fill="none"/><path d="M800 600.23h-.5v-.95h.5z" stroke="#3a414a" stroke-width=".05" fill="#3a414a"/><path d="M641.62 599.75l14.26-4.63v9.27z" stroke="#3a414a" fill="#3a414a"/><path d="M1080-55a25 25 0 0 1 25-25h1150a25 25 0 0 1 25 25v510a25 25 0 0 1-25 25H1105a25 25 0 0 1-25-25z" stroke="#000" stroke-opacity="0" fill="#f2f3f5" filter="url(#e)"/><path d="M1120 145a25 25 0 0 1 25-25h110a25 25 0 0 1 25 25v110a25 25 0 0 1-25 25h-110a25 25 0 0 1-25-25z" stroke="#000" stroke-opacity="0" fill="#fff" filter="url(#d)"/><path d="M1440 145a25 25 0 0 1 25-25h110a25 25 0 0 1 25 25v110a25 25 0 0 1-25 25h-110a25 25 0 0 1-25-25z" stroke="#000" stroke-opacity="0" fill="#374151" filter="url(#d)"/><path d="M1280.5 158.92h143.12" stroke="#3a414a" fill="none"/><path d="M1280.5 159.4h-.5v-.95h.5z" stroke="#3a414a" stroke-width=".05" fill="#3a414a"/><path d="M1438.38 158.92l-14.27 4.64.02-9.27z" stroke="#3a414a" fill="#3a414a"/><path d="M1439.5 239.75h-2m-3.96 0h-3.98m-3.97 0h-4m-3.96 0h-3.98m-3.98 0h-3.97m-3.97 0h-3.97m-3.98 0h-3.97m-3.97 0h-3.97m-3.98 0h-3.98m-3.97 0h-3.98m-3.97 0H1358m-3.97 0h-3.98m-3.97 0h-3.98m-3.97 0h-3.98m-3.98 0h-3.97m-3.98 0h-3.97m-3.98 0h-3.97m-3.98 0h-3.97m-3.98 0h-2" stroke="#3a414a" fill="none"/><path d="M1440 240.23h-.5v-.95h.5z" stroke="#3a414a" stroke-width=".05" fill="#3a414a"/><path d="M1281.62 239.75l14.26-4.63v9.27z" stroke="#3a414a" fill="#3a414a"/><path d="M1080 665a25 25 0 0 1 25-25h1150a25 25 0 0 1 25 25v510a25 25 0 0 1-25 25H1105a25 25 0 0 1-25-25z" stroke="#000" stroke-opacity="0" fill="#f2f3f5" filter="url(#e)"/><path d="M1120 865a25 25 0 0 1 25-25h110a25 25 0 0 1 25 25v110a25 25 0 0 1-25 25h-110a25 25 0 0 1-25-25z" stroke="#000" stroke-opacity="0" fill="#fff" filter="url(#d)"/><path d="M1440 865a25 25 0 0 1 25-25h110a25 25 0 0 1 25 25v110a25 25 0 0 1-25 25h-110a25 25 0 0 1-25-25z" stroke="#000" stroke-opacity="0" fill="#374151" filter="url(#d)"/><path d="M1280.5 878.92h143.12" stroke="#3a414a" fill="none"/><path d="M1280.5 879.4h-.5v-.95h.5z" stroke="#3a414a" stroke-width=".05" fill="#3a414a"/><path d="M1438.38 878.92l-14.26 4.64v-9.27z" stroke="#3a414a" fill="#3a414a"/><path d="M1439.5 959.75h-2m-3.96 0h-3.98m-3.97 0h-4m-3.96 0h-3.98m-3.98 0h-3.97m-3.97 0h-3.97m-3.98 0h-3.97m-3.97 0h-3.97m-3.98 0h-3.98m-3.97 0h-3.98m-3.97 0H1358m-3.97 0h-3.98m-3.97 0h-3.98m-3.97 0h-3.98m-3.98 0h-3.97m-3.98 0h-3.97m-3.98 0h-3.97m-3.98 0h-3.97m-3.98 0h-2" stroke="#3a414a" fill="none"/><path d="M1440 960.23h-.5v-.95h.5z" stroke="#3a414a" stroke-width=".05" fill="#3a414a"/><path d="M1281.62 959.75l14.26-4.63v9.27z" stroke="#3a414a" fill="#3a414a"/><path d="M1760 305a25 25 0 0 1 25-25h110a25 25 0 0 1 25 25v110a25 25 0 0 1-25 25h-110a25 25 0 0 1-25-25z" stroke="#000" stroke-opacity="0" fill="#fff" filter="url(#d)"/><path d="M2080 305a25 25 0 0 1 25-25h110a25 25 0 0 1 25 25v110a25 25 0 0 1-25 25h-110a25 25 0 0 1-25-25z" stroke="#000" stroke-opacity="0" fill="#374151" filter="url(#d)"/><path d="M1920.5 318.92h143.12" stroke="#3a414a" fill="none"/><path d="M1920.5 319.4h-.5v-.95h.5z" stroke="#3a414a" stroke-width=".05" fill="#3a414a"/><path d="M2078.38 318.92l-14.26 4.64v-9.27z" stroke="#3a414a" fill="#3a414a"/><path d="M2079.5 399.75h-2m-3.96 0h-3.98m-3.97 0h-4m-3.96 0h-3.98m-3.97 0h-4m-3.96 0h-3.98m-3.97 0h-4m-3.96 0h-3.98m-3.97 0h-4m-3.96 0h-3.98m-3.97 0h-4m-3.96 0h-3.98m-3.98 0h-3.97m-3.97 0h-3.97m-3.98 0h-3.98m-3.97 0h-3.98m-3.97 0h-3.98m-3.97 0h-3.98m-3.98 0h-1.98" stroke="#3a414a" fill="none"/><path d="M2080 400.23h-.5v-.95h.5z" stroke="#3a414a" stroke-width=".05" fill="#3a414a"/><path d="M1921.62 399.75l14.27-4.63-.02 9.27z" stroke="#3a414a" fill="#3a414a"/><path d="M1760-15a25 25 0 0 1 25-25h110a25 25 0 0 1 25 25V95a25 25 0 0 1-25 25h-110a25 25 0 0 1-25-25z" stroke="#000" stroke-opacity="0" fill="#fff" filter="url(#d)"/><path d="M2080-15a25 25 0 0 1 25-25h110a25 25 0 0 1 25 25V95a25 25 0 0 1-25 25h-110a25 25 0 0 1-25-25z" stroke="#000" stroke-opacity="0" fill="#374151" filter="url(#d)"/><path d="M1920.5-1.08h143.1" stroke="#3a414a" fill="none"/><path d="M1920.5-.6h-.5v-.95h.5z" stroke="#3a414a" stroke-width=".05" fill="#3a414a"/><path d="M2078.38-1.08l-14.27 4.64V-5.7z" stroke="#3a414a" fill="#3a414a"/><path d="M2079.5 79.75h-2m-3.96 0h-3.98m-3.97 0h-4m-3.96 0h-3.98m-3.97 0h-4m-3.96 0h-3.98m-3.97 0h-4m-3.96 0h-3.98m-3.97 0h-4m-3.96 0h-3.98m-3.97 0h-4m-3.96 0h-3.98m-3.98 0h-3.97m-3.97 0h-3.97m-3.98 0h-3.98m-3.97 0h-3.98m-3.97 0h-3.98m-3.97 0h-3.98m-3.98 0h-1.98" stroke="#3a414a" fill="none"/><path d="M2080 80.23h-.5v-.95h.5z" stroke="#3a414a" stroke-width=".05" fill="#3a414a"/><path d="M1921.62 79.75l14.27-4.63-.02 9.27z" stroke="#3a414a" fill="#3a414a"/><path d="M1760 1025a25 25 0 0 1 25-25h110a25 25 0 0 1 25 25v110a25 25 0 0 1-25 25h-110a25 25 0 0 1-25-25z" stroke="#000" stroke-opacity="0" fill="#fff" filter="url(#d)"/><path d="M2080 1025a25 25 0 0 1 25-25h110a25 25 0 0 1 25 25v110a25 25 0 0 1-25 25h-110a25 25 0 0 1-25-25z" stroke="#000" stroke-opacity="0" fill="#374151" filter="url(#d)"/><path d="M1920.5 1038.92h143.12" stroke="#3a414a" fill="none"/><path d="M1920.5 1039.4h-.5v-.95h.5z" stroke="#3a414a" stroke-width=".05" fill="#3a414a"/><path d="M2078.38 1038.92l-14.26 4.64v-9.27z" stroke="#3a414a" fill="#3a414a"/><path d="M2079.5 1119.75h-2m-3.96 0h-3.98m-3.97 0h-4m-3.96 0h-3.98m-3.97 0h-4m-3.96 0h-3.98m-3.97 0h-4m-3.96 0h-3.98m-3.97 0h-4m-3.96 0h-3.98m-3.97 0h-4m-3.96 0h-3.98m-3.98 0h-3.97m-3.97 0h-3.97m-3.98 0h-3.98m-3.97 0h-3.98m-3.97 0h-3.98m-3.97 0h-3.98m-3.98 0h-1.98" stroke="#3a414a" fill="none"/><path d="M2080 1120.23h-.5v-.95h.5z" stroke="#3a414a" stroke-width=".05" fill="#3a414a"/><path d="M1921.62 1119.75l14.27-4.63-.02 9.27z" stroke="#3a414a" fill="#3a414a"/><path d="M1760 705a25 25 0 0 1 25-25h110a25 25 0 0 1 25 25v110a25 25 0 0 1-25 25h-110a25 25 0 0 1-25-25z" stroke="#000" stroke-opacity="0" fill="#fff" filter="url(#d)"/><path d="M2080 705a25 25 0 0 1 25-25h110a25 25 0 0 1 25 25v110a25 25 0 0 1-25 25h-110a25 25 0 0 1-25-25z" stroke="#000" stroke-opacity="0" fill="#374151" filter="url(#d)"/><path d="M1920.5 718.92h143.12" stroke="#3a414a" fill="none"/><path d="M1920.5 719.4h-.5v-.95h.5z" stroke="#3a414a" stroke-width=".05" fill="#3a414a"/><path d="M2078.38 718.92l-14.26 4.64v-9.27z" stroke="#3a414a" fill="#3a414a"/><path d="M2079.5 799.75h-2m-3.96 0h-3.98m-3.97 0h-4m-3.96 0h-3.98m-3.97 0h-4m-3.96 0h-3.98m-3.97 0h-4m-3.96 0h-3.98m-3.97 0h-4m-3.96 0h-3.98m-3.97 0h-4m-3.96 0h-3.98m-3.98 0h-3.97m-3.97 0h-3.97m-3.98 0h-3.98m-3.97 0h-3.98m-3.97 0h-3.98m-3.97 0h-3.98m-3.98 0h-1.98" stroke="#3a414a" fill="none"/><path d="M2080 800.23h-.5v-.95h.5z" stroke="#3a414a" stroke-width=".05" fill="#3a414a"/><path d="M1921.62 799.75l14.27-4.63-.02 9.27z" stroke="#3a414a" fill="#3a414a"/><path d="M1690 560c0 5.52-4.48 10-10 10s-10-4.48-10-10 4.48-10 10-10 10 4.48 10 10zM1690 510c0 5.52-4.48 10-10 10s-10-4.48-10-10 4.48-10 10-10 10 4.48 10 10zM1690 610c0 5.52-4.48 10-10 10s-10-4.48-10-10 4.48-10 10-10 10 4.48 10 10z" stroke="#000" stroke-opacity="0" stroke-width="2" fill="#3a414a"/><path d="M2400-15a25 25 0 0 1 25-25h110a25 25 0 0 1 25 25V95a25 25 0 0 1-25 25h-110a25 25 0 0 1-25-25z" stroke="#000" stroke-opacity="0" fill="#fff" filter="url(#d)"/><path d="M2720-15a25 25 0 0 1 25-25h110a25 25 0 0 1 25 25V95a25 25 0 0 1-25 25h-110a25 25 0 0 1-25-25z" stroke="#000" stroke-opacity="0" fill="#374151" filter="url(#d)"/><path d="M2560.5-1.08h143.1" stroke="#3a414a" fill="none"/><path d="M2560.5-.6h-.5v-.95h.5z" stroke="#3a414a" stroke-width=".05" fill="#3a414a"/><path d="M2718.38-1.08l-14.27 4.64V-5.7z" stroke="#3a414a" fill="#3a414a"/><path d="M2719.5 79.75h-2m-3.96 0h-3.98m-3.97 0h-4m-3.96 0h-3.98m-3.97 0h-4m-3.96 0h-3.98m-3.97 0h-4m-3.96 0h-3.98m-3.97 0h-4m-3.96 0h-3.98m-3.97 0h-4m-3.96 0h-3.98m-3.98 0h-3.97m-3.97 0h-3.97m-3.98 0h-3.98m-3.97 0h-3.98m-3.97 0h-3.98m-3.98 0h-3.97m-3.98 0h-1.98" stroke="#3a414a" fill="none"/><path d="M2720 80.23h-.5v-.95h.5z" stroke="#3a414a" stroke-width=".05" fill="#3a414a"/><path d="M2561.62 79.75l14.27-4.63v9.27z" stroke="#3a414a" fill="#3a414a"/><path d="M2400 305a25 25 0 0 1 25-25h110a25 25 0 0 1 25 25v110a25 25 0 0 1-25 25h-110a25 25 0 0 1-25-25z" stroke="#000" stroke-opacity="0" fill="#fff" filter="url(#d)"/><path d="M2720 305a25 25 0 0 1 25-25h110a25 25 0 0 1 25 25v110a25 25 0 0 1-25 25h-110a25 25 0 0 1-25-25z" stroke="#000" stroke-opacity="0" fill="#374151" filter="url(#d)"/><path d="M2560.5 318.92h143.1" stroke="#3a414a" fill="none"/><path d="M2560.5 319.4h-.5v-.95h.5z" stroke="#3a414a" stroke-width=".05" fill="#3a414a"/><path d="M2718.38 318.92l-14.27 4.64v-9.27z" stroke="#3a414a" fill="#3a414a"/><path d="M2719.5 399.75h-2m-3.96 0h-3.98m-3.97 0h-4m-3.96 0h-3.98m-3.97 0h-4m-3.96 0h-3.98m-3.97 0h-4m-3.96 0h-3.98m-3.97 0h-4m-3.96 0h-3.98m-3.97 0h-4m-3.96 0h-3.98m-3.98 0h-3.97m-3.97 0h-3.97m-3.98 0h-3.98m-3.97 0h-3.98m-3.97 0h-3.98m-3.98 0h-3.97m-3.98 0h-1.98" stroke="#3a414a" fill="none"/><path d="M2720 400.23h-.5v-.95h.5z" stroke="#3a414a" stroke-width=".05" fill="#3a414a"/><path d="M2561.62 399.75l14.27-4.63v9.27z" stroke="#3a414a" fill="#3a414a"/><path d="M2360 665a25 25 0 0 1 25-25h490a25 25 0 0 1 25 25v190a25 25 0 0 1-25 25h-490a25 25 0 0 1-25-25z" stroke="#000" stroke-opacity="0" fill="#f2f3f5" filter="url(#b)"/><path d="M2400 705a25 25 0 0 1 25-25h110a25 25 0 0 1 25 25v110a25 25 0 0 1-25 25h-110a25 25 0 0 1-25-25z" stroke="#000" stroke-opacity="0" fill="#fff" filter="url(#d)"/><path d="M2720 705a25 25 0 0 1 25-25h110a25 25 0 0 1 25 25v110a25 25 0 0 1-25 25h-110a25 25 0 0 1-25-25z" stroke="#000" stroke-opacity="0" fill="#374151" filter="url(#d)"/><path d="M2560.5 718.92h143.1" stroke="#3a414a" fill="none"/><path d="M2560.5 719.4h-.5v-.95h.5z" stroke="#3a414a" stroke-width=".05" fill="#3a414a"/><path d="M2718.38 718.92l-14.27 4.64v-9.27z" stroke="#3a414a" fill="#3a414a"/><path d="M2719.5 799.75h-2m-3.96 0h-3.98m-3.97 0h-4m-3.96 0h-3.98m-3.97 0h-4m-3.96 0h-3.98m-3.97 0h-4m-3.96 0h-3.98m-3.97 0h-4m-3.96 0h-3.98m-3.97 0h-4m-3.96 0h-3.98m-3.98 0h-3.97m-3.97 0h-3.97m-3.98 0h-3.98m-3.97 0h-3.98m-3.97 0h-3.98m-3.98 0h-3.97m-3.98 0h-1.98" stroke="#3a414a" fill="none"/><path d="M2720 800.23h-.5v-.95h.5z" stroke="#3a414a" stroke-width=".05" fill="#3a414a"/><path d="M2561.62 799.75l14.27-4.63v9.27z" stroke="#3a414a" fill="#3a414a"/><path d="M2400 1024.78a25 25 0 0 1 25-25h110a25 25 0 0 1 25 25v110a25 25 0 0 1-25 25h-110a25 25 0 0 1-25-25z" stroke="#000" stroke-opacity="0" fill="#fff" filter="url(#d)"/><path d="M2720 1024.78a25 25 0 0 1 25-25h110a25 25 0 0 1 25 25v110a25 25 0 0 1-25 25h-110a25 25 0 0 1-25-25z" stroke="#000" stroke-opacity="0" fill="#374151" filter="url(#d)"/><path d="M2560.5 1038.7h143.1" stroke="#3a414a" fill="none"/><path d="M2560.5 1039.17h-.5v-.95h.5z" stroke="#3a414a" stroke-width=".05" fill="#3a414a"/><path d="M2718.38 1038.7l-14.27 4.63v-9.27z" stroke="#3a414a" fill="#3a414a"/><path d="M2719.5 1119.53h-2m-3.96 0h-3.98m-3.97 0h-4m-3.96 0h-3.98m-3.97 0h-4m-3.96 0h-3.98m-3.97 0h-4m-3.96 0h-3.98m-3.97 0h-4m-3.96 0h-3.98m-3.97 0h-4m-3.96 0h-3.98m-3.98 0h-3.97m-3.97 0h-3.97m-3.98 0h-3.98m-3.97 0h-3.98m-3.97 0h-3.98m-3.98 0h-3.97m-3.98 0h-1.98" stroke="#3a414a" fill="none"/><path d="M2720 1120h-.5v-.95h.5z" stroke="#3a414a" stroke-width=".05" fill="#3a414a"/><path d="M2561.62 1119.53l14.27-4.64v9.26z" stroke="#3a414a" fill="#3a414a"/><path d="M840.4 479.5V165.9a6 6 0 0 1 6-6h257.22" stroke="#3a414a" fill="none"/><path d="M840.88 480h-.95v-.5h.95z" stroke="#3a414a" stroke-width=".05" fill="#3a414a"/><path d="M1118.38 159.9l-14.26 4.65v-9.27z" stroke="#3a414a" fill="#3a414a"/><path d="M1119.5 238.4h-2.02m-4.03 0h-4.03m-4.03 0h-4.04m-4.03 0h-4.03m-4.03 0h-4.04m-4.03 0h-4.03m-4.03 0h-4.03m-4.02 0h-4.03m-4.03 0h-4.04m-4.03 0h-4.03m-4.03 0h-4.04m-4.03 0h-4.03m-4.03 0h-4.04m-4.03 0h-4.03m-4.03 0h-4.03m-4.02 0h-4.03m-4.03 0h-4.04m-4.03 0h-4.03m-4.03 0h-4.04m-4.03 0h-4.03m-4.03 0h-4.04m-4.03 0h-4.03m-4.03 0h-4.03m-4.02 0h-4.03m-4.03 0H926l-.94.07-.9.22-.45.17m-3.23 3.24l-.18.45-.23.9-.07.95v2.03m0 4.06v4.05m0 4.06v4.07m0 4.06v4.06m0 4.05v4.06m0 4.07v4.05m0 4.06v4.06m0 4.06v4.06m0 4.06v4.06m0 4.06v4.06m0 4.06v4.06m0 4.06v4.06m0 4.06v4.06m0 4.06v4.06m0 4.06v4.06m0 4.06v4.06m0 4.06v4.06m0 4.06v4.06m0 4.05v4.07m0 4.06v4.06m0 4.05v4.06m0 4.07v4.06m0 4.06v4.05m0 4.06v4.07m0 4.06v4.06m0 4.05v4.06m0 4.07v4.06m0 4.06v2.02" stroke="#3a414a" fill="none"/><path d="M1120 238.88h-.5v-.95h.5z" stroke="#3a414a" stroke-width=".05" fill="#3a414a"/><path d="M920 478.38l-4.63-14.26h9.26z" stroke="#3a414a" fill="#3a414a"/><path d="M921.2 640.5v233.75a6 6 0 0 0 6 6h176.42" stroke="#3a414a" fill="none"/><path d="M921.68 640.5h-.94v-.5h.94z" stroke="#3a414a" stroke-width=".05" fill="#3a414a"/><path d="M1118.38 880.25l-14.26 4.63v-9.27z" stroke="#3a414a" fill="#3a414a"/><path d="M1119.5 956.26h-2m-3.98 0h-4m-3.97 0h-4m-3.98 0h-3.98m-4 0h-4m-3.97 0h-4m-3.98 0h-3.98m-4 0h-3.98m-4 0h-3.98m-4 0h-3.98m-3.98 0h-4m-3.97 0h-4m-4 0h-3.98m-3.98 0h-4m-3.98 0h-3.98m-4 0h-3.98m-3.98 0h-4m-3.98 0h-3.98m-4 0H974m-3.98 0h-4m-3.98 0h-3.98m-4 0h-3.98m-3.98 0h-4m-3.98 0h-4m-3.97 0h-4m-3.98 0h-3.98m-4 0h-3.97m-4 0h-3.98m-4 0h-3.97m-4 0h-3.98m-3.98 0h-4m-4 0h-3.97m-4 0h-3.98m-3.98 0h-4m-3.98 0h-2l-.94-.08-.9-.2-.45-.2m-3.23-3.23l-.18-.44-.23-.9-.07-.94v-2m0-3.96v-3.97m0-3.97v-3.97m0-3.98v-3.97m0-3.98v-3.97m0-3.97v-3.97m0-3.97v-3.98m0-3.97v-3.98m0-3.97v-3.97m0-3.97v-3.97m0-3.98v-3.97m0-3.97v-3.98m0-3.97v-3.97m0-3.97V845m0-3.97v-3.97m0-3.97v-3.97m0-3.97v-3.97m0-3.98v-3.97m0-3.97v-3.97m0-3.96v-3.98m0-3.97v-3.98m0-3.97v-3.97m0-3.97v-3.96m0-3.97v-3.98m0-3.98v-3.97m0-3.97v-3.97m0-3.96v-3.97m0-3.98v-3.98m0-3.97v-3.97m0-3.97v-3.96m0-3.97V710m0-3.98v-3.97m0-3.97v-3.97m0-3.96v-3.97m0-3.97v-3.97m0-3.98v-3.97m0-3.97v-3.96m0-3.97v-2" stroke="#3a414a" fill="none"/><path d="M1120 956.73h-.5v-.95h.5z" stroke="#3a414a" stroke-width=".05" fill="#3a414a"/><path d="M842.4 641.62l4.63 14.26h-9.26z" stroke="#3a414a" fill="#3a414a"/><path d="M1477.32 119.5V5.7a6 6 0 0 1 6-6h260.3" stroke="#3a414a" fill="none"/><path d="M1477.8 120h-.95v-.5h.95z" stroke="#3a414a" stroke-width=".05" fill="#3a414a"/><path d="M1758.38-.3l-14.26 4.64v-9.27z" stroke="#3a414a" fill="#3a414a"/><path d="M1759.5 80.5h-2m-3.98 0h-4m-3.98 0h-4m-4 0h-3.98m-4 0h-3.98m-4 0h-3.98m-4 0h-3.98m-4 0h-3.98m-4 0h-3.98m-4 0h-3.98m-4 0h-3.98m-4 0h-3.98m-4 0h-3.98m-4 0h-3.98m-4 0h-3.98m-4 0h-3.98m-4 0h-3.98m-4 0h-3.98m-4 0h-3.98m-4 0h-3.98m-4 0h-3.98m-4 0h-3.98m-4 0h-3.98m-4 0h-3.98m-4 0h-2l-.93.08-.9.22-.45.18m-3.23 3.23l-.18.45-.22.9-.08.95v2.14m0 4.28v4.28m0 4.28v2.14" stroke="#3a414a" fill="none"/><path d="M1760 80.98h-.5v-.95h.5z" stroke="#3a414a" stroke-width=".05" fill="#3a414a"/><path d="M1561.97 118.38l-4.63-14.26h9.27z" stroke="#3a414a" fill="#3a414a"/><path d="M1561.95 280.5v31.46a6 6 0 0 0 6 6h175.67" stroke="#3a414a" fill="none"/><path d="M1562.42 280.5h-.95v-.5h.95z" stroke="#3a414a" stroke-width=".05" fill="#3a414a"/><path d="M1758.38 317.96l-14.26 4.64v-9.27z" stroke="#3a414a" fill="#3a414a"/><path d="M1759.5 405.56h-1.98m-3.97 0h-3.96m-3.98 0h-3.96m-3.97 0h-3.98m-3.96 0h-3.97m-3.97 0h-3.97m-3.96 0h-3.97m-3.96 0H1702m-3.96 0h-3.97m-3.97 0h-3.96m-3.97 0h-3.96m-3.96 0h-3.96m-3.97 0h-3.95m-3.97 0h-3.97m-3.95 0h-3.97m-3.96 0h-3.97m-3.96 0h-3.98m-3.96 0h-3.97m-3.98 0h-3.96m-3.97 0h-3.97m-3.97 0h-3.96m-3.97 0h-3.96m-3.97 0h-3.96m-3.97 0h-3.96m-3.96 0h-3.97m-3.96 0h-3.96m-3.96 0h-3.97m-3.95 0h-3.97m-3.97 0h-3.95m-3.97 0h-3.96m-3.97 0h-3.96m-3.98 0h-3.96m-3.97 0h-3.97m-3.97 0h-3.96m-3.97 0h-3.97m-3.96 0h-1.98l-.94-.07-.92-.23-.43-.18m-3.24-3.25l-.2-.43-.2-.92-.08-.94v-1.98m0-3.97v-3.96m0-3.97v-3.97m0-3.96v-3.97m0-3.97v-3.97m0-3.97v-3.97m0-3.97v-3.97m0-3.97V342m0-3.97v-3.97m0-3.96v-3.97m0-3.97v-3.97m0-3.96v-3.97m0-3.96v-3.96m0-3.97v-2" stroke="#3a414a" fill="none"/><path d="M1760 406.04h-.5v-.95h.5z" stroke="#3a414a" stroke-width=".05" fill="#3a414a"/><path d="M1475.92 281.62l4.63 14.26h-9.27z" stroke="#3a414a" fill="#3a414a"/><path d="M2240.5-3.13h143.1" stroke="#3a414a" fill="none"/><path d="M2240.5-2.65h-.5v-.95h.5z" stroke="#3a414a" stroke-width=".05" fill="#3a414a"/><path d="M2398.38-3.13L2384.1 1.5v-9.26z" stroke="#3a414a" fill="#3a414a"/><path d="M2399.5 82.12h-2m-3.96 0h-3.98m-3.97 0h-4m-3.96 0h-3.98m-3.97 0h-4m-3.96 0h-3.98m-3.97 0h-4m-3.96 0h-3.98m-3.97 0h-4m-3.96 0h-3.98m-3.97 0h-4m-3.96 0h-3.98m-3.98 0h-3.97m-3.97 0h-3.97m-3.98 0h-3.98m-3.97 0h-3.98m-3.97 0h-3.98m-3.98 0h-3.97m-3.98 0h-1.98" stroke="#3a414a" fill="none"/><path d="M2400 82.6h-.5v-.95h.5z" stroke="#3a414a" stroke-width=".05" fill="#3a414a"/><path d="M2241.62 82.12l14.27-4.63v9.26z" stroke="#3a414a" fill="#3a414a"/><path d="M2240.5 320.86h143.1" stroke="#3a414a" fill="none"/><path d="M2240.5 321.33h-.5v-.95h.5z" stroke="#3a414a" stroke-width=".05" fill="#3a414a"/><path d="M2398.38 320.86l-14.27 4.63v-9.28z" stroke="#3a414a" fill="#3a414a"/><path d="M2399.5 400.26h-2m-3.96 0h-3.98m-3.97 0h-4m-3.96 0h-3.98m-3.97 0h-4m-3.96 0h-3.98m-3.97 0h-4m-3.96 0h-3.98m-3.97 0h-4m-3.96 0h-3.98m-3.97 0h-4m-3.96 0h-3.98m-3.98 0h-3.97m-3.97 0h-3.97m-3.98 0h-3.98m-3.97 0h-3.98m-3.97 0h-3.98m-3.98 0h-3.97m-3.98 0h-1.98" stroke="#3a414a" fill="none"/><path d="M2400 400.74h-.5v-.95h.5z" stroke="#3a414a" stroke-width=".05" fill="#3a414a"/><path d="M2241.62 400.26l14.27-4.63v9.27z" stroke="#3a414a" fill="#3a414a"/><path d="M2240.5 719.33h143.1" stroke="#3a414a" fill="none"/><path d="M2240.5 719.8h-.5v-.94h.5z" stroke="#3a414a" stroke-width=".05" fill="#3a414a"/><path d="M2398.38 719.33l-14.27 4.63v-9.27z" stroke="#3a414a" fill="#3a414a"/><path d="M2399.5 800.8h-2m-3.96 0h-3.98m-3.97 0h-4m-3.96 0h-3.98m-3.97 0h-4m-3.96 0h-3.98m-3.97 0h-4m-3.96 0h-3.98m-3.97 0h-4m-3.96 0h-3.98m-3.97 0h-4m-3.96 0h-3.98m-3.98 0h-3.97m-3.97 0h-3.97m-3.98 0h-3.98m-3.97 0h-3.98m-3.97 0h-3.98m-3.98 0h-3.97m-3.98 0h-1.98" stroke="#3a414a" fill="none"/><path d="M2400 801.28h-.5v-.95h.5z" stroke="#3a414a" stroke-width=".05" fill="#3a414a"/><path d="M2241.62 800.8l14.27-4.63v9.27z" stroke="#3a414a" fill="#3a414a"/><path d="M2240.5 1038.77h143.12" stroke="#3a414a" fill="none"/><path d="M2240.5 1039.25h-.5v-.95h.5z" stroke="#3a414a" stroke-width=".05" fill="#3a414a"/><path d="M2398.38 1038.77l-14.26 4.64v-9.26z" stroke="#3a414a" fill="#3a414a"/><path d="M2399.5 1121.2h-2m-3.96 0h-3.98m-3.97 0h-4m-3.96 0h-3.98m-3.98 0h-3.97m-3.97 0h-3.97m-3.98 0h-3.97m-3.97 0h-3.97m-3.98 0h-3.97m-3.97 0h-3.98m-3.97 0H2318m-3.97 0h-3.98m-3.97 0h-3.98m-3.97 0h-3.98m-3.97 0h-3.98m-3.98 0h-3.97m-3.98 0h-3.97m-3.98 0h-3.97m-3.98 0h-2" stroke="#3a414a" fill="none"/><path d="M2400 1121.7h-.5v-.96h.5z" stroke="#3a414a" stroke-width=".05" fill="#3a414a"/><path d="M2241.62 1121.2l14.26-4.62v9.27z" stroke="#3a414a" fill="#3a414a"/><path d="M1561.17 1000.5v30a6 6 0 0 0 6 6h176.45" stroke="#3a414a" fill="none"/><path d="M1561.64 1000.5h-.95v-.5h.94z" stroke="#3a414a" stroke-width=".05" fill="#3a414a"/><path d="M1758.38 1036.5l-14.26 4.65v-9.27z" stroke="#3a414a" fill="#3a414a"/><path d="M1759.5 1123.33h-1.98m-3.97 0h-3.96m-3.98 0h-3.96m-3.97 0h-3.98m-3.96 0h-3.97m-3.97 0h-3.97m-3.96 0h-3.97m-3.96 0H1702m-3.96 0h-3.97m-3.97 0h-3.96m-3.97 0h-3.96m-3.96 0h-3.96m-3.97 0h-3.95m-3.97 0h-3.97m-3.95 0h-3.97m-3.96 0h-3.97m-3.96 0h-3.98m-3.96 0h-3.97m-3.98 0h-3.96m-3.97 0h-3.97m-3.97 0h-3.96m-3.97 0h-3.96m-3.97 0h-3.96m-3.97 0h-3.96m-3.96 0h-3.97m-3.96 0h-3.96m-3.96 0h-3.97m-3.95 0h-3.97m-3.97 0h-3.95m-3.97 0h-3.96m-3.97 0h-3.96m-3.98 0h-3.96m-3.97 0h-3.97m-3.97 0h-3.96m-3.97 0h-3.97m-3.96 0h-1.98l-.94-.08-.92-.22-.43-.18m-3.24-3.23l-.2-.44-.2-.9-.08-.95v-1.94m0-3.9v-3.88m0-3.88v-3.88m0-3.9v-3.87m0-3.9v-3.87m0-3.9v-3.87m0-3.88v-3.88m0-3.9v-3.87m0-3.88v-3.88m0-3.9v-3.87m0-3.88v-3.88m0-3.88v-3.9m0-3.87v-3.9m0-3.88v-1.94" stroke="#3a414a" fill="none"/><path d="M1760 1123.8h-.5v-.95h.5z" stroke="#3a414a" stroke-width=".05" fill="#3a414a"/><path d="M1475.92 1001.62l4.63 14.26h-9.27z" stroke="#3a414a" fill="#3a414a"/><path d="M1475.13 839.5V719.07a6 6 0 0 1 6-6h262.5" stroke="#3a414a" fill="none"/><path d="M1475.6 840h-.94v-.5h.95z" stroke="#3a414a" stroke-width=".05" fill="#3a414a"/><path d="M1758.38 713.07l-14.26 4.64v-9.26z" stroke="#3a414a" fill="#3a414a"/><path d="M1759.5 800.67h-2m-3.96 0h-3.98m-3.97 0h-3.98m-3.98 0h-3.97m-3.98 0h-3.98m-3.98 0h-3.97m-3.97 0h-3.98m-3.97 0h-3.98m-3.97 0h-3.98m-3.97 0h-3.98m-3.97 0h-3.97m-3.98 0h-3.97m-3.98 0h-3.97m-3.98 0h-3.97m-3.98 0h-3.97m-3.97 0h-3.98m-3.97 0h-3.97m-3.97 0h-3.97m-4 0h-3.96m-3.98 0h-3.97m-4 0h-3.96m-3.98 0h-3.97m-3.98 0h-3.98m-3.97 0h-3.98m-3.98 0h-2l-.93.07-.92.22-.44.18m-3.24 3.24l-.17.44-.22.9-.07.95v2.12m0 4.23v4.23m0 4.24v2.12" stroke="#3a414a" fill="none"/><path d="M1760 801.14h-.5v-.94h.5z" stroke="#3a414a" stroke-width=".05" fill="#3a414a"/><path d="M1562.73 838.38l-4.63-14.26h9.27z" stroke="#3a414a" fill="#3a414a"/><path d="M2650 560c0 5.52-4.48 10-10 10s-10-4.48-10-10 4.48-10 10-10 10 4.48 10 10zM2650 510c0 5.52-4.48 10-10 10s-10-4.48-10-10 4.48-10 10-10 10 4.48 10 10zM2650 610c0 5.52-4.48 10-10 10s-10-4.48-10-10 4.48-10 10-10 10 4.48 10 10z" stroke="#000" stroke-opacity="0" stroke-width="2" fill="#3a414a"/><defs><filter id="a" filterUnits="objectBoundingBox" x="-.01" y="-.04" width="1.05" height="1.13"><feOffset result="offOut" in="SourceAlpha" dx="7.66" dy="6.43"/><feGaussianBlur result="blurOut" in="offOut" stdDeviation="7.5"/><feColorMatrix result="colorOut" in="blurOut" values="0 0 0 0 0 0 0 0 0 0 0 0 0 0 0 0 0 0 0.5019607843137255 0"/><feBlend in="SourceGraphic" in2="colorOut"/></filter><filter id="b" filterUnits="objectBoundingBox" x="-.01" y="-.04" width="1.06" height="1.13"><feOffset result="offOut" in="SourceAlpha" dx="7.66" dy="6.43"/><feGaussianBlur result="blurOut" in="offOut" stdDeviation="7.5"/><feColorMatrix result="colorOut" in="blurOut" values="0 0 0 0 0 0 0 0 0 0 0 0 0 0 0 0 0 0 0.5019607843137255 0"/><feBlend in="SourceGraphic" in2="colorOut"/></filter><filter id="c" filterUnits="objectBoundingBox" x="-.01" y="-.04" width="1.05" height="1.13"><feOffset result="offOut" in="SourceAlpha" dx="7.66" dy="6.43"/><feGaussianBlur result="blurOut" in="offOut" stdDeviation="7.5"/><feColorMatrix result="colorOut" in="blurOut" values="0 0 0 0 0 0 0 0 0 0 0 0 0 0 0 0 0 0 0.5019607843137255 0"/><feBlend in="SourceGraphic" in2="colorOut"/></filter><filter id="d" filterUnits="objectBoundingBox" x="-.05" y="-.05" width="1.19" height="1.19"><feOffset result="offOut" in="SourceAlpha" dx="7.66" dy="6.43"/><feGaussianBlur result="blurOut" in="offOut" stdDeviation="7.5"/><feColorMatrix result="colorOut" in="blurOut" values="0 0 0 0 0 0 0 0 0 0 0 0 0 0 0 0 0 0 0.5019607843137255 0"/><feBlend in="SourceGraphic" in2="colorOut"/></filter><filter id="e" filterUnits="objectBoundingBox" x="-.01" y="-.02" width="1.02" height="1.05"><feOffset result="offOut" in="SourceAlpha" dx="7.66" dy="6.43"/><feGaussianBlur result="blurOut" in="offOut" stdDeviation="7.5"/><feColorMatrix result="colorOut" in="blurOut" values="0 0 0 0 0 0 0 0 0 0 0 0 0 0 0 0 0 0 0.5019607843137255 0"/><feBlend in="SourceGraphic" in2="colorOut"/></filter></defs></g></svg>