<svg xmlns="http://www.w3.org/2000/svg" xmlns:lucid="lucid" width="2562" height="1362"><g transform="translate(-79 121)" lucid:page-tab-id="0_0"><path d="M80-114a6 6 0 0 1 6-6h2548a6 6 0 0 1 6 6v1348a6 6 0 0 1-6 6H86a6 6 0 0 1-6-6z" stroke="#000" stroke-opacity="0" stroke-width="2" fill-opacity="0"/><path d="M440 465a25 25 0 0 1 25-25h510a25 25 0 0 1 25 25v190a25 25 0 0 1-25 25H465a25 25 0 0 1-25-25z" stroke="#000" stroke-opacity="0" fill="#f2f3f5" filter="url(#a)"/><path d="M480 505a25 25 0 0 1 25-25h110a25 25 0 0 1 25 25v110a25 25 0 0 1-25 25H505a25 25 0 0 1-25-25z" stroke="#000" stroke-opacity="0" fill="#fff" filter="url(#b)"/><path d="M800 505a25 25 0 0 1 25-25h110a25 25 0 0 1 25 25v110a25 25 0 0 1-25 25H825a25 25 0 0 1-25-25z" stroke="#000" stroke-opacity="0" fill="#374151" filter="url(#b)"/><path d="M640.5 518.92h143.12" stroke="#3a414a" fill="none"/><path d="M640.5 519.4h-.5v-.95h.5z" stroke="#3a414a" stroke-width=".05" fill="#3a414a"/><path d="M798.38 518.92l-14.26 4.64v-9.27z" stroke="#3a414a" fill="#3a414a"/><path d="M799.5 599.75h-2m-3.96 0h-3.98m-3.97 0h-4m-3.97 0h-3.97m-3.98 0h-3.97m-3.97 0h-3.97m-3.98 0h-3.97m-3.97 0h-3.97m-3.98 0h-3.98m-3.97 0h-3.98m-3.97 0H718m-3.97 0h-3.98m-3.97 0h-3.98m-3.97 0h-3.98m-3.98 0h-3.97m-3.98 0h-3.97m-3.98 0h-3.97m-3.98 0h-3.97m-3.98 0h-2" stroke="#3a414a" fill="none"/><path d="M800 600.23h-.5v-.95h.5z" stroke="#3a414a" stroke-width=".05" fill="#3a414a"/><path d="M641.62 599.75l14.26-4.63v9.27z" stroke="#3a414a" fill="#3a414a"/><path d="M1080-55a25 25 0 0 1 25-25h1150a25 25 0 0 1 25 25v510a25 25 0 0 1-25 25H1105a25 25 0 0 1-25-25z" stroke="#000" stroke-opacity="0" fill="#f2f3f5" filter="url(#c)"/><path d="M1120 145a25 25 0 0 1 25-25h110a25 25 0 0 1 25 25v110a25 25 0 0 1-25 25h-110a25 25 0 0 1-25-25z" stroke="#000" stroke-opacity="0" fill="#fff" filter="url(#b)"/><path d="M1440 145a25 25 0 0 1 25-25h110a25 25 0 0 1 25 25v110a25 25 0 0 1-25 25h-110a25 25 0 0 1-25-25z" stroke="#000" stroke-opacity="0" fill="#374151" filter="url(#b)"/><path d="M1280.5 158.92h143.12" stroke="#3a414a" fill="none"/><path d="M1280.5 159.4h-.5v-.95h.5z" stroke="#3a414a" stroke-width=".05" fill="#3a414a"/><path d="M1438.38 158.92l-14.27 4.64.02-9.27z" stroke="#3a414a" fill="#3a414a"/><path d="M1439.5 239.75h-2m-3.96 0h-3.98m-3.97 0h-4m-3.96 0h-3.98m-3.98 0h-3.97m-3.97 0h-3.97m-3.98 0h-3.97m-3.97 0h-3.97m-3.98 0h-3.98m-3.97 0h-3.98m-3.97 0H1358m-3.97 0h-3.98m-3.97 0h-3.98m-3.97 0h-3.98m-3.98 0h-3.97m-3.98 0h-3.97m-3.98 0h-3.97m-3.98 0h-3.97m-3.98 0h-2" stroke="#3a414a" fill="none"/><path d="M1440 240.23h-.5v-.95h.5z" stroke="#3a414a" stroke-width=".05" fill="#3a414a"/><path d="M1281.62 239.75l14.26-4.63v9.27z" stroke="#3a414a" fill="#3a414a"/><path d="M1080 665a25 25 0 0 1 25-25h1150a25 25 0 0 1 25 25v510a25 25 0 0 1-25 25H1105a25 25 0 0 1-25-25z" stroke="#000" stroke-opacity="0" fill="#f2f3f5" filter="url(#c)"/><path d="M1120 865a25 25 0 0 1 25-25h110a25 25 0 0 1 25 25v110a25 25 0 0 1-25 25h-110a25 25 0 0 1-25-25z" stroke="#000" stroke-opacity="0" fill="#fff" filter="url(#b)"/><path d="M1440 865a25 25 0 0 1 25-25h110a25 25 0 0 1 25 25v110a25 25 0 0 1-25 25h-110a25 25 0 0 1-25-25z" stroke="#000" stroke-opacity="0" fill="#374151" filter="url(#b)"/><path d="M1280.5 878.92h143.12" stroke="#3a414a" fill="none"/><path d="M1280.5 879.4h-.5v-.95h.5z" stroke="#3a414a" stroke-width=".05" fill="#3a414a"/><path d="M1438.38 878.92l-14.26 4.64v-9.27z" stroke="#3a414a" fill="#3a414a"/><path d="M1439.5 959.75h-2m-3.96 0h-3.98m-3.97 0h-4m-3.96 0h-3.98m-3.98 0h-3.97m-3.97 0h-3.97m-3.98 0h-3.97m-3.97 0h-3.97m-3.98 0h-3.98m-3.97 0h-3.98m-3.97 0H1358m-3.97 0h-3.98m-3.97 0h-3.98m-3.97 0h-3.98m-3.98 0h-3.97m-3.98 0h-3.97m-3.98 0h-3.97m-3.98 0h-3.97m-3.98 0h-2" stroke="#3a414a" fill="none"/><path d="M1440 960.23h-.5v-.95h.5z" stroke="#3a414a" stroke-width=".05" fill="#3a414a"/><path d="M1281.62 959.75l14.26-4.63v9.27z" stroke="#3a414a" fill="#3a414a"/><path d="M1760 305a25 25 0 0 1 25-25h110a25 25 0 0 1 25 25v110a25 25 0 0 1-25 25h-110a25 25 0 0 1-25-25z" stroke="#000" stroke-opacity="0" fill="#fff" filter="url(#b)"/><path d="M2080 305a25 25 0 0 1 25-25h110a25 25 0 0 1 25 25v110a25 25 0 0 1-25 25h-110a25 25 0 0 1-25-25z" stroke="#000" stroke-opacity="0" fill="#374151" filter="url(#b)"/><path d="M1920.5 318.92h143.12" stroke="#3a414a" fill="none"/><path d="M1920.5 319.4h-.5v-.95h.5z" stroke="#3a414a" stroke-width=".05" fill="#3a414a"/><path d="M2078.38 318.92l-14.26 4.64v-9.27z" stroke="#3a414a" fill="#3a414a"/><path d="M2079.5 399.75h-2m-3.96 0h-3.98m-3.97 0h-4m-3.96 0h-3.98m-3.97 0h-4m-3.96 0h-3.98m-3.97 0h-4m-3.96 0h-3.98m-3.97 0h-4m-3.96 0h-3.98m-3.97 0h-4m-3.96 0h-3.98m-3.98 0h-3.97m-3.97 0h-3.97m-3.98 0h-3.98m-3.97 0h-3.98m-3.97 0h-3.98m-3.97 0h-3.98m-3.98 0h-1.98" stroke="#3a414a" fill="none"/><path d="M2080 400.23h-.5v-.95h.5z" stroke="#3a414a" stroke-width=".05" fill="#3a414a"/><path d="M1921.62 399.75l14.27-4.63-.02 9.27z" stroke="#3a414a" fill="#3a414a"/><path d="M1760-15a25 25 0 0 1 25-25h110a25 25 0 0 1 25 25V95a25 25 0 0 1-25 25h-110a25 25 0 0 1-25-25z" stroke="#000" stroke-opacity="0" fill="#fff" filter="url(#b)"/><path d="M2080-15a25 25 0 0 1 25-25h110a25 25 0 0 1 25 25V95a25 25 0 0 1-25 25h-110a25 25 0 0 1-25-25z" stroke="#000" stroke-opacity="0" fill="#374151" filter="url(#b)"/><path d="M1920.5-1.08h143.1" stroke="#3a414a" fill="none"/><path d="M1920.5-.6h-.5v-.95h.5z" stroke="#3a414a" stroke-width=".05" fill="#3a414a"/><path d="M2078.38-1.08l-14.27 4.64V-5.7z" stroke="#3a414a" fill="#3a414a"/><path d="M2079.5 79.75h-2m-3.96 0h-3.98m-3.97 0h-4m-3.96 0h-3.98m-3.97 0h-4m-3.96 0h-3.98m-3.97 0h-4m-3.96 0h-3.98m-3.97 0h-4m-3.96 0h-3.98m-3.97 0h-4m-3.96 0h-3.98m-3.98 0h-3.97m-3.97 0h-3.97m-3.98 0h-3.98m-3.97 0h-3.98m-3.97 0h-3.98m-3.97 0h-3.98m-3.98 0h-1.98" stroke="#3a414a" fill="none"/><path d="M2080 80.23h-.5v-.95h.5z" stroke="#3a414a" stroke-width=".05" fill="#3a414a"/><path d="M1921.62 79.75l14.27-4.63-.02 9.27z" stroke="#3a414a" fill="#3a414a"/><path d="M1760 1025a25 25 0 0 1 25-25h110a25 25 0 0 1 25 25v110a25 25 0 0 1-25 25h-110a25 25 0 0 1-25-25z" stroke="#000" stroke-opacity="0" fill="#fff" filter="url(#b)"/><path d="M2080 1025a25 25 0 0 1 25-25h110a25 25 0 0 1 25 25v110a25 25 0 0 1-25 25h-110a25 25 0 0 1-25-25z" stroke="#000" stroke-opacity="0" fill="#374151" filter="url(#b)"/><path d="M1920.5 1038.92h143.12" stroke="#3a414a" fill="none"/><path d="M1920.5 1039.4h-.5v-.95h.5z" stroke="#3a414a" stroke-width=".05" fill="#3a414a"/><path d="M2078.38 1038.92l-14.26 4.64v-9.27z" stroke="#3a414a" fill="#3a414a"/><path d="M2079.5 1119.75h-2m-3.96 0h-3.98m-3.97 0h-4m-3.96 0h-3.98m-3.97 0h-4m-3.96 0h-3.98m-3.97 0h-4m-3.96 0h-3.98m-3.97 0h-4m-3.96 0h-3.98m-3.97 0h-4m-3.96 0h-3.98m-3.98 0h-3.97m-3.97 0h-3.97m-3.98 0h-3.98m-3.97 0h-3.98m-3.97 0h-3.98m-3.97 0h-3.98m-3.98 0h-1.98" stroke="#3a414a" fill="none"/><path d="M2080 1120.23h-.5v-.95h.5z" stroke="#3a414a" stroke-width=".05" fill="#3a414a"/><path d="M1921.62 1119.75l14.27-4.63-.02 9.27z" stroke="#3a414a" fill="#3a414a"/><path d="M1760 705a25 25 0 0 1 25-25h110a25 25 0 0 1 25 25v110a25 25 0 0 1-25 25h-110a25 25 0 0 1-25-25z" stroke="#000" stroke-opacity="0" fill="#fff" filter="url(#b)"/><path d="M2080 705a25 25 0 0 1 25-25h110a25 25 0 0 1 25 25v110a25 25 0 0 1-25 25h-110a25 25 0 0 1-25-25z" stroke="#000" stroke-opacity="0" fill="#374151" filter="url(#b)"/><path d="M1920.5 718.92h143.12" stroke="#3a414a" fill="none"/><path d="M1920.5 719.4h-.5v-.95h.5z" stroke="#3a414a" stroke-width=".05" fill="#3a414a"/><path d="M2078.38 718.92l-14.26 4.64v-9.27z" stroke="#3a414a" fill="#3a414a"/><path d="M2079.5 799.75h-2m-3.96 0h-3.98m-3.97 0h-4m-3.96 0h-3.98m-3.97 0h-4m-3.96 0h-3.98m-3.97 0h-4m-3.96 0h-3.98m-3.97 0h-4m-3.96 0h-3.98m-3.97 0h-4m-3.96 0h-3.98m-3.98 0h-3.97m-3.97 0h-3.97m-3.98 0h-3.98m-3.97 0h-3.98m-3.97 0h-3.98m-3.97 0h-3.98m-3.98 0h-1.98" stroke="#3a414a" fill="none"/><path d="M2080 800.23h-.5v-.95h.5z" stroke="#3a414a" stroke-width=".05" fill="#3a414a"/><path d="M1921.62 799.75l14.27-4.63-.02 9.27z" stroke="#3a414a" fill="#3a414a"/><path d="M1690 560c0 5.52-4.48 10-10 10s-10-4.48-10-10 4.48-10 10-10 10 4.48 10 10zM1690 510c0 5.52-4.48 10-10 10s-10-4.48-10-10 4.48-10 10-10 10 4.48 10 10zM1690 610c0 5.52-4.48 10-10 10s-10-4.48-10-10 4.48-10 10-10 10 4.48 10 10z" stroke="#000" stroke-opacity="0" stroke-width="2" fill="#3a414a"/><path d="M920.35 640.5v233.2a6 6 0 0 0 6 6h177.27" stroke="#3a414a" fill="none"/><path d="M920.82 640.5h-.95v-.5h.95z" stroke="#3a414a" stroke-width=".05" fill="#3a414a"/><path d="M1118.38 879.7l-14.26 4.63v-9.27z" stroke="#3a414a" fill="#3a414a"/><path d="M1119.5 957.48h-2m-3.98 0h-3.98m-4 0h-3.97m-4 0h-3.97m-4 0h-3.97m-4 0h-3.97m-4 0h-3.97m-4 0h-3.98m-4 0h-3.97m-4 0h-3.97m-4 0h-3.97m-3.98 0h-3.98m-4 0h-3.97m-4 0h-3.97m-4 0h-3.97m-3.98 0h-4m-3.98 0H990m-4 0h-3.98m-4 0h-3.97m-3.98 0h-4m-3.98 0h-4m-3.98 0h-3.98m-3.98 0h-4m-3.97 0h-4m-3.98 0h-4m-3.97 0h-4m-3.97 0h-4m-3.97 0h-3.98m-3.98 0h-4m-3.97 0h-4m-3.97 0h-4m-3.97 0h-4m-3.97 0h-4m-3.97 0h-4m-3.98 0h-2l-.93-.08-.93-.22-.43-.18m-3.24-3.24l-.18-.43-.22-.92-.08-.92v-2m0-4v-3.97m0-3.98v-4m0-3.98v-4m0-3.97v-4m0-3.98v-4m0-3.98v-4m0-3.98v-4m0-3.97v-4m0-3.98v-4m0-4v-3.97m0-4v-3.98m0-4v-3.97m0-4v-3.98m0-4v-3.97m0-4v-3.98m0-4v-3.98m0-3.98v-4m0-4v-3.98m0-3.98v-4m0-3.98v-4m0-3.98V782m0-4v-3.98m0-4v-3.97m0-4v-3.98m0-4v-3.98m0-4v-3.98m0-4v-3.98m0-3.98v-4m0-3.98v-4m0-3.97v-3.98m0-4v-3.98m0-4v-3.97m0-4v-3.98m0-4v-3.98m0-4v-3.98m0-4v-3.98m0-3.98v-2" stroke="#3a414a" fill="none"/><path d="M1120 957.95h-.5V957h.5z" stroke="#3a414a" stroke-width=".05" fill="#3a414a"/><path d="M842.52 641.62l4.64 14.26h-9.27z" stroke="#3a414a" fill="#3a414a"/><path d="M840.22 479.5V164.7a6 6 0 0 1 6-6h257.4" stroke="#3a414a" fill="none"/><path d="M840.7 480h-.95v-.5h.95z" stroke="#3a414a" stroke-width=".05" fill="#3a414a"/><path d="M1118.38 158.7l-14.26 4.63v-9.27z" stroke="#3a414a" fill="#3a414a"/><path d="M1119.5 237.68h-2.04m-4.08 0h-4.08m-4.08 0h-4.08m-4.08 0h-4.08m-4.08 0h-4.08m-4.08 0h-4.08m-4.07 0h-4.1m-4.07 0h-4.08m-4.08 0h-4.08m-4.1 0h-4.07m-4.08 0h-4.08m-4.08 0h-4.1m-4.07 0h-4.08m-4.08 0h-4.08m-4.1 0h-4.07m-4.08 0h-4.07m-4.1 0h-4.06m-4.08 0h-4.08m-4.08 0h-4.08m-4.08 0h-4.08m-4.08 0h-4.08m-4.08 0h-4.08m-4.08 0h-4.08m-4.08 0h-4.08m-4.08 0h-2.04l-.93.08-.92.22-.44.18m-3.24 3.23l-.18.43-.22.9-.08.95v2.04m0 4.07v4.06m0 4.08V262m0 4.08v4.08m0 4.07v4.07m0 4.07v4.08m0 4.07v4.07m0 4.07v4.07m0 4.07v4.08m0 4.08v4.07m0 4.07v4.08m0 4.07v4.07m0 4.07v4.07m0 4.07v4.07m0 4.1v4.06m0 4.07v4.07m0 4.08v4.07m0 4.07v4.08m0 4.07v4.07m0 4.07v4.1m0 4.06v4.07m0 4.08v4.08m0 4.07v4.07m0 4.08v4.07m0 4.07v4.08m0 4.07v4.06m0 4.07v4.08m0 4.08v2.04" stroke="#3a414a" fill="none"/><path d="M1120 238.16h-.5v-.95h.5z" stroke="#3a414a" stroke-width=".05" fill="#3a414a"/><path d="M917.68 478.38l-4.63-14.26h9.27z" stroke="#3a414a" fill="#3a414a"/><path d="M1487.56 119.5V6.03a6 6 0 0 1 6-6h250.06" stroke="#3a414a" fill="none"/><path d="M1488.03 120h-.95v-.5h.95z" stroke="#3a414a" stroke-width=".05" fill="#3a414a"/><path d="M1758.38.03l-14.26 4.63V-4.6z" stroke="#3a414a" fill="#3a414a"/><path d="M1759.5 73.7h-1.98m-3.96 0h-3.97m-3.97 0h-3.96m-3.97 0h-3.96m-3.96 0h-3.97m-3.95 0h-3.96m-3.98 0h-3.96m-3.96 0h-3.96m-3.97 0h-3.96m-3.95 0h-3.97m-3.96 0h-3.96m-3.97 0h-3.97m-3.96 0h-3.96m-3.96 0h-3.96m-3.96 0h-3.97m-3.96 0h-3.97m-3.97 0h-3.96m-3.96 0h-3.96m-3.97 0h-3.95m-3.96 0h-3.98m-3.96 0H1599m-3.97 0h-3.96m-3.96 0h-3.96m-3.96 0h-3.96m-3.96 0h-3.97m-3.97 0h-1.98l-.94.1-.9.2-.44.2m-3.24 3.22l-.18.44-.22.9-.07.95v2m0 4v3.97m0 4v3.97m0 3.98v2" stroke="#3a414a" fill="none"/><path d="M1760 74.2h-.5v-.96h.5z" stroke="#3a414a" stroke-width=".05" fill="#3a414a"/><path d="M1555.35 118.38l-4.64-14.26h9.28z" stroke="#3a414a" fill="#3a414a"/><path d="M1554.54 280.5v31.9a6 6 0 0 0 6 6h183.08" stroke="#3a414a" fill="none"/><path d="M1555.02 280.5h-.95v-.5h.95z" stroke="#3a414a" stroke-width=".05" fill="#3a414a"/><path d="M1758.38 318.4l-14.26 4.62v-9.27z" stroke="#3a414a" fill="#3a414a"/><path d="M1759.5 399.6h-2.02m-4.03 0h-4.03m-4.04 0h-4.03m-4.03 0h-4.03m-4.05 0h-4.03m-4.03 0h-4.04m-4.04 0h-4.03m-4.04 0h-4.03m-4.04 0h-4.04m-4.03 0h-4.04m-4.04 0h-4.03m-4.03 0h-4.04m-4.03 0h-4.03m-4.04 0h-4.03m-4.03 0h-4.03m-4.04 0h-4.03m-4.03 0h-4.03m-4.04 0h-4.03m-4.03 0h-4.03m-4.03 0h-4.03m-4.03 0h-4.03m-4.03 0h-4.03m-4.02 0h-4.04m-4.03 0H1572m-4.04 0h-4.03m-4.02 0h-4.03m-4.04 0h-4.02m-4.03 0h-4.04m-4.02 0h-4.03m-4.03 0h-4.04m-4.03 0h-4.03m-4.03 0h-4.05m-4.03 0h-4.03m-4.05 0h-2l-.95-.08-.92-.22-.43-.18m-3.24-3.24l-.17-.44-.22-.9-.06-.95v-2.03m0-4.05v-4.05m0-4.06v-4.03m0-4.06v-4.04m0-4.05v-4.04m0-4.05v-4.04m0-4.05v-4.04m0-4.05v-4.04m0-4.05v-4.04m0-4.05v-4.04m0-4.05v-4.04m0-4.05v-4.04m0-4.05v-2.02" stroke="#3a414a" fill="none"/><path d="M1760 400.07h-.5v-.95h.5z" stroke="#3a414a" stroke-width=".05" fill="#3a414a"/><path d="M1487.34 281.62l4.63 14.26h-9.27z" stroke="#3a414a" fill="#3a414a"/><path d="M1556.8 1000.5v32.48a6 6 0 0 0 6 6h180.82" stroke="#3a414a" fill="none"/><path d="M1557.28 1000.5h-.95v-.5h.95z" stroke="#3a414a" stroke-width=".05" fill="#3a414a"/><path d="M1758.38 1038.98l-14.26 4.64v-9.27z" stroke="#3a414a" fill="#3a414a"/><path d="M1759.5 1117.43h-2.02m-4.05 0h-4.05m-4.05 0h-4.05m-4.05 0h-4.04m-4.06 0h-4.05m-4.06 0H1717m-4.06 0h-4.04m-4.05 0h-4.05m-4.05 0h-4.05m-4.05 0h-4.04m-4.04 0h-4.05m-4.04 0h-4.05m-4.04 0h-4.04m-4.05 0h-4.05m-4.05 0h-4.05m-4.04 0h-4.05m-4.05 0h-4.05m-4.05 0h-4.05m-4.04 0h-4.06m-4.05 0h-4.06m-4.05 0h-4.05m-4.05 0h-4.05m-4.05 0h-4.05m-4.05 0h-4.04m-4.05 0h-4.04m-4.05 0h-4.04m-4.05 0h-4.04m-4.04 0h-4.05m-4.05 0h-4.05m-4.05 0h-4.04m-4.05 0h-4.05m-4.05 0h-4.05m-4.05 0h-4.04m-4.06 0h-2.03l-.92-.07-.92-.22-.43-.18m-3.24-3.24l-.2-.43-.2-.93-.1-.94v-1.98m0-3.96v-3.97m0-3.96v-3.96m0-3.95v-3.96m0-3.97v-3.96m0-3.96v-3.95m0-3.96v-3.97m0-3.96V1054m0-3.95v-3.96m0-3.97v-3.96m0-3.96v-3.96m0-3.95v-3.98m0-3.96v-1.98" stroke="#3a414a" fill="none"/><path d="M1760 1117.9h-.5v-.94h.5z" stroke="#3a414a" stroke-width=".05" fill="#3a414a"/><path d="M1486.3 1001.62l4.65 14.26h-9.27z" stroke="#3a414a" fill="#3a414a"/><path d="M1480.63 839.5V721.25a6 6 0 0 1 6-6h257" stroke="#3a414a" fill="none"/><path d="M1481.1 840h-.95v-.5h.95z" stroke="#3a414a" stroke-width=".05" fill="#3a414a"/><path d="M1758.38 715.25l-14.26 4.63v-9.27z" stroke="#3a414a" fill="#3a414a"/><path d="M1759.5 794.83h-2m-4 0h-4m-4 0h-4m-4 0h-4m-4.02 0h-4m-4 0h-4m-4 0h-4m-4 0h-4m-4 0h-4.02m-4 0h-4m-4 0h-4m-4 0h-4m-4 0h-4m-4.02 0h-4m-4 0h-4m-4 0h-4m-4 0h-4m-4 0h-4m-4.02 0h-4m-4 0h-4m-4 0h-4m-4 0h-4m-4 0h-4.02m-4 0h-4m-4 0h-4m-4 0h-2l-.95.07-.9.23-.45.17m-3.23 3.24l-.18.44-.23.9-.08.95v1.9m0 3.8v3.8m0 3.8v3.8m0 3.8v1.9" stroke="#3a414a" fill="none"/><path d="M1760 795.3h-.5v-.94h.5z" stroke="#3a414a" stroke-width=".05" fill="#3a414a"/><path d="M1553.4 838.38l-4.64-14.26h9.27z" stroke="#3a414a" fill="#3a414a"/><defs><filter id="a" filterUnits="objectBoundingBox" x="-.01" y="-.04" width="1.05" height="1.13"><feOffset result="offOut" in="SourceAlpha" dx="7.66" dy="6.43"/><feGaussianBlur result="blurOut" in="offOut" stdDeviation="7.5"/><feColorMatrix result="colorOut" in="blurOut" values="0 0 0 0 0 0 0 0 0 0 0 0 0 0 0 0 0 0 0.5019607843137255 0"/><feBlend in="SourceGraphic" in2="colorOut"/></filter><filter id="b" filterUnits="objectBoundingBox" x="-.05" y="-.05" width="1.19" height="1.19"><feOffset result="offOut" in="SourceAlpha" dx="7.66" dy="6.43"/><feGaussianBlur result="blurOut" in="offOut" stdDeviation="7.5"/><feColorMatrix result="colorOut" in="blurOut" values="0 0 0 0 0 0 0 0 0 0 0 0 0 0 0 0 0 0 0.5019607843137255 0"/><feBlend in="SourceGraphic" in2="colorOut"/></filter><filter id="c" filterUnits="objectBoundingBox" x="-.01" y="-.02" width="1.02" height="1.05"><feOffset result="offOut" in="SourceAlpha" dx="7.66" dy="6.43"/><feGaussianBlur result="blurOut" in="offOut" stdDeviation="7.5"/><feColorMatrix result="colorOut" in="blurOut" values="0 0 0 0 0 0 0 0 0 0 0 0 0 0 0 0 0 0 0.5019607843137255 0"/><feBlend in="SourceGraphic" in2="colorOut"/></filter></defs></g></svg>